<?xml version="1.0" encoding="utf-8"?>
<!-- Generator: Adobe Illustrator 16.0.4, SVG Export Plug-In . SVG Version: 6.00 Build 0)  -->
<!DOCTYPE svg PUBLIC "-//W3C//DTD SVG 1.1//EN" "http://www.w3.org/Graphics/SVG/1.1/DTD/svg11.dtd">
<svg version="1.1" id="GLYPHS" xmlns="http://www.w3.org/2000/svg" xmlns:xlink="http://www.w3.org/1999/xlink" x="0px" y="0px"
	 width="118px" height="42px" viewBox="0 0 118 42" enable-background="new 0 0 118 42" xml:space="preserve">
<g>
	<path fill="#FFFFFF" d="M1.141,13.865h2.023v5.586h2.398v-5.586h2.023v13.344H5.562v-6.164H3.164v6.164H1.141V13.865z"/>
	<path fill="#FFFFFF" d="M9.883,13.865h2.023v13.344H9.883V13.865z"/>
	<path fill="#FFFFFF" d="M14.188,13.865h2.102c0.317,0,0.647,0.009,0.988,0.027c0.341,0.019,0.674,0.074,1,0.168
		c0.325,0.094,0.633,0.238,0.922,0.434s0.543,0.469,0.762,0.82s0.392,0.794,0.52,1.328c0.127,0.534,0.191,1.187,0.191,1.957v3.875
		c0,0.771-0.064,1.425-0.191,1.961c-0.128,0.536-0.301,0.979-0.52,1.328s-0.473,0.621-0.762,0.816s-0.597,0.34-0.922,0.434
		c-0.326,0.094-0.659,0.149-1,0.168c-0.341,0.019-0.671,0.027-0.988,0.027h-2.102V13.865z M16.727,25.795
		c0.364,0,0.665-0.047,0.902-0.141c0.237-0.094,0.424-0.259,0.562-0.496c0.138-0.237,0.233-0.56,0.285-0.969
		c0.052-0.409,0.078-0.926,0.078-1.551v-4.141c0-0.625-0.026-1.142-0.078-1.551c-0.052-0.409-0.147-0.731-0.285-0.969
		c-0.138-0.237-0.326-0.402-0.562-0.496c-0.237-0.094-0.538-0.141-0.902-0.141h-0.516v10.453H16.727z"/>
	<path fill="#FFFFFF" d="M25.898,13.865h2.641l1.281,5.164c0.135,0.573,0.242,1.118,0.32,1.637s0.153,1.007,0.227,1.465h0.062
		c0.073-0.458,0.148-0.946,0.227-1.465s0.185-1.063,0.32-1.637l1.32-5.164h2.586v13.344h-1.891v-4.414
		c0-0.677,0.006-1.328,0.02-1.953c0.013-0.625,0.03-1.199,0.051-1.723c0.021-0.523,0.044-0.985,0.07-1.387
		c0.026-0.401,0.049-0.719,0.07-0.953h-0.148l-2.016,8.711h-1.281l-2.031-8.711h-0.148c0.021,0.234,0.044,0.552,0.07,0.953
		c0.026,0.401,0.049,0.863,0.07,1.387c0.021,0.523,0.038,1.098,0.051,1.723c0.013,0.625,0.02,1.276,0.02,1.953v4.414h-1.891V13.865z
		"/>
	<path fill="#FFFFFF" d="M39.75,27.326c-0.229,0-0.462-0.019-0.699-0.055c-0.237-0.036-0.466-0.112-0.688-0.227
		c-0.222-0.114-0.43-0.278-0.625-0.492s-0.366-0.495-0.512-0.844c-0.146-0.349-0.261-0.778-0.344-1.289
		c-0.083-0.511-0.125-1.12-0.125-1.828v-1.688c0-0.698,0.043-1.296,0.129-1.793s0.203-0.915,0.352-1.254s0.321-0.608,0.52-0.809
		c0.198-0.2,0.407-0.354,0.629-0.461c0.221-0.106,0.449-0.177,0.684-0.211s0.463-0.051,0.688-0.051c0.213,0,0.435,0.016,0.664,0.047
		c0.229,0.031,0.453,0.098,0.672,0.199s0.426,0.253,0.621,0.453s0.367,0.47,0.516,0.809s0.266,0.759,0.352,1.262
		s0.129,1.105,0.129,1.809v1.688c0,0.698-0.044,1.3-0.133,1.805c-0.089,0.505-0.208,0.933-0.359,1.281
		c-0.151,0.349-0.326,0.632-0.523,0.848c-0.198,0.216-0.406,0.384-0.625,0.504s-0.441,0.199-0.668,0.238S39.958,27.326,39.75,27.326
		z M39.766,25.803c0.177,0,0.327-0.046,0.449-0.137c0.122-0.091,0.221-0.241,0.297-0.449c0.075-0.208,0.13-0.483,0.164-0.824
		c0.034-0.341,0.051-0.765,0.051-1.27v-2.648c0-0.505-0.017-0.93-0.051-1.273c-0.034-0.344-0.089-0.621-0.164-0.832
		c-0.076-0.211-0.175-0.363-0.297-0.457c-0.123-0.094-0.272-0.141-0.449-0.141c-0.188,0-0.345,0.047-0.473,0.141
		c-0.128,0.094-0.233,0.246-0.316,0.457c-0.083,0.211-0.144,0.488-0.18,0.832c-0.037,0.344-0.055,0.769-0.055,1.273v2.648
		c0,0.505,0.018,0.929,0.055,1.27c0.036,0.341,0.096,0.616,0.18,0.824c0.083,0.208,0.188,0.358,0.316,0.449
		C39.42,25.757,39.578,25.803,39.766,25.803z"/>
	<path fill="#FFFFFF" d="M44.461,12.998h1.977v2.867l-0.062,1.422l0.008,0.008c0.088-0.125,0.191-0.245,0.309-0.359
		s0.25-0.218,0.398-0.309s0.312-0.163,0.492-0.215s0.376-0.078,0.59-0.078c0.109,0,0.241,0.011,0.395,0.031
		c0.153,0.021,0.312,0.073,0.477,0.156s0.328,0.207,0.492,0.371s0.31,0.39,0.438,0.676c0.127,0.286,0.231,0.644,0.312,1.07
		c0.081,0.427,0.121,0.945,0.121,1.555v3.258c0,0.609-0.041,1.128-0.121,1.555c-0.081,0.427-0.187,0.785-0.316,1.074
		c-0.13,0.289-0.279,0.517-0.445,0.684c-0.167,0.167-0.336,0.292-0.508,0.375s-0.339,0.137-0.5,0.16
		c-0.162,0.023-0.302,0.035-0.422,0.035c-0.25,0-0.476-0.031-0.676-0.094c-0.201-0.062-0.378-0.147-0.531-0.254
		c-0.154-0.106-0.289-0.228-0.406-0.363s-0.22-0.273-0.309-0.414l-0.164,1h-1.547V12.998z M46.438,25.029
		c0.042,0.099,0.092,0.195,0.152,0.289c0.06,0.094,0.129,0.176,0.207,0.246s0.169,0.128,0.273,0.172
		c0.104,0.044,0.221,0.066,0.352,0.066c0.146,0,0.278-0.027,0.398-0.082c0.12-0.055,0.224-0.153,0.312-0.297
		c0.088-0.144,0.157-0.343,0.207-0.598c0.049-0.255,0.074-0.583,0.074-0.984v-4.117c0-0.401-0.025-0.728-0.074-0.98
		c-0.05-0.253-0.117-0.452-0.203-0.598s-0.189-0.245-0.309-0.297c-0.12-0.052-0.253-0.078-0.398-0.078
		c-0.245,0-0.447,0.071-0.605,0.215c-0.159,0.144-0.288,0.313-0.387,0.512V25.029z"/>
	<path fill="#FFFFFF" d="M53.242,14.912c-0.365,0-0.652-0.109-0.863-0.328s-0.316-0.539-0.316-0.961c0-0.234,0.027-0.431,0.082-0.59
		s0.133-0.286,0.234-0.383s0.225-0.167,0.371-0.211c0.146-0.044,0.312-0.066,0.5-0.066c0.391,0,0.688,0.099,0.891,0.297
		s0.305,0.516,0.305,0.953c0,0.406-0.103,0.723-0.309,0.949C53.931,14.799,53.633,14.912,53.242,14.912z M52.219,16.451h1.977
		v10.758h-1.977V16.451z"/>
	<path fill="#FFFFFF" d="M56.289,12.998h1.977v14.211h-1.977V12.998z"/>
	<path fill="#FFFFFF" d="M62.922,27.326c-0.464,0-0.874-0.086-1.23-0.258c-0.357-0.172-0.658-0.44-0.902-0.805
		c-0.245-0.364-0.43-0.832-0.555-1.402s-0.188-1.257-0.188-2.059v-2.031c0-0.683,0.051-1.267,0.152-1.754s0.234-0.896,0.398-1.227
		s0.354-0.593,0.57-0.785c0.216-0.192,0.438-0.34,0.668-0.441c0.229-0.102,0.457-0.167,0.684-0.195s0.436-0.043,0.629-0.043
		c0.354,0,0.695,0.054,1.023,0.16s0.617,0.289,0.867,0.547s0.449,0.603,0.598,1.035s0.223,0.972,0.223,1.617
		c0,0.219-0.007,0.44-0.02,0.664c-0.013,0.224-0.03,0.444-0.051,0.66c-0.021,0.216-0.048,0.426-0.082,0.629
		c-0.034,0.203-0.069,0.391-0.105,0.562h-3.57v1.094c0,0.469,0.018,0.863,0.055,1.184c0.036,0.32,0.098,0.578,0.184,0.773
		s0.203,0.336,0.352,0.422s0.334,0.129,0.559,0.129c0.12,0,0.237-0.024,0.352-0.074c0.114-0.05,0.215-0.132,0.301-0.246
		s0.155-0.267,0.207-0.457c0.052-0.19,0.078-0.426,0.078-0.707v-0.336h1.648v0.414c0,1.021-0.244,1.765-0.73,2.23
		C64.548,27.093,63.844,27.326,62.922,27.326z M64.016,20.873c0.005-0.058,0.01-0.134,0.016-0.23
		c0.005-0.097,0.009-0.196,0.012-0.301c0.002-0.104,0.004-0.207,0.004-0.309s0-0.188,0-0.262c0-0.708-0.083-1.219-0.25-1.531
		c-0.167-0.312-0.414-0.469-0.742-0.469c-0.172,0-0.323,0.04-0.453,0.121c-0.13,0.081-0.237,0.216-0.32,0.406
		c-0.083,0.19-0.146,0.441-0.188,0.754c-0.042,0.312-0.062,0.7-0.062,1.164v0.656H64.016z"/>
	<path fill="#FFFFFF" d="M72.547,13.865h2.328l2.469,13.344h-2.047l-0.367-2.391h-2.438l-0.352,2.391h-2.055L72.547,13.865z
		 M74.695,23.295l-0.938-6.648h-0.086l-0.945,6.648H74.695z"/>
	<path fill="#FFFFFF" d="M81.016,27.326c-0.906,0-1.598-0.372-2.074-1.117s-0.715-1.88-0.715-3.406v-2.031
		c0-0.683,0.05-1.267,0.148-1.754s0.23-0.896,0.395-1.227s0.352-0.593,0.562-0.785s0.429-0.34,0.652-0.441s0.445-0.167,0.664-0.195
		s0.419-0.043,0.602-0.043c0.364,0,0.698,0.048,1,0.145s0.562,0.242,0.781,0.438s0.388,0.441,0.508,0.738s0.18,0.646,0.18,1.047
		c0,0.25-0.012,0.465-0.035,0.645s-0.056,0.353-0.098,0.52h-1.578v-0.359c0-0.542-0.063-0.965-0.191-1.27s-0.337-0.457-0.629-0.457
		c-0.161,0-0.302,0.038-0.422,0.113s-0.22,0.204-0.301,0.387s-0.141,0.427-0.18,0.734s-0.059,0.692-0.059,1.156v3.055
		c0,0.469,0.016,0.867,0.047,1.195s0.086,0.595,0.164,0.801s0.183,0.355,0.312,0.449s0.292,0.141,0.484,0.141
		c0.099,0,0.195-0.024,0.289-0.074s0.176-0.132,0.246-0.246s0.128-0.267,0.172-0.457s0.066-0.426,0.066-0.707v-0.336h1.703v0.414
		c0,1.021-0.226,1.765-0.676,2.23S81.911,27.326,81.016,27.326z"/>
	<path fill="#FFFFFF" d="M87.82,27.326c-0.906,0-1.598-0.372-2.074-1.117s-0.715-1.88-0.715-3.406v-2.031
		c0-0.683,0.05-1.267,0.148-1.754s0.23-0.896,0.395-1.227s0.352-0.593,0.562-0.785s0.429-0.34,0.652-0.441s0.445-0.167,0.664-0.195
		s0.419-0.043,0.602-0.043c0.364,0,0.698,0.048,1,0.145s0.562,0.242,0.781,0.438s0.388,0.441,0.508,0.738s0.18,0.646,0.18,1.047
		c0,0.25-0.012,0.465-0.035,0.645s-0.056,0.353-0.098,0.52h-1.578v-0.359c0-0.542-0.063-0.965-0.191-1.27s-0.337-0.457-0.629-0.457
		c-0.161,0-0.302,0.038-0.422,0.113s-0.22,0.204-0.301,0.387s-0.141,0.427-0.18,0.734s-0.059,0.692-0.059,1.156v3.055
		c0,0.469,0.016,0.867,0.047,1.195s0.086,0.595,0.164,0.801s0.183,0.355,0.312,0.449s0.292,0.141,0.484,0.141
		c0.099,0,0.195-0.024,0.289-0.074s0.176-0.132,0.246-0.246s0.128-0.267,0.172-0.457s0.066-0.426,0.066-0.707v-0.336h1.703v0.414
		c0,1.021-0.226,1.765-0.676,2.23S88.716,27.326,87.82,27.326z"/>
	<path fill="#FFFFFF" d="M94.711,27.326c-0.464,0-0.874-0.086-1.23-0.258s-0.657-0.44-0.902-0.805s-0.43-0.832-0.555-1.402
		s-0.188-1.257-0.188-2.059v-2.031c0-0.683,0.051-1.267,0.152-1.754s0.234-0.896,0.398-1.227s0.354-0.593,0.57-0.785
		s0.438-0.34,0.668-0.441s0.457-0.167,0.684-0.195s0.437-0.043,0.629-0.043c0.354,0,0.695,0.054,1.023,0.16s0.617,0.289,0.867,0.547
		s0.449,0.603,0.598,1.035s0.223,0.972,0.223,1.617c0,0.219-0.007,0.44-0.02,0.664s-0.03,0.444-0.051,0.66s-0.048,0.426-0.082,0.629
		s-0.069,0.391-0.105,0.562h-3.57v1.094c0,0.469,0.019,0.863,0.055,1.184s0.098,0.578,0.184,0.773s0.203,0.336,0.352,0.422
		s0.335,0.129,0.559,0.129c0.12,0,0.237-0.024,0.352-0.074s0.215-0.132,0.301-0.246s0.155-0.267,0.207-0.457
		s0.078-0.426,0.078-0.707v-0.336h1.648v0.414c0,1.021-0.243,1.765-0.73,2.23S95.633,27.326,94.711,27.326z M95.805,20.873
		c0.005-0.058,0.011-0.134,0.016-0.23s0.009-0.196,0.012-0.301s0.004-0.207,0.004-0.309s0-0.188,0-0.262
		c0-0.708-0.083-1.219-0.25-1.531s-0.414-0.469-0.742-0.469c-0.172,0-0.323,0.04-0.453,0.121s-0.237,0.216-0.32,0.406
		s-0.146,0.441-0.188,0.754s-0.062,0.7-0.062,1.164v0.656H95.805z"/>
	<path fill="#FFFFFF" d="M98.898,24.959c0-0.234,0.022-0.461,0.066-0.68s0.087-0.394,0.129-0.523h1.391
		c0,0.391,0.02,0.718,0.059,0.98s0.103,0.473,0.191,0.629s0.207,0.269,0.355,0.336s0.329,0.102,0.543,0.102
		c0.297,0,0.513-0.083,0.648-0.25s0.203-0.359,0.203-0.578c0-0.114-0.016-0.224-0.047-0.328s-0.075-0.21-0.133-0.316
		s-0.128-0.215-0.211-0.324s-0.177-0.229-0.281-0.359l-1.445-1.703c-0.188-0.234-0.368-0.473-0.543-0.715s-0.328-0.492-0.461-0.75
		s-0.239-0.527-0.32-0.809s-0.121-0.578-0.121-0.891c0-0.417,0.071-0.778,0.215-1.086s0.336-0.562,0.578-0.766
		s0.522-0.354,0.84-0.453s0.653-0.148,1.008-0.148c0.391,0,0.742,0.047,1.055,0.141s0.581,0.234,0.805,0.422
		s0.396,0.421,0.516,0.699s0.18,0.603,0.18,0.973c0,0.25-0.022,0.492-0.066,0.727s-0.087,0.435-0.129,0.602h-1.367
		c-0.005-0.354-0.021-0.664-0.047-0.93s-0.074-0.485-0.145-0.66s-0.167-0.306-0.289-0.395s-0.282-0.133-0.48-0.133
		c-0.172,0-0.315,0.027-0.43,0.082s-0.207,0.126-0.277,0.215s-0.12,0.188-0.148,0.297s-0.043,0.222-0.043,0.336
		c0,0.25,0.06,0.481,0.18,0.695s0.278,0.445,0.477,0.695l1.578,1.852c0.114,0.141,0.247,0.312,0.398,0.512s0.294,0.422,0.43,0.664
		s0.25,0.507,0.344,0.793s0.141,0.586,0.141,0.898c0,0.38-0.06,0.726-0.18,1.035s-0.297,0.574-0.531,0.793s-0.522,0.388-0.863,0.508
		s-0.73,0.18-1.168,0.18c-0.359,0-0.698-0.04-1.016-0.121s-0.594-0.214-0.828-0.398s-0.419-0.429-0.555-0.73
		S98.898,25.401,98.898,24.959z"/>
	<path fill="#FFFFFF" d="M105.375,24.959c0-0.234,0.022-0.461,0.066-0.68s0.087-0.394,0.129-0.523h1.391
		c0,0.391,0.02,0.718,0.059,0.98s0.103,0.473,0.191,0.629s0.207,0.269,0.355,0.336s0.329,0.102,0.543,0.102
		c0.297,0,0.513-0.083,0.648-0.25s0.203-0.359,0.203-0.578c0-0.114-0.016-0.224-0.047-0.328s-0.075-0.21-0.133-0.316
		s-0.128-0.215-0.211-0.324s-0.177-0.229-0.281-0.359l-1.445-1.703c-0.188-0.234-0.368-0.473-0.543-0.715s-0.328-0.492-0.461-0.75
		s-0.239-0.527-0.32-0.809s-0.121-0.578-0.121-0.891c0-0.417,0.071-0.778,0.215-1.086s0.336-0.562,0.578-0.766
		s0.522-0.354,0.84-0.453s0.653-0.148,1.008-0.148c0.391,0,0.742,0.047,1.055,0.141s0.581,0.234,0.805,0.422
		s0.396,0.421,0.516,0.699s0.18,0.603,0.18,0.973c0,0.25-0.022,0.492-0.066,0.727s-0.087,0.435-0.129,0.602h-1.367
		c-0.005-0.354-0.021-0.664-0.047-0.93s-0.074-0.485-0.145-0.66s-0.167-0.306-0.289-0.395s-0.282-0.133-0.48-0.133
		c-0.172,0-0.315,0.027-0.43,0.082s-0.207,0.126-0.277,0.215s-0.12,0.188-0.148,0.297s-0.043,0.222-0.043,0.336
		c0,0.25,0.06,0.481,0.18,0.695s0.278,0.445,0.477,0.695l1.578,1.852c0.114,0.141,0.247,0.312,0.398,0.512s0.294,0.422,0.43,0.664
		s0.25,0.507,0.344,0.793s0.141,0.586,0.141,0.898c0,0.38-0.06,0.726-0.18,1.035s-0.297,0.574-0.531,0.793s-0.522,0.388-0.863,0.508
		s-0.73,0.18-1.168,0.18c-0.359,0-0.698-0.04-1.016-0.121s-0.594-0.214-0.828-0.398s-0.419-0.429-0.555-0.73
		S105.375,25.401,105.375,24.959z"/>
	<path fill="#FFFFFF" d="M114.628,21.043c-0.173,0-0.365-0.015-0.576-0.043c-0.211-0.029-0.423-0.085-0.638-0.167
		c-0.214-0.082-0.422-0.195-0.624-0.342c-0.201-0.146-0.381-0.335-0.537-0.569c-0.156-0.233-0.282-0.518-0.378-0.854
		s-0.144-0.732-0.144-1.191v-0.756c0-0.458,0.048-0.855,0.144-1.191c0.096-0.335,0.223-0.62,0.38-0.855
		c0.158-0.235,0.338-0.426,0.54-0.572c0.202-0.146,0.411-0.259,0.626-0.339c0.216-0.08,0.43-0.135,0.641-0.164
		s0.402-0.043,0.576-0.043c0.167,0,0.354,0.014,0.56,0.041c0.207,0.027,0.417,0.079,0.631,0.157
		c0.215,0.077,0.422,0.188,0.624,0.332s0.383,0.334,0.542,0.569c0.16,0.235,0.287,0.521,0.383,0.858s0.144,0.739,0.144,1.207v0.756
		c0,0.468-0.049,0.87-0.146,1.207c-0.098,0.337-0.225,0.624-0.383,0.858c-0.158,0.235-0.339,0.426-0.542,0.569
		c-0.203,0.145-0.413,0.256-0.629,0.333c-0.215,0.077-0.427,0.13-0.633,0.157S114.795,21.043,114.628,21.043z M114.628,20.378
		c0.143,0,0.297-0.01,0.46-0.029c0.164-0.021,0.327-0.061,0.49-0.121c0.162-0.061,0.317-0.146,0.465-0.258
		c0.146-0.11,0.277-0.258,0.392-0.441c0.113-0.184,0.205-0.407,0.272-0.67c0.068-0.262,0.104-0.577,0.107-0.944v-0.829
		c0-0.367-0.033-0.684-0.101-0.947c-0.066-0.265-0.156-0.487-0.271-0.67c-0.114-0.182-0.245-0.328-0.394-0.439
		c-0.149-0.11-0.304-0.196-0.465-0.258c-0.161-0.061-0.323-0.101-0.487-0.12s-0.317-0.029-0.46-0.029
		c-0.149,0-0.307,0.011-0.474,0.031c-0.167,0.021-0.332,0.063-0.494,0.125c-0.163,0.062-0.317,0.15-0.465,0.265
		s-0.278,0.262-0.392,0.444c-0.114,0.182-0.204,0.403-0.271,0.665c-0.066,0.261-0.1,0.572-0.1,0.934v0.829
		c0,0.361,0.033,0.672,0.1,0.934c0.067,0.261,0.156,0.482,0.269,0.665c0.112,0.182,0.242,0.33,0.39,0.443
		c0.147,0.114,0.303,0.202,0.465,0.265s0.326,0.104,0.492,0.125C114.322,20.367,114.479,20.378,114.628,20.378z M113.435,15.563
		h0.834c0.115,0,0.236,0.003,0.364,0.009c0.128,0.007,0.254,0.021,0.38,0.046s0.246,0.061,0.36,0.109s0.215,0.115,0.303,0.2
		s0.158,0.191,0.21,0.319c0.051,0.127,0.077,0.282,0.077,0.464v0.137c0,0.228-0.05,0.425-0.15,0.59
		c-0.101,0.166-0.246,0.291-0.438,0.376l0.852,1.508h-0.942l-0.583-1.275h-0.433v1.275h-0.834V15.563z M114.409,17.472
		c0.237,0,0.403-0.049,0.499-0.147s0.144-0.253,0.144-0.463V16.67c0-0.082-0.011-0.155-0.032-0.221
		c-0.021-0.065-0.056-0.121-0.104-0.168c-0.049-0.048-0.114-0.083-0.198-0.107c-0.083-0.024-0.186-0.036-0.308-0.036h-0.141v1.334
		H114.409z"/>
</g>
</svg>
