<?xml version="1.0" encoding="utf-8"?>
<!-- Generator: Adobe Illustrator 16.0.4, SVG Export Plug-In . SVG Version: 6.00 Build 0)  -->
<!DOCTYPE svg PUBLIC "-//W3C//DTD SVG 1.1//EN" "http://www.w3.org/Graphics/SVG/1.1/DTD/svg11.dtd">
<svg version="1.1" id="GLYPHS" xmlns="http://www.w3.org/2000/svg" xmlns:xlink="http://www.w3.org/1999/xlink" x="0px" y="0px"
	 width="60px" height="42px" viewBox="0 0 60 42" enable-background="new 0 0 60 42" xml:space="preserve">
<g>
	<path fill="#FFFFFF" d="M0.289,13.865h1.938l0.898,8.062l0.102,1.883h0.195l0.188-2.117l1.438-7.828h1.617l1.375,7.828l0.156,2.117
		h0.203l0.094-1.883l0.82-8.062h1.945L9.391,27.209H7.336l-1.102-6.414l-0.344-2.789H5.734l-0.336,2.789l-1.156,6.414H2.211
		L0.289,13.865z"/>
	<path fill="#FFFFFF" d="M12.57,12.998h1.977v2.531l-0.102,1.844c0.146-0.203,0.303-0.371,0.473-0.504
		c0.169-0.133,0.344-0.239,0.523-0.32s0.362-0.138,0.547-0.172c0.185-0.034,0.368-0.051,0.551-0.051c0.63,0,1.116,0.22,1.457,0.66
		c0.341,0.44,0.512,1.101,0.512,1.98v8.242h-1.977v-8.172c0-0.474-0.073-0.804-0.219-0.988c-0.146-0.185-0.359-0.277-0.641-0.277
		c-0.198,0-0.397,0.066-0.598,0.199c-0.201,0.133-0.376,0.316-0.527,0.551v8.688H12.57V12.998z"/>
	<path fill="#FFFFFF" d="M22.039,27.326c-0.333,0-0.629-0.066-0.887-0.199s-0.476-0.313-0.652-0.543
		c-0.177-0.229-0.312-0.501-0.402-0.816c-0.091-0.315-0.137-0.657-0.137-1.027c0-0.442,0.055-0.836,0.164-1.18s0.27-0.653,0.48-0.93
		s0.473-0.527,0.785-0.754s0.674-0.441,1.086-0.645c0.198-0.099,0.42-0.199,0.668-0.301c0.247-0.102,0.467-0.188,0.66-0.262v-1.422
		c0-0.208-0.008-0.402-0.023-0.582s-0.054-0.336-0.113-0.469c-0.06-0.133-0.15-0.237-0.27-0.312
		c-0.12-0.075-0.284-0.113-0.492-0.113c-0.141,0-0.277,0.026-0.41,0.078s-0.25,0.141-0.352,0.266s-0.183,0.292-0.242,0.5
		c-0.06,0.208-0.09,0.466-0.09,0.773v0.469h-1.508c-0.047-0.203-0.082-0.39-0.105-0.559s-0.035-0.337-0.035-0.504
		c0-0.401,0.069-0.755,0.207-1.062c0.138-0.308,0.331-0.565,0.578-0.773c0.247-0.208,0.543-0.366,0.887-0.473s0.721-0.16,1.133-0.16
		c0.536,0,0.981,0.059,1.336,0.176c0.354,0.117,0.637,0.293,0.848,0.527s0.359,0.528,0.445,0.883s0.129,0.769,0.129,1.242v8.055
		h-1.469l-0.141-0.922c-0.214,0.308-0.499,0.558-0.855,0.75C22.905,27.229,22.497,27.326,22.039,27.326z M22.914,25.803
		c0.167,0,0.329-0.043,0.488-0.129c0.159-0.086,0.293-0.191,0.402-0.316V21.99c-0.104,0.042-0.222,0.091-0.352,0.148
		c-0.13,0.058-0.271,0.133-0.422,0.227c-0.141,0.089-0.279,0.195-0.414,0.32c-0.136,0.125-0.257,0.273-0.363,0.445
		c-0.107,0.172-0.193,0.366-0.258,0.582c-0.065,0.216-0.098,0.457-0.098,0.723c0,0.411,0.081,0.742,0.242,0.992
		C22.302,25.678,22.56,25.803,22.914,25.803z"/>
	<path fill="#FFFFFF" d="M28,17.857h-0.836v-1.406h1.008l0.398-2.789h1.406v2.789h1.719v1.406h-1.719v6.844
		c0,0.234,0.022,0.423,0.066,0.566c0.044,0.144,0.105,0.255,0.184,0.336s0.169,0.134,0.273,0.16
		c0.104,0.026,0.213,0.039,0.328,0.039c0.192,0,0.363-0.023,0.512-0.07s0.29-0.112,0.426-0.195v1.094
		c-0.115,0.141-0.238,0.255-0.371,0.344s-0.27,0.16-0.41,0.215s-0.284,0.093-0.43,0.113c-0.146,0.021-0.289,0.031-0.43,0.031
		c-0.276,0-0.542-0.036-0.797-0.109c-0.255-0.073-0.482-0.212-0.68-0.418c-0.198-0.206-0.355-0.491-0.473-0.855S28,25.112,28,24.529
		V17.857z"/>
	<path fill="#FFFFFF" d="M35.641,27.326c-0.464,0-0.874-0.086-1.23-0.258c-0.357-0.172-0.658-0.44-0.902-0.805
		c-0.245-0.364-0.43-0.832-0.555-1.402s-0.188-1.257-0.188-2.059v-2.031c0-0.683,0.051-1.267,0.152-1.754s0.234-0.896,0.398-1.227
		s0.354-0.593,0.57-0.785c0.216-0.192,0.438-0.34,0.668-0.441c0.229-0.102,0.457-0.167,0.684-0.195s0.436-0.043,0.629-0.043
		c0.354,0,0.695,0.054,1.023,0.16s0.617,0.289,0.867,0.547s0.449,0.603,0.598,1.035s0.223,0.972,0.223,1.617
		c0,0.219-0.007,0.44-0.02,0.664c-0.013,0.224-0.03,0.444-0.051,0.66c-0.021,0.216-0.048,0.426-0.082,0.629
		c-0.034,0.203-0.069,0.391-0.105,0.562h-3.57v1.094c0,0.469,0.018,0.863,0.055,1.184c0.036,0.32,0.098,0.578,0.184,0.773
		s0.203,0.336,0.352,0.422s0.334,0.129,0.559,0.129c0.12,0,0.237-0.024,0.352-0.074c0.114-0.05,0.215-0.132,0.301-0.246
		s0.155-0.267,0.207-0.457c0.052-0.19,0.078-0.426,0.078-0.707v-0.336h1.648v0.414c0,1.021-0.244,1.765-0.73,2.23
		C37.267,27.093,36.562,27.326,35.641,27.326z M36.734,20.873c0.005-0.058,0.01-0.134,0.016-0.23
		c0.005-0.097,0.009-0.196,0.012-0.301c0.002-0.104,0.004-0.207,0.004-0.309s0-0.188,0-0.262c0-0.708-0.083-1.219-0.25-1.531
		c-0.167-0.312-0.414-0.469-0.742-0.469c-0.172,0-0.323,0.04-0.453,0.121c-0.13,0.081-0.237,0.216-0.32,0.406
		c-0.083,0.19-0.146,0.441-0.188,0.754c-0.042,0.312-0.062,0.7-0.062,1.164v0.656H36.734z"/>
	<path fill="#FFFFFF" d="M39.359,16.451h1.969l1.039,5.719l0.258,2.289h0.062l0.297-2.289l1.031-5.719h1.906l-2.453,10.758h-1.688
		L39.359,16.451z"/>
	<path fill="#FFFFFF" d="M49.672,27.326c-0.464,0-0.874-0.086-1.23-0.258c-0.357-0.172-0.658-0.44-0.902-0.805
		c-0.245-0.364-0.43-0.832-0.555-1.402s-0.188-1.257-0.188-2.059v-2.031c0-0.683,0.051-1.267,0.152-1.754s0.234-0.896,0.398-1.227
		s0.354-0.593,0.57-0.785c0.216-0.192,0.438-0.34,0.668-0.441c0.229-0.102,0.457-0.167,0.684-0.195s0.436-0.043,0.629-0.043
		c0.354,0,0.695,0.054,1.023,0.16s0.617,0.289,0.867,0.547s0.449,0.603,0.598,1.035s0.223,0.972,0.223,1.617
		c0,0.219-0.007,0.44-0.02,0.664c-0.013,0.224-0.03,0.444-0.051,0.66c-0.021,0.216-0.048,0.426-0.082,0.629
		c-0.034,0.203-0.069,0.391-0.105,0.562h-3.57v1.094c0,0.469,0.018,0.863,0.055,1.184c0.036,0.32,0.098,0.578,0.184,0.773
		s0.203,0.336,0.352,0.422s0.334,0.129,0.559,0.129c0.12,0,0.237-0.024,0.352-0.074c0.114-0.05,0.215-0.132,0.301-0.246
		s0.155-0.267,0.207-0.457c0.052-0.19,0.078-0.426,0.078-0.707v-0.336h1.648v0.414c0,1.021-0.244,1.765-0.73,2.23
		C51.298,27.093,50.594,27.326,49.672,27.326z M50.766,20.873c0.005-0.058,0.01-0.134,0.016-0.23
		c0.005-0.097,0.009-0.196,0.012-0.301c0.002-0.104,0.004-0.207,0.004-0.309s0-0.188,0-0.262c0-0.708-0.083-1.219-0.25-1.531
		c-0.167-0.312-0.414-0.469-0.742-0.469c-0.172,0-0.323,0.04-0.453,0.121c-0.13,0.081-0.237,0.216-0.32,0.406
		c-0.083,0.19-0.146,0.441-0.188,0.754c-0.042,0.312-0.062,0.7-0.062,1.164v0.656H50.766z"/>
	<path fill="#FFFFFF" d="M54.281,16.451h1.445l0.172,1.094c0.219-0.406,0.47-0.711,0.754-0.914c0.284-0.203,0.574-0.305,0.871-0.305
		c0.567,0,0.987,0.175,1.258,0.523c0.271,0.349,0.406,0.872,0.406,1.57c0,0.089-0.007,0.194-0.02,0.316
		c-0.013,0.122-0.031,0.25-0.055,0.383s-0.052,0.266-0.086,0.398c-0.034,0.133-0.069,0.254-0.105,0.363h-1.375v-1
		c0-0.219-0.015-0.398-0.043-0.539c-0.029-0.141-0.066-0.254-0.113-0.34s-0.102-0.146-0.164-0.18s-0.13-0.051-0.203-0.051
		c-0.156,0-0.301,0.051-0.434,0.152s-0.244,0.243-0.332,0.426v8.859h-1.977V16.451z"/>
</g>
</svg>
