<?xml version="1.0" encoding="utf-8"?>
<!-- Generator: Adobe Illustrator 16.0.4, SVG Export Plug-In . SVG Version: 6.00 Build 0)  -->
<!DOCTYPE svg PUBLIC "-//W3C//DTD SVG 1.1//EN" "http://www.w3.org/Graphics/SVG/1.1/DTD/svg11.dtd">
<svg version="1.1" id="Layer_1" xmlns="http://www.w3.org/2000/svg" xmlns:xlink="http://www.w3.org/1999/xlink" x="0px" y="0px"
	 width="1141.488px" height="1141.441px" viewBox="29.256 28.797 1141.488 1141.441"
	 enable-background="new 29.256 28.797 1141.488 1141.441" xml:space="preserve">
<path shape-rendering="auto" image-rendering="auto" color-rendering="auto" fill="#4CD964" d="M600,28.797
	c-314.688,0-570.744,256.008-570.744,570.699c0,314.688,256.056,570.742,570.744,570.742c314.688,0,570.744-256.055,570.744-570.742
	c0-314.689-256.057-570.697-570.744-570.697V28.797z M600,115.471c267.84,0,484.032,216.188,484.032,484.033
	c-0.001,267.84-216.188,484.082-484.032,484.082c-267.84,0.002-484.032-216.232-484.032-484.082
	c0-267.84,216.188-484.031,484.032-484.031V115.471z"/>
<path fill="#4CD964" d="M342.368,489.161c-8.007,0-16.02,3.085-22.154,9.22l-38.592,38.591c-12.27,12.271-12.27,32.013,0,44.282
	l171.546,171.545l82.872,82.873l82.873-82.873l299.473-299.473c12.271-12.27,12.271-32.012,0-44.281l-38.591-38.591
	c-12.271-12.27-32.013-12.27-44.282,0L536.04,669.926L364.495,498.381C358.36,492.246,350.374,489.161,342.368,489.161z"/>
</svg>
