<?xml version="1.0" encoding="utf-8"?>
<!-- Generator: Adobe Illustrator 16.0.4, SVG Export Plug-In . SVG Version: 6.00 Build 0)  -->
<!DOCTYPE svg PUBLIC "-//W3C//DTD SVG 1.1//EN" "http://www.w3.org/Graphics/SVG/1.1/DTD/svg11.dtd">
<svg version="1.1" id="Layer_1" xmlns="http://www.w3.org/2000/svg" xmlns:xlink="http://www.w3.org/1999/xlink" x="0px" y="0px"
	 width="363.732px" height="60.907px" viewBox="0 0 363.732 60.907" enable-background="new 0 0 363.732 60.907"
	 xml:space="preserve">
<polygon fill="#729DA3" points="263.575,35.891 254.679,4.722 251.557,4.722 242.706,35.891 245.657,35.891 253.096,9.327 
	260.453,35.891 "/>
<polygon fill="#729DA3" points="322.701,35.891 313.805,4.722 310.683,4.722 301.832,35.891 304.783,35.891 312.222,9.327 
	319.579,35.891 "/>
<path fill-rule="evenodd" clip-rule="evenodd" fill="#729DA3" d="M125.744,60.907c4.533-3.266,11.178-6.654,19.367-9.603
	c0.443,1.018,0.793,1.816,1.639,2.773C137.988,56.041,131.714,58.211,125.744,60.907 M223.543,45.436
	c18.347,3.41,33.183,9.637,41.28,15.471c-10.737-4.849-26.071-8.772-44.745-10.696C221.435,48.684,222.29,47.429,223.543,45.436"/>
<path fill-rule="evenodd" clip-rule="evenodd" fill="#808184" d="M187.364,38.273c8.951-2.719,14.699-11.756,16.446-20.43
	c1.508-7.485-9.965-10.38-7.678,0.374C196.875,21.709,196.111,31.639,187.364,38.273"/>
<path fill-rule="evenodd" clip-rule="evenodd" fill="#808184" d="M179.459,35.62c-7.292-6.389-9.424-17.204-7.995-25.95
	c1.233-7.548,12.81-5.237,6.94,3.675C176.498,16.238,173.726,25.716,179.459,35.62"/>
<path fill-rule="evenodd" clip-rule="evenodd" fill="#808184" d="M189.142,12.973c3.219,0,5.827-2.904,5.827-6.486
	c0-3.583-2.608-6.487-5.827-6.487s-5.827,2.904-5.827,6.487C183.315,10.069,185.923,12.973,189.142,12.973"/>
<path fill-rule="evenodd" clip-rule="evenodd" fill="#729DA3" d="M152.833,54.413c3.013,0,5.455-2.72,5.455-6.073
	s-2.442-6.072-5.455-6.072c-3.013,0-5.455,2.719-5.455,6.072S149.82,54.413,152.833,54.413 M227.945,31.132
	c-12.12,33.529-28.578,25.327-42.917,18.229c-19.384-9.597-23.721-0.793,3.061,7.675c-46.992-3.514-25.161-28.313-1.37-15.365
	C199.118,47.227,213.094,58.697,227.945,31.132"/>
<path fill="#729DA3" d="M0.814,30.997c1.443,1.109,3.552,2.035,5.772,2.035c3.293,0,5.218-2.174,5.218-5.318
	c0-2.914-1.332-4.579-4.699-6.198c-4.071-1.804-6.587-4.441-6.587-8.833c0-4.857,3.219-8.464,8.067-8.464
	c2.553,0,4.403,0.739,5.513,1.526L13.21,9.028c-0.814-0.554-2.479-1.48-4.736-1.48c-3.405,0-4.7,2.545-4.7,4.672
	c0,2.914,1.518,4.347,4.958,6.011c4.219,2.036,6.365,4.58,6.365,9.159c0,4.809-2.849,8.972-8.733,8.972
	c-2.405,0-5.032-0.879-6.364-1.989L0.814,30.997z"/>
<path fill="#729DA3" d="M36.927,34.881c-1.184,0.74-3.552,1.48-6.586,1.48c-7.031,0-12.322-5.55-12.322-15.771
	c0-9.759,5.291-16.372,13.025-16.372c3.108,0,5.069,0.833,5.92,1.388l-0.777,3.283c-1.221-0.74-2.96-1.295-5.032-1.295
	c-5.847,0-9.732,4.672-9.732,12.857c0,7.631,3.515,12.535,9.584,12.535c1.961,0,3.959-0.509,5.254-1.296L36.927,34.881z"/>
<polygon fill="#729DA3" points="44.177,4.727 44.177,17.769 56.24,17.769 56.24,4.727 59.497,4.727 59.497,35.899 56.24,35.899 
	56.24,21.284 44.177,21.284 44.177,35.899 40.958,35.899 40.958,4.727 "/>
<polygon fill="#729DA3" points="77.996,21.284 68.301,21.284 68.301,32.523 79.106,32.523 79.106,35.899 65.082,35.899 
	65.082,4.727 78.551,4.727 78.551,8.103 68.301,8.103 68.301,17.954 77.996,17.954 "/>
<path fill="#729DA3" d="M83.286,5.144c1.961-0.371,4.292-0.648,6.845-0.648c4.626,0,7.919,1.341,10.102,3.885
	c2.22,2.544,3.515,6.151,3.515,11.192c0,5.088-1.258,9.25-3.589,12.118c-2.331,2.913-6.179,4.486-11.027,4.486
	c-2.294,0-4.218-0.139-5.846-0.369V5.144z M86.504,32.708c0.814,0.186,1.999,0.231,3.256,0.231c6.883,0,10.62-4.81,10.62-13.228
	c0.037-7.354-3.293-12.025-10.102-12.025c-1.665,0-2.923,0.185-3.774,0.417V32.708z"/>
<path fill="#729DA3" d="M111.146,4.727V23.18c0,6.984,2.479,9.943,5.81,9.943c3.7,0,6.068-3.052,6.068-9.943V4.727h3.256v18.176
	c0,9.574-4.033,13.504-9.435,13.504c-5.107,0-8.955-3.653-8.955-13.32V4.727H111.146z"/>
<polygon fill="#729DA3" points="131.866,4.727 135.084,4.727 135.084,32.523 145.742,32.523 145.742,35.899 131.866,35.899 "/>
<polygon fill="#729DA3" points="162.243,21.284 152.548,21.284 152.548,32.523 163.353,32.523 163.353,35.899 149.33,35.899 
	149.33,4.727 162.798,4.727 162.798,8.103 152.548,8.103 152.548,17.954 162.243,17.954 "/>
<path fill="#729DA3" d="M236.233,22.203c-0.187-4.348-0.407-9.574-0.371-13.459h-0.11c-0.851,3.654-1.888,7.539-3.146,11.84
	l-4.402,15.123h-2.444l-4.032-14.846c-1.184-4.393-2.183-8.417-2.887-12.117h-0.074c-0.072,3.885-0.259,9.111-0.48,13.782
	l-0.666,13.366h-3.071l1.739-31.17h4.107l4.256,15.077c1.035,3.839,1.887,7.26,2.516,10.499h0.111
	c0.629-3.146,1.518-6.569,2.627-10.499l4.439-15.077h4.108l1.553,31.17h-3.144L236.233,22.203z"/>
<path fill="#729DA3" d="M266.793,31.013c1.441,1.109,3.552,2.035,5.771,2.035c3.293,0,5.218-2.174,5.218-5.318
	c0-2.914-1.332-4.579-4.698-6.198c-4.07-1.804-6.587-4.441-6.587-8.833c0-4.857,3.22-8.464,8.066-8.464
	c2.553,0,4.404,0.739,5.514,1.526l-0.888,3.283c-0.813-0.554-2.479-1.48-4.736-1.48c-3.404,0-4.699,2.545-4.699,4.672
	c0,2.914,1.517,4.347,4.958,6.011c4.219,2.036,6.365,4.58,6.365,9.159c0,4.809-2.85,8.972-8.733,8.972
	c-2.405,0-5.032-0.879-6.364-1.989L266.793,31.013z"/>
<path fill="#729DA3" d="M285.034,31.013c1.442,1.109,3.553,2.035,5.771,2.035c3.293,0,5.218-2.174,5.218-5.318
	c0-2.914-1.332-4.579-4.698-6.198c-4.07-1.804-6.587-4.441-6.587-8.833c0-4.857,3.22-8.464,8.066-8.464
	c2.553,0,4.403,0.739,5.512,1.526l-0.887,3.283c-0.813-0.554-2.479-1.48-4.735-1.48c-3.404,0-4.7,2.545-4.7,4.672
	c0,2.914,1.518,4.347,4.958,6.011c4.219,2.036,6.364,4.58,6.364,9.159c0,4.809-2.849,8.972-8.731,8.972
	c-2.406,0-5.033-0.879-6.365-1.989L285.034,31.013z"/>
<path fill="#729DA3" d="M344.79,34.504c-1.443,0.647-4.292,1.712-7.66,1.712c-3.774,0-6.882-1.203-9.324-4.117
	c-2.146-2.59-3.479-6.752-3.479-11.608c0.036-9.297,5.145-16.095,13.506-16.095c2.887,0,5.145,0.787,6.217,1.433l-0.778,3.284
	c-1.332-0.74-2.996-1.34-5.512-1.34c-6.069,0-10.029,4.716-10.029,12.533c0,7.908,3.812,12.58,9.622,12.58
	c2.109,0,3.552-0.37,4.292-0.833v-9.296h-5.069v-3.237h8.215V34.504z"/>
<polygon fill="#729DA3" points="362.624,21.277 352.928,21.277 352.928,32.516 363.732,32.516 363.732,35.892 349.709,35.892 
	349.709,4.72 363.178,4.72 363.178,8.096 352.928,8.096 352.928,17.947 362.624,17.947 "/>
</svg>
