<?xml version="1.0" encoding="utf-8"?>
<!-- Generator: Adobe Illustrator 16.0.4, SVG Export Plug-In . SVG Version: 6.00 Build 0)  -->
<!DOCTYPE svg PUBLIC "-//W3C//DTD SVG 1.1//EN" "http://www.w3.org/Graphics/SVG/1.1/DTD/svg11.dtd">
<svg version="1.1" id="Layer_1" xmlns="http://www.w3.org/2000/svg" xmlns:xlink="http://www.w3.org/1999/xlink" x="0px" y="0px"
	 width="542.4097px" height="137.9746px" viewBox="0 0 542.4097 137.9746" enable-background="new 0 0 542.4097 137.9746"
	 xml:space="preserve">
<path fill="#808184" d="M180.7061,98.9912h7.9448c3.3359,0,6.062,1.0332,7.8491,2.8203c1.646,1.6445,2.585,4.0889,2.585,7.0508
	v0.1406c0,4.9824-2.6777,8.0381-6.4858,9.3086l7.333,13.585h-3.7603l-6.8638-12.833c-0.4219,0.0469-0.8462,0.0469-1.269,0.0469
	h-4.043v12.7861h-3.29V98.9912L180.7061,98.9912z M187.6621,116.1016c5.8301,0,8.1797-2.916,8.1797-7.0527v-0.0469
	c0-4.6064-2.8677-6.957-7.4258-6.957h-4.4199v14.0566H187.6621z M207.2358,98.9912h15.8892v3.0547h-12.5981V113.75h11.3281v3.0566
	h-11.3281v12.0332h12.7852v3.0566h-16.0762V98.9912L207.2358,98.9912z M230.8149,98.9912h3.291v29.8486h11.5161v3.0566h-14.8071
	V98.9912z M301.2593,98.9912l-7.8516,15.8408l8.416,17.0635h-3.666l-6.7695-14.2432l-6.6758,14.2432h-3.5723l8.3672-16.9717
	l-7.8496-15.9336h3.666l6.1104,13.1143l6.2041-13.1143h3.6211V98.9912z M0,98.9912h7.9448c3.3374,0,6.063,1.0332,7.8491,2.8203
	c1.646,1.6445,2.5859,4.0889,2.5859,7.0508v0.1406c0,4.9824-2.6787,8.0381-6.4868,9.3086l7.333,13.585h-3.7603l-6.8628-12.833
	c-0.4229,0.0469-0.8472,0.0469-1.27,0.0469H3.291v12.7861H0V98.9912z M6.957,116.1016c5.8291,0,8.1802-2.916,8.1802-7.0527v-0.0469
	c0-4.6064-2.8682-6.957-7.4272-6.957H3.291v14.0566H6.957z M26.6631,98.9912h3.291v32.9043h-3.291V98.9912z M39.4038,98.9912h3.1953
	l13.21,25.3359V98.9912h3.1958v32.9043h-2.8667l-13.5391-25.9951v25.9951h-3.1953V98.9912z M66.061,128.3701l2.0679-2.6338
	c2.021,1.9746,4.3242,3.5264,7.0981,3.5264c3.4312,0,5.687-2.4443,5.687-5.4531v-0.0947c0-2.3027-0.9873-4.1367-5.8281-6.957
	c-6.0161-3.4785-7.71-6.0166-7.71-9.7764v-0.0957c0-4.6992,3.6201-8.3174,8.8379-8.3174c2.6792,0,5.5469,0.9385,7.9912,3.29
	l-2.022,2.585c-1.7861-1.6924-3.853-2.8213-6.1089-2.8213c-3.2441,0-5.3604,2.2568-5.3604,4.9844v0.0459
	c0,2.585,1.1753,4.1846,6.252,7.1914c5.9692,3.5254,7.2861,6.1572,7.2861,9.7773v0.0938c0,4.8896-3.855,8.6035-8.978,8.6035
	C72.0781,132.3184,69.022,131.2363,66.061,128.3701 M91.8169,98.9912h15.8882v3.0547H95.1069V113.75h11.3291v3.0566H95.1069v12.0332
	h12.7861v3.0566H91.8169V98.9912z M375.4897,98.9912h7.9434c3.3379,0,6.0645,1.0332,7.8516,2.8203
	c1.6445,1.6445,2.5859,4.0889,2.5859,7.0508v0.1406c0,4.9824-2.6797,8.0381-6.4883,9.3086l7.334,13.585h-3.7598l-6.8633-12.833
	c-0.4238,0.0469-0.8477,0.0469-1.2695,0.0469h-4.043v12.7861h-3.291V98.9912z M382.4468,116.1016
	c5.8281,0,8.1797-2.916,8.1797-7.0527v-0.0469c0-4.6064-2.8672-6.957-7.4258-6.957h-4.4199v14.0566H382.4468z M402.019,98.9912
	h15.8906v3.0547h-12.5996V113.75h11.3281v3.0566h-11.3281v12.0332h12.7852v3.0566H402.019V98.9912z M425.5991,98.9912h15.5586
	v3.0547h-12.2695v12.1758h11v3.0557h-11v14.6191h-3.2891V98.9912L425.5991,98.9912z M448.5073,98.9912h7.9434
	c3.3379,0,6.0625,1.0332,7.8496,2.8203c1.6465,1.6445,2.5859,4.0889,2.5859,7.0508v0.1406c0,4.9824-2.6797,8.0381-6.4863,9.3086
	l7.334,13.585h-3.7617l-6.8613-12.833c-0.4238,0.0469-0.8477,0.0469-1.2715,0.0469h-4.043v12.7861h-3.2891V98.9912z
	 M455.4624,116.1016c5.8301,0,8.1797-2.916,8.1797-7.0527v-0.0469c0-4.6064-2.8652-6.957-7.4258-6.957h-4.4199v14.0566H455.4624z
	 M475.0386,98.9912h15.8887v3.0547h-12.5996V113.75h11.3301v3.0566h-11.3301v12.0332h12.7871v3.0566h-16.0762V98.9912z
	 M497.4937,128.3701l2.0664-2.6338c2.0215,1.9746,4.3262,3.5264,7.0996,3.5264c3.4316,0,5.6875-2.4443,5.6875-5.4531v-0.0947
	c0-2.3027-0.9863-4.1367-5.8281-6.957c-6.0176-3.4785-7.7109-6.0166-7.7109-9.7764v-0.0957c0-4.6992,3.6211-8.3174,8.8379-8.3174
	c2.6816,0,5.5469,0.9385,7.9902,3.29l-2.0195,2.585c-1.7871-1.6924-3.8555-2.8213-6.1094-2.8213
	c-3.2441,0-5.3594,2.2568-5.3594,4.9844v0.0459c0,2.585,1.1758,4.1846,6.252,7.1914c5.9688,3.5254,7.2852,6.1572,7.2852,9.7773
	v0.0938c0,4.8896-3.8535,8.6035-8.9785,8.6035C503.5093,132.3184,500.4546,131.2363,497.4937,128.3701 M523.2476,98.9912h3.291
	v14.8066h12.3633V98.9912h3.3379v32.9043h-3.3379v-15.042h-12.3633v15.042h-3.291V98.9912z M274.8052,131.8857l-9.7754-33.084
	h-3.4307l-9.728,33.084h3.2427l8.1772-28.1953l8.083,28.1953H274.8052z"/>
<path fill="#729DA3" d="M144.3218,137.9746h-3.0859V94.1738h3.0859V137.9746z M341.9194,94.1738h-3.0859v43.8008h3.0859V94.1738z"/>
<path fill="#729DA3" d="M0.7651,0.417h20.6841c7.626,0,13.9966,2.1943,18.2798,6.4785c3.8662,3.8643,6.0601,9.6094,6.0601,17.1309
	v0.6279c0,10.4463-4.7012,16.9229-11.1782,20.5801L47.46,73.542H31.895L20.9258,48.7852h-6.1626V73.542H0.7651V0.417z
	 M20.2988,36.3545c7.626,0,11.4922-4.5977,11.4922-11.5977c0-7.7285-4.1792-11.4902-11.8052-11.4902h-5.2227v23.0879H20.2988z"/>
<polygon fill="#729DA3" points="61.5161,0.417 99.54,0.417 99.54,13.3711 75.4092,13.3711 75.4092,30.293 96.7202,30.293 
	96.7202,43.248 75.4092,43.248 75.4092,60.5879 99.958,60.5879 99.958,73.542 61.5161,73.542 "/>
<path fill="#808184" d="M112.3018,67.0654l4.8052-4.9092c2.7163,3.7598,5.3281,5.2227,8.7749,5.2227
	c5.2231,0,8.7744-3.7598,8.7744-11.5967V0.417h7.313v55.6797c0,6.1621-1.6714,10.8643-4.7012,13.7881
	c-2.9238,3.0312-6.686,4.3887-11.4902,4.3887C120.3452,74.2734,115.3311,71.6621,112.3018,67.0654"/>
<path fill="#808184" d="M161.6768,50.0371V0.417h7.208v49.7256c0,11.4912,5.4321,17.6543,14.2061,17.6543
	c8.6714,0,14.103-5.9551,14.103-17.4453V0.417h7.313v49.5176c0,15.877-8.5659,24.6533-21.52,24.6533
	C170.2422,74.5869,161.6768,65.8115,161.6768,50.0371"/>
<polygon fill="#808184" points="220.0669,0.417 227.6929,0.417 244.1968,61.7363 260.8071,0.417 268.3291,0.417 247.645,73.959 
	240.542,73.959 "/>
<polygon fill="#808184" points="284.1284,0.417 319.437,0.417 319.437,7.208 291.4409,7.208 291.4409,33.2188 316.6187,33.2188 
	316.6187,40.0078 291.4409,40.0078 291.4409,66.751 319.8569,66.751 319.8569,73.542 284.1284,73.542 "/>
<polygon fill="#808184" points="336.189,0.417 343.2925,0.417 372.6479,56.7227 372.6479,0.417 379.7515,0.417 379.7515,73.542 
	373.3784,73.542 343.2925,15.7734 343.2925,73.542 336.189,73.542 "/>
<polygon fill="#808184" points="467.7319,7.208 451.853,7.208 451.853,0.417 491.0269,0.417 491.0269,7.208 475.0425,7.208 
	475.0425,73.542 467.7319,73.542 "/>
<polygon fill="#808184" points="506.6812,0.417 541.9917,0.417 541.9917,7.208 513.9937,7.208 513.9937,33.2188 539.1694,33.2188 
	539.1694,40.0078 513.9937,40.0078 513.9937,66.751 542.4097,66.751 542.4097,73.542 506.6812,73.542 "/>
<polygon fill="#808184" points="446.5835,73.542 424.853,0 417.228,0 395.603,73.542 402.8101,73.542 420.9897,10.8652 
	438.9565,73.542 "/>
<g>
</g>
<g>
</g>
<g>
</g>
<g>
</g>
<g>
</g>
<g>
</g>
<g>
</g>
<g>
</g>
<g>
</g>
<g>
</g>
<g>
</g>
<g>
</g>
<g>
</g>
<g>
</g>
<g>
</g>
</svg>
