<?xml version="1.0" encoding="utf-8"?>
<!-- Generator: Adobe Illustrator 16.0.4, SVG Export Plug-In . SVG Version: 6.00 Build 0)  -->
<!DOCTYPE svg PUBLIC "-//W3C//DTD SVG 1.1//EN" "http://www.w3.org/Graphics/SVG/1.1/DTD/svg11.dtd">
<svg version="1.1" id="Layer_1" xmlns="http://www.w3.org/2000/svg" xmlns:xlink="http://www.w3.org/1999/xlink" x="0px" y="0px"
	 width="542.409px" height="137.974px" viewBox="0 0 542.409 137.974" enable-background="new 0 0 542.409 137.974"
	 xml:space="preserve">
<path fill="#808184" d="M180.706,98.991h7.945c3.336,0,6.062,1.033,7.849,2.82c1.646,1.645,2.585,4.089,2.585,7.051v0.141
	c0,4.982-2.678,8.038-6.486,9.308l7.333,13.585h-3.76l-6.864-12.833c-0.422,0.047-0.846,0.047-1.269,0.047h-4.043v12.786h-3.29
	V98.991z M187.662,116.101c5.83,0,8.18-2.916,8.18-7.052v-0.047c0-4.607-2.868-6.957-7.426-6.957h-4.42v14.056H187.662z
	 M207.236,98.991h15.889v3.055h-12.598v11.704h11.328v3.056h-11.328v12.034h12.785v3.056h-16.076V98.991z M230.815,98.991h3.291
	v29.849h11.516v3.056h-14.807V98.991z M301.26,98.991l-7.852,15.841l8.415,17.063h-3.666l-6.769-14.243l-6.675,14.243h-3.573
	l8.368-16.971l-7.851-15.934h3.666l6.111,13.114l6.204-13.114H301.26z M0,98.991h7.945c3.337,0,6.063,1.033,7.849,2.82
	c1.646,1.645,2.586,4.089,2.586,7.051v0.141c0,4.982-2.679,8.038-6.487,9.308l7.333,13.585h-3.76l-6.863-12.833
	c-0.423,0.047-0.847,0.047-1.27,0.047H3.291v12.786H0V98.991z M6.957,116.101c5.829,0,8.18-2.916,8.18-7.052v-0.047
	c0-4.607-2.868-6.957-7.427-6.957H3.291v14.056H6.957z M26.663,98.991h3.291v32.904h-3.291V98.991z M39.404,98.991h3.195
	l13.21,25.336V98.991h3.196v32.904h-2.867L42.599,105.9v25.995h-3.195V98.991z M66.061,128.37l2.068-2.634
	c2.021,1.975,4.324,3.526,7.098,3.526c3.431,0,5.687-2.444,5.687-5.453v-0.094c0-2.303-0.987-4.137-5.828-6.957
	c-6.016-3.479-7.71-6.017-7.71-9.777v-0.095c0-4.7,3.62-8.318,8.838-8.318c2.679,0,5.547,0.939,7.991,3.29l-2.022,2.585
	c-1.786-1.692-3.853-2.821-6.109-2.821c-3.244,0-5.36,2.257-5.36,4.984v0.046c0,2.585,1.175,4.185,6.252,7.192
	c5.969,3.525,7.286,6.157,7.286,9.777v0.094c0,4.889-3.855,8.603-8.978,8.603C72.078,132.318,69.022,131.236,66.061,128.37
	 M91.817,98.991h15.888v3.055H95.107v11.704h11.329v3.056H95.107v12.034h12.786v3.056H91.817V98.991z M375.49,98.991h7.944
	c3.337,0,6.063,1.033,7.85,2.82c1.646,1.645,2.586,4.089,2.586,7.051v0.141c0,4.982-2.68,8.038-6.487,9.308l7.333,13.585h-3.76
	l-6.863-12.833c-0.423,0.047-0.847,0.047-1.27,0.047h-4.043v12.786h-3.29V98.991z M382.446,116.101c5.829,0,8.18-2.916,8.18-7.052
	v-0.047c0-4.607-2.867-6.957-7.426-6.957h-4.42v14.056H382.446z M402.02,98.991h15.889v3.055H405.31v11.704h11.329v3.056H405.31
	v12.034h12.786v3.056H402.02V98.991z M425.599,98.991h15.559v3.055h-12.269v12.175h11v3.056h-11v14.619h-3.29V98.991z
	 M448.507,98.991h7.944c3.337,0,6.062,1.033,7.85,2.82c1.646,1.645,2.585,4.089,2.585,7.051v0.141c0,4.982-2.679,8.038-6.486,9.308
	l7.333,13.585h-3.76l-6.863-12.833c-0.423,0.047-0.847,0.047-1.27,0.047h-4.043v12.786h-3.29V98.991z M455.463,116.101
	c5.829,0,8.18-2.916,8.18-7.052v-0.047c0-4.607-2.867-6.957-7.426-6.957h-4.42v14.056H455.463z M475.038,98.991h15.889v3.055h-12.6
	v11.704h11.33v3.056h-11.33v12.034h12.787v3.056h-16.076V98.991z M497.493,128.37l2.068-2.634c2.021,1.975,4.325,3.526,7.098,3.526
	c3.432,0,5.688-2.444,5.688-5.453v-0.094c0-2.303-0.987-4.137-5.828-6.957c-6.017-3.479-7.71-6.017-7.71-9.777v-0.095
	c0-4.7,3.62-8.318,8.837-8.318c2.681,0,5.547,0.939,7.991,3.29l-2.021,2.585c-1.786-1.692-3.854-2.821-6.109-2.821
	c-3.244,0-5.359,2.257-5.359,4.984v0.046c0,2.585,1.175,4.185,6.252,7.192c5.968,3.525,7.285,6.157,7.285,9.777v0.094
	c0,4.889-3.854,8.603-8.978,8.603C503.51,132.318,500.455,131.236,497.493,128.37 M523.248,98.991h3.291v14.807h12.363V98.991h3.337
	v32.904h-3.337v-15.042h-12.363v15.042h-3.291V98.991z M274.805,131.886l-9.775-33.084h-3.431l-9.728,33.084h3.243l8.177-28.196
	l8.083,28.196H274.805z"/>
<path fill="#729DA3" d="M144.322,137.974h-3.086v-43.8h3.086V137.974z M341.919,94.174h-3.086v43.8h3.086V94.174z"/>
<path fill="#729DA3" d="M0.765,0.417h20.684c7.626,0,13.997,2.194,18.28,6.478c3.866,3.865,6.06,9.61,6.06,17.131v0.628
	c0,10.446-4.701,16.923-11.178,20.58L47.46,73.542H31.895L20.926,48.785h-6.163v24.757H0.765V0.417z M20.299,36.354
	c7.626,0,11.492-4.597,11.492-11.597c0-7.729-4.179-11.491-11.805-11.491h-5.223v23.088H20.299z"/>
<polygon fill="#729DA3" points="61.516,0.417 99.54,0.417 99.54,13.371 75.409,13.371 75.409,30.293 96.72,30.293 96.72,43.248 
	75.409,43.248 75.409,60.588 99.958,60.588 99.958,73.542 61.516,73.542 "/>
<path fill="#808184" d="M112.302,67.065l4.805-4.909c2.716,3.76,5.328,5.223,8.775,5.223c5.223,0,8.774-3.76,8.774-11.597V0.417
	h7.313v55.679c0,6.163-1.671,10.865-4.701,13.789c-2.924,3.031-6.686,4.388-11.49,4.388
	C120.345,74.273,115.331,71.662,112.302,67.065"/>
<path fill="#808184" d="M161.677,50.037V0.417h7.208v49.725c0,11.492,5.432,17.655,14.206,17.655
	c8.671,0,14.103-5.955,14.103-17.446V0.417h7.313v49.517c0,15.877-8.566,24.654-21.52,24.654
	C170.242,74.587,161.677,65.811,161.677,50.037"/>
<polygon fill="#808184" points="220.067,0.417 227.693,0.417 244.197,61.736 260.807,0.417 268.329,0.417 247.645,73.959 
	240.542,73.959 "/>
<polygon fill="#808184" points="284.128,0.417 319.438,0.417 319.438,7.208 291.441,7.208 291.441,33.219 316.618,33.219 
	316.618,40.008 291.441,40.008 291.441,66.751 319.856,66.751 319.856,73.542 284.128,73.542 "/>
<polygon fill="#808184" points="336.189,0.417 343.293,0.417 372.648,56.722 372.648,0.417 379.752,0.417 379.752,73.542 
	373.379,73.542 343.293,15.773 343.293,73.542 336.189,73.542 "/>
<polygon fill="#808184" points="467.732,7.208 451.853,7.208 451.853,0.417 491.027,0.417 491.027,7.208 475.043,7.208 
	475.043,73.542 467.732,73.542 "/>
<polygon fill="#808184" points="506.682,0.417 541.992,0.417 541.992,7.208 513.994,7.208 513.994,33.219 539.17,33.219 
	539.17,40.008 513.994,40.008 513.994,66.751 542.409,66.751 542.409,73.542 506.682,73.542 "/>
<polygon fill="#808184" points="446.583,73.542 424.854,0 417.228,0 395.603,73.542 402.811,73.542 420.989,10.865 438.957,73.542 
	"/>
</svg>
