<?xml version="1.0" encoding="utf-8"?>
<!-- Generator: Adobe Illustrator 16.0.4, SVG Export Plug-In . SVG Version: 6.00 Build 0)  -->
<!DOCTYPE svg PUBLIC "-//W3C//DTD SVG 1.1//EN" "http://www.w3.org/Graphics/SVG/1.1/DTD/svg11.dtd">
<svg version="1.1" id="Layer_1" xmlns="http://www.w3.org/2000/svg" xmlns:xlink="http://www.w3.org/1999/xlink" x="0px" y="0px"
	 width="541.644px" height="74.587px" viewBox="0 0 541.644 74.587" enable-background="new 0 0 541.644 74.587"
	 xml:space="preserve">
<path fill="#729DA3" d="M0,0.417h20.684c7.626,0,13.997,2.194,18.28,6.478c3.866,3.865,6.06,9.61,6.06,17.131v0.628
	c0,10.446-4.701,16.923-11.178,20.58l12.849,28.309H31.13L20.161,48.785h-6.163v24.757H0V0.417z M19.534,36.354
	c7.626,0,11.492-4.597,11.492-11.597c0-7.729-4.179-11.491-11.805-11.491h-5.223v23.088H19.534z"/>
<polygon fill="#729DA3" points="60.751,0.417 98.775,0.417 98.775,13.371 74.644,13.371 74.644,30.293 95.955,30.293 95.955,43.249 
	74.644,43.249 74.644,60.588 99.193,60.588 99.193,73.542 60.751,73.542 "/>
<path fill="#808184" d="M111.537,67.065l4.805-4.909c2.716,3.761,5.328,5.224,8.775,5.224c5.223,0,8.774-3.76,8.774-11.598V0.417
	h7.313v55.679c0,6.162-1.671,10.865-4.701,13.789c-2.924,3.031-6.686,4.388-11.49,4.388
	C119.58,74.273,114.566,71.663,111.537,67.065"/>
<path fill="#808184" d="M160.913,50.037V0.417h7.208v49.725c0,11.492,5.432,17.655,14.206,17.655
	c8.671,0,14.103-5.954,14.103-17.446V0.417h7.313v49.518c0,15.877-8.566,24.653-21.52,24.653
	C169.478,74.587,160.913,65.811,160.913,50.037"/>
<polygon fill="#808184" points="219.302,0.417 226.928,0.417 243.432,61.736 260.042,0.417 267.564,0.417 246.88,73.959 
	239.777,73.959 "/>
<polygon fill="#808184" points="283.364,0.417 318.673,0.417 318.673,7.208 290.676,7.208 290.676,33.219 315.853,33.219 
	315.853,40.008 290.676,40.008 290.676,66.75 319.091,66.75 319.091,73.542 283.364,73.542 "/>
<polygon fill="#808184" points="335.424,0.417 342.529,0.417 371.883,56.722 371.883,0.417 378.988,0.417 378.988,73.542 
	372.615,73.542 342.529,15.773 342.529,73.542 335.424,73.542 "/>
<polygon fill="#808184" points="466.967,7.208 451.088,7.208 451.088,0.417 490.262,0.417 490.262,7.208 474.279,7.208 
	474.279,73.542 466.967,73.542 "/>
<polygon fill="#808184" points="505.917,0.417 541.227,0.417 541.227,7.208 513.229,7.208 513.229,33.219 538.406,33.219 
	538.406,40.008 513.229,40.008 513.229,66.75 541.644,66.75 541.644,73.542 505.917,73.542 "/>
<polygon fill="#808184" points="445.818,73.542 424.089,0 416.463,0 394.838,73.542 402.046,73.542 420.224,10.865 438.192,73.542 
	"/>
<g>
</g>
<g>
</g>
<g>
</g>
<g>
</g>
<g>
</g>
<g>
</g>
<g>
</g>
<g>
</g>
<g>
</g>
<g>
</g>
<g>
</g>
<g>
</g>
<g>
</g>
<g>
</g>
<g>
</g>
</svg>
