<?xml version="1.0" encoding="utf-8"?>
<!-- Generator: Adobe Illustrator 16.0.4, SVG Export Plug-In . SVG Version: 6.00 Build 0)  -->
<!DOCTYPE svg PUBLIC "-//W3C//DTD SVG 1.1//EN" "http://www.w3.org/Graphics/SVG/1.1/DTD/svg11.dtd">
<svg version="1.1" id="Layer_1" xmlns="http://www.w3.org/2000/svg" xmlns:xlink="http://www.w3.org/1999/xlink" x="0px" y="0px"
	 width="542.4097px" height="74.5879px" viewBox="0 -0.0002 542.4097 74.5879" enable-background="new 0 -0.0002 542.4097 74.5879"
	 xml:space="preserve">
<path fill="#729DA3" d="M0.7651,0.4167h20.6841c7.626,0,13.9966,2.1943,18.2798,6.4785c3.8662,3.8643,6.0601,9.6094,6.0601,17.1309
	v0.6279c0,10.4463-4.7012,16.9229-11.1782,20.5801L47.46,73.5417H31.895L20.9258,48.7849h-6.1626v24.7568H0.7651V0.4167z
	 M20.2988,36.3542c7.626,0,11.4922-4.5977,11.4922-11.5977c0-7.7285-4.1792-11.4902-11.8052-11.4902h-5.2227v23.0879H20.2988z"/>
<polygon fill="#729DA3" points="61.5161,0.4167 99.54,0.4167 99.54,13.3708 75.4092,13.3708 75.4092,30.2927 96.7202,30.2927 
	96.7202,43.2478 75.4092,43.2478 75.4092,60.5876 99.958,60.5876 99.958,73.5417 61.5161,73.5417 "/>
<path fill="#808184" d="M112.3018,67.0652l4.8052-4.9092c2.7163,3.7598,5.3281,5.2227,8.7749,5.2227
	c5.2231,0,8.7744-3.7598,8.7744-11.5967V0.4167h7.313v55.6797c0,6.1621-1.6714,10.8643-4.7012,13.7881
	c-2.9238,3.0312-6.686,4.3887-11.4902,4.3887C120.3452,74.2732,115.3311,71.6619,112.3018,67.0652"/>
<path fill="#808184" d="M161.6768,50.0369V0.4167h7.208v49.7256c0,11.4912,5.4321,17.6543,14.2061,17.6543
	c8.6714,0,14.103-5.9551,14.103-17.4453V0.4167h7.313v49.5176c0,15.877-8.5659,24.6533-21.52,24.6533
	C170.2422,74.5867,161.6768,65.8113,161.6768,50.0369"/>
<polygon fill="#808184" points="220.0669,0.4167 227.6929,0.4167 244.1968,61.7361 260.8071,0.4167 268.3291,0.4167 
	247.645,73.9587 240.542,73.9587 "/>
<polygon fill="#808184" points="284.1284,0.4167 319.437,0.4167 319.437,7.2078 291.4409,7.2078 291.4409,33.2185 316.6187,33.2185 
	316.6187,40.0076 291.4409,40.0076 291.4409,66.7507 319.8569,66.7507 319.8569,73.5417 284.1284,73.5417 "/>
<polygon fill="#808184" points="336.189,0.4167 343.2925,0.4167 372.6479,56.7224 372.6479,0.4167 379.7515,0.4167 
	379.7515,73.5417 373.3784,73.5417 343.2925,15.7732 343.2925,73.5417 336.189,73.5417 "/>
<polygon fill="#808184" points="467.7319,7.2078 451.853,7.2078 451.853,0.4167 491.0269,0.4167 491.0269,7.2078 475.0425,7.2078 
	475.0425,73.5417 467.7319,73.5417 "/>
<polygon fill="#808184" points="506.6812,0.4167 541.9917,0.4167 541.9917,7.2078 513.9937,7.2078 513.9937,33.2185 
	539.1694,33.2185 539.1694,40.0076 513.9937,40.0076 513.9937,66.7507 542.4097,66.7507 542.4097,73.5417 506.6812,73.5417 "/>
<polygon fill="#808184" points="446.5835,73.5417 424.853,-0.0002 417.228,-0.0002 395.603,73.5417 402.8101,73.5417 
	420.9897,10.865 438.9565,73.5417 "/>
</svg>
