<?xml version="1.0" encoding="utf-8"?>
<!-- Generator: Adobe Illustrator 16.0.4, SVG Export Plug-In . SVG Version: 6.00 Build 0)  -->
<!DOCTYPE svg PUBLIC "-//W3C//DTD SVG 1.1//EN" "http://www.w3.org/Graphics/SVG/1.1/DTD/svg11.dtd">
<svg version="1.1" id="Layer_1" xmlns="http://www.w3.org/2000/svg" xmlns:xlink="http://www.w3.org/1999/xlink" x="0px" y="0px"
	 width="386.469px" height="176.508px" viewBox="0 0 386.469 176.508" enable-background="new 0 0 386.469 176.508"
	 xml:space="preserve">
<rect x="-7.023" y="-6.528" fill="none" width="401.333" height="231.333"/>
<g>
	<rect x="360.158" y="99.098" fill="#DA1F26" width="26.311" height="77.41"/>
	<polygon fill="#DA1F26" points="207.688,112.478 181.318,144.588 178.838,144.588 152.468,112.478 151.948,112.478 
		151.948,176.508 208.208,176.508 208.208,112.478 	"/>
	<path fill="#DA1F26" d="M0,0v176.508h134.322v-91.18h15.844l29.982,35.96l29.951-35.96h15.74v91.18h17.587v-91.18h58.939v13.77
		h-41.319v23.95h39.56v13.78h-39.56v25.91h42.229v13.77h39.253v-77.41h-32.37v-13.77h76.311V0H0z M128.73,163.257h-27.306v11.252
		h-3.223v-26.532h3.223v11.253h27.306V163.257z M128.73,118.957h-14.137v18.004h14.137v4.027H98.202v-4.027h13.169v-18.004H98.202
		v-4.026h30.529V118.957z M128.73,105.511H98.202V85.778h3.223v15.706h9.968V87.081h3.223v14.403h10.893V85.778h3.223V105.511z"/>
</g>
</svg>
