<?xml version="1.0" encoding="utf-8"?>
<!-- Generator: Adobe Illustrator 16.0.4, SVG Export Plug-In . SVG Version: 6.00 Build 0)  -->
<!DOCTYPE svg PUBLIC "-//W3C//DTD SVG 1.1//EN" "http://www.w3.org/Graphics/SVG/1.1/DTD/svg11.dtd">
<svg version="1.1" id="Layer_1" xmlns="http://www.w3.org/2000/svg" xmlns:xlink="http://www.w3.org/1999/xlink" x="0px" y="0px"
	 width="288.744px" height="140.764px" viewBox="0 0 288.744 140.764" enable-background="new 0 0 288.744 140.764"
	 xml:space="preserve">
<g>
	<path fill="#FFFFFF" d="M1.252,90.25V60.525h4.871V72.47h24.964v5.834H6.123V90.25H1.252z"/>
	<path fill="#FFFFFF" d="M1.946,33.575v-5.698h29.141v5.698H18.434v17.186h12.653v5.698H1.946v-5.698h11.73V33.575H1.946z"/>
	<path fill="#FFFFFF" d="M31.087,22.868H1.946V0.323h4.758v16.824h6.993V1.568h4.758v15.58h7.875V0.323h4.758V22.868z"/>
</g>
<g>
	<polygon fill="#FFFFFF" points="36.678,91.204 36.678,0.024 52.522,0.024 82.504,35.984 112.455,0.024 128.195,0.024 
		128.195,91.204 110.564,91.204 110.564,27.173 110.045,27.173 83.674,59.284 81.194,59.284 54.825,27.173 54.305,27.173 
		54.305,91.204 	"/>
</g>
<g>
	<polygon fill="#FFFFFF" points="145.782,0.024 204.722,0.024 204.722,13.794 163.401,13.794 163.401,37.743 202.962,37.743 
		202.962,51.524 163.401,51.524 163.401,77.435 205.632,77.435 205.632,91.204 145.782,91.204 	"/>
</g>
<g>
	<polygon fill="#FFFFFF" points="218.626,0.024 288.825,0.024 288.825,13.793 262.515,13.793 262.515,91.204 244.884,91.204 
		244.884,13.794 218.626,13.794 	"/>
</g>
</svg>
