<?xml version="1.0" encoding="utf-8"?>
<!-- Generator: Adobe Illustrator 16.0.4, SVG Export Plug-In . SVG Version: 6.00 Build 0)  -->
<!DOCTYPE svg PUBLIC "-//W3C//DTD SVG 1.1//EN" "http://www.w3.org/Graphics/SVG/1.1/DTD/svg11.dtd">
<svg version="1.1" id="Layer_1" xmlns="http://www.w3.org/2000/svg" xmlns:xlink="http://www.w3.org/1999/xlink" x="0px" y="0px"
	 width="288.744px" height="140.764px" viewBox="0 -21.341 288.744 140.764" enable-background="new 0 -21.341 288.744 140.764"
	 xml:space="preserve">
<polygon fill="#FFFFFF" points="36.597,91.179 36.597,0 52.441,0 82.423,35.961 112.374,0 128.114,0 128.114,91.179 110.483,91.179 
	110.483,27.149 109.964,27.149 83.593,59.26 81.113,59.26 54.744,27.149 54.224,27.149 54.224,91.179 "/>
<polygon fill="#FFFFFF" points="145.701,0 204.641,0 204.641,13.77 163.321,13.77 163.321,37.72 202.881,37.72 202.881,51.5 
	163.321,51.5 163.321,77.41 205.551,77.41 205.551,91.179 145.701,91.179 "/>
<polygon fill="#FFFFFF" points="212.434,0 288.744,0 288.744,13.769 262.434,13.769 262.434,91.179 244.804,91.179 244.804,13.77 
	212.434,13.77 "/>
<g>
	<path fill="#FFFFFF" d="M0.558,91.181V64.648H3.78v11.254h27.307v4.027H3.78v11.252H0.558L0.558,91.181z"/>
	<path fill="#FFFFFF" d="M0.558,35.629v-4.026h30.529v4.026H16.95v18.004h14.137v4.027H0.558v-4.027h13.17V35.629H0.558z"/>
	<path fill="#FFFFFF" d="M31.087,19.757H0.558V0.024H3.78V15.73h9.969V1.327h3.223V15.73h10.893V0.024h3.223V19.757L31.087,19.757z"
		/>
</g>
</svg>
