<?xml version="1.0" encoding="utf-8"?>
<!-- Generator: Adobe Illustrator 16.0.4, SVG Export Plug-In . SVG Version: 6.00 Build 0)  -->
<!DOCTYPE svg PUBLIC "-//W3C//DTD SVG 1.1//EN" "http://www.w3.org/Graphics/SVG/1.1/DTD/svg11.dtd">
<svg version="1.1" id="GLYPHS" xmlns="http://www.w3.org/2000/svg" xmlns:xlink="http://www.w3.org/1999/xlink" x="0px" y="0px"
	 width="129px" height="42px" viewBox="0 0 129 42" enable-background="new 0 0 129 42" xml:space="preserve">
<g>
	<path fill="#FFFFFF" d="M1.141,13.865h2.195c0.25,0,0.524,0.011,0.824,0.031c0.299,0.021,0.599,0.071,0.898,0.152
		c0.299,0.081,0.588,0.202,0.867,0.363c0.278,0.161,0.526,0.383,0.742,0.664c0.216,0.281,0.389,0.634,0.52,1.059
		c0.13,0.425,0.195,0.938,0.195,1.543v0.336c0,1.016-0.146,1.843-0.438,2.48c-0.292,0.638-0.722,1.098-1.289,1.379l2.141,5.336
		H5.656l-1.773-4.992H3.125v4.992H1.141V13.865z M3.43,20.756c0.354,0,0.653-0.039,0.898-0.117c0.245-0.078,0.442-0.21,0.594-0.395
		c0.151-0.185,0.26-0.43,0.328-0.734c0.067-0.305,0.102-0.681,0.102-1.129v-1.055c0-0.344-0.031-0.641-0.094-0.891
		s-0.168-0.456-0.316-0.617s-0.345-0.281-0.59-0.359c-0.245-0.078-0.552-0.117-0.922-0.117H3.125v5.414H3.43z"/>
	<path fill="#FFFFFF" d="M11.797,27.326c-0.464,0-0.874-0.086-1.23-0.258c-0.357-0.172-0.658-0.44-0.902-0.805
		c-0.245-0.364-0.43-0.832-0.555-1.402s-0.188-1.257-0.188-2.059v-2.031c0-0.683,0.051-1.267,0.152-1.754s0.234-0.896,0.398-1.227
		s0.354-0.593,0.57-0.785c0.216-0.192,0.438-0.34,0.668-0.441c0.229-0.102,0.457-0.167,0.684-0.195s0.436-0.043,0.629-0.043
		c0.354,0,0.695,0.054,1.023,0.16s0.617,0.289,0.867,0.547s0.449,0.603,0.598,1.035s0.223,0.972,0.223,1.617
		c0,0.219-0.007,0.44-0.02,0.664c-0.013,0.224-0.03,0.444-0.051,0.66c-0.021,0.216-0.048,0.426-0.082,0.629
		c-0.034,0.203-0.069,0.391-0.105,0.562h-3.57v1.094c0,0.469,0.018,0.863,0.055,1.184c0.036,0.32,0.098,0.578,0.184,0.773
		s0.203,0.336,0.352,0.422s0.334,0.129,0.559,0.129c0.12,0,0.237-0.024,0.352-0.074c0.114-0.05,0.215-0.132,0.301-0.246
		s0.155-0.267,0.207-0.457c0.052-0.19,0.078-0.426,0.078-0.707v-0.336h1.648v0.414c0,1.021-0.244,1.765-0.73,2.23
		C13.423,27.093,12.719,27.326,11.797,27.326z M12.891,20.873c0.005-0.058,0.01-0.134,0.016-0.23
		c0.005-0.097,0.009-0.196,0.012-0.301c0.002-0.104,0.004-0.207,0.004-0.309s0-0.188,0-0.262c0-0.708-0.083-1.219-0.25-1.531
		c-0.167-0.312-0.414-0.469-0.742-0.469c-0.172,0-0.323,0.04-0.453,0.121c-0.13,0.081-0.237,0.216-0.32,0.406
		c-0.083,0.19-0.146,0.441-0.188,0.754c-0.042,0.312-0.062,0.7-0.062,1.164v0.656H12.891z"/>
	<path fill="#FFFFFF" d="M16.438,16.451h1.977v11.414c0,0.589-0.059,1.065-0.176,1.43s-0.275,0.649-0.473,0.855
		c-0.198,0.206-0.425,0.345-0.68,0.418c-0.255,0.073-0.521,0.109-0.797,0.109c-0.156,0-0.315-0.013-0.477-0.039
		c-0.162-0.026-0.32-0.075-0.477-0.148v-1.148c0.042,0.005,0.083,0.009,0.125,0.012c0.042,0.003,0.083,0.004,0.125,0.004
		c0.114,0,0.224-0.021,0.328-0.062c0.104-0.042,0.195-0.11,0.273-0.207s0.139-0.224,0.184-0.383c0.044-0.159,0.066-0.355,0.066-0.59
		V16.451z M17.461,14.912c-0.365,0-0.652-0.109-0.863-0.328s-0.316-0.539-0.316-0.961c0-0.234,0.027-0.431,0.082-0.59
		s0.133-0.286,0.234-0.383s0.225-0.167,0.371-0.211c0.146-0.044,0.312-0.066,0.5-0.066c0.391,0,0.688,0.099,0.891,0.297
		s0.305,0.516,0.305,0.953c0,0.406-0.103,0.723-0.309,0.949C18.149,14.799,17.852,14.912,17.461,14.912z"/>
	<path fill="#FFFFFF" d="M20.492,16.451h1.977v8.086c0,0.474,0.073,0.804,0.219,0.988c0.146,0.185,0.359,0.277,0.641,0.277
		c0.198,0,0.391-0.055,0.578-0.164s0.356-0.266,0.508-0.469v-8.719h1.977v10.758h-1.508l-0.195-1.148H24.68
		c-0.156,0.245-0.322,0.449-0.496,0.613c-0.175,0.164-0.357,0.294-0.547,0.391c-0.19,0.097-0.384,0.165-0.582,0.207
		c-0.198,0.042-0.396,0.062-0.594,0.062c-0.63,0-1.116-0.219-1.457-0.656c-0.341-0.438-0.512-1.099-0.512-1.984V16.451z"/>
	<path fill="#FFFFFF" d="M27.562,16.451h1.969l1.039,5.719l0.258,2.289h0.062l0.297-2.289l1.031-5.719h1.906l-2.453,10.758h-1.688
		L27.562,16.451z"/>
	<path fill="#FFFFFF" d="M37.875,27.326c-0.464,0-0.874-0.086-1.23-0.258c-0.357-0.172-0.658-0.44-0.902-0.805
		c-0.245-0.364-0.43-0.832-0.555-1.402S35,23.604,35,22.803v-2.031c0-0.683,0.051-1.267,0.152-1.754s0.234-0.896,0.398-1.227
		s0.354-0.593,0.57-0.785c0.216-0.192,0.438-0.34,0.668-0.441c0.229-0.102,0.457-0.167,0.684-0.195s0.436-0.043,0.629-0.043
		c0.354,0,0.695,0.054,1.023,0.16s0.617,0.289,0.867,0.547s0.449,0.603,0.598,1.035s0.223,0.972,0.223,1.617
		c0,0.219-0.007,0.44-0.02,0.664c-0.013,0.224-0.03,0.444-0.051,0.66c-0.021,0.216-0.048,0.426-0.082,0.629
		c-0.034,0.203-0.069,0.391-0.105,0.562h-3.57v1.094c0,0.469,0.018,0.863,0.055,1.184c0.036,0.32,0.098,0.578,0.184,0.773
		s0.203,0.336,0.352,0.422s0.334,0.129,0.559,0.129c0.12,0,0.237-0.024,0.352-0.074c0.114-0.05,0.215-0.132,0.301-0.246
		s0.155-0.267,0.207-0.457c0.052-0.19,0.078-0.426,0.078-0.707v-0.336h1.648v0.414c0,1.021-0.244,1.765-0.73,2.23
		C39.501,27.093,38.797,27.326,37.875,27.326z M38.969,20.873c0.005-0.058,0.01-0.134,0.016-0.23
		c0.005-0.097,0.009-0.196,0.012-0.301C38.999,20.237,39,20.135,39,20.033s0-0.188,0-0.262c0-0.708-0.083-1.219-0.25-1.531
		c-0.167-0.312-0.414-0.469-0.742-0.469c-0.172,0-0.323,0.04-0.453,0.121c-0.13,0.081-0.237,0.216-0.32,0.406
		c-0.083,0.19-0.146,0.441-0.188,0.754c-0.042,0.312-0.062,0.7-0.062,1.164v0.656H38.969z"/>
	<path fill="#FFFFFF" d="M42.484,16.451h1.523l0.18,1.148v0.008c0.156-0.245,0.324-0.449,0.504-0.613s0.366-0.296,0.559-0.395
		c0.192-0.099,0.389-0.169,0.59-0.211c0.2-0.042,0.399-0.062,0.598-0.062c0.63,0,1.116,0.22,1.457,0.66
		c0.341,0.44,0.512,1.101,0.512,1.98v8.242H46.43v-8.172c0-0.474-0.073-0.804-0.219-0.988c-0.146-0.185-0.359-0.277-0.641-0.277
		c-0.198,0-0.395,0.065-0.59,0.195s-0.369,0.31-0.52,0.539v8.703h-1.977V16.451z"/>
	<path fill="#FFFFFF" d="M51.938,27.326c-0.333,0-0.629-0.066-0.887-0.199s-0.476-0.313-0.652-0.543
		c-0.177-0.229-0.312-0.501-0.402-0.816c-0.091-0.315-0.137-0.657-0.137-1.027c0-0.442,0.055-0.836,0.164-1.18s0.27-0.653,0.48-0.93
		s0.473-0.527,0.785-0.754s0.674-0.441,1.086-0.645c0.198-0.099,0.42-0.199,0.668-0.301c0.247-0.102,0.467-0.188,0.66-0.262v-1.422
		c0-0.208-0.008-0.402-0.023-0.582s-0.054-0.336-0.113-0.469c-0.06-0.133-0.15-0.237-0.27-0.312
		c-0.12-0.075-0.284-0.113-0.492-0.113c-0.141,0-0.277,0.026-0.41,0.078s-0.25,0.141-0.352,0.266s-0.183,0.292-0.242,0.5
		c-0.06,0.208-0.09,0.466-0.09,0.773v0.469h-1.508c-0.047-0.203-0.082-0.39-0.105-0.559s-0.035-0.337-0.035-0.504
		c0-0.401,0.069-0.755,0.207-1.062c0.138-0.308,0.331-0.565,0.578-0.773c0.247-0.208,0.543-0.366,0.887-0.473s0.721-0.16,1.133-0.16
		c0.536,0,0.981,0.059,1.336,0.176c0.354,0.117,0.637,0.293,0.848,0.527s0.359,0.528,0.445,0.883s0.129,0.769,0.129,1.242v8.055
		h-1.469l-0.141-0.922c-0.214,0.308-0.499,0.558-0.855,0.75C52.803,27.229,52.396,27.326,51.938,27.326z M52.812,25.803
		c0.167,0,0.329-0.043,0.488-0.129c0.159-0.086,0.293-0.191,0.402-0.316V21.99c-0.104,0.042-0.222,0.091-0.352,0.148
		c-0.13,0.058-0.271,0.133-0.422,0.227c-0.141,0.089-0.279,0.195-0.414,0.32c-0.136,0.125-0.257,0.273-0.363,0.445
		c-0.107,0.172-0.193,0.366-0.258,0.582c-0.065,0.216-0.098,0.457-0.098,0.723c0,0.411,0.081,0.742,0.242,0.992
		C52.2,25.678,52.458,25.803,52.812,25.803z"/>
	<path fill="#FFFFFF" d="M57.898,17.857h-0.836v-1.406h1.008l0.398-2.789h1.406v2.789h1.719v1.406h-1.719v6.844
		c0,0.234,0.022,0.423,0.066,0.566c0.044,0.144,0.105,0.255,0.184,0.336s0.169,0.134,0.273,0.16
		c0.104,0.026,0.213,0.039,0.328,0.039c0.192,0,0.363-0.023,0.512-0.07s0.29-0.112,0.426-0.195v1.094
		c-0.115,0.141-0.238,0.255-0.371,0.344s-0.27,0.16-0.41,0.215s-0.284,0.093-0.43,0.113c-0.146,0.021-0.289,0.031-0.43,0.031
		c-0.276,0-0.542-0.036-0.797-0.109c-0.255-0.073-0.482-0.212-0.68-0.418c-0.198-0.206-0.355-0.491-0.473-0.855
		s-0.176-0.839-0.176-1.422V17.857z"/>
	<path fill="#FFFFFF" d="M64,14.912c-0.365,0-0.652-0.109-0.863-0.328s-0.316-0.539-0.316-0.961c0-0.234,0.027-0.431,0.082-0.59
		s0.133-0.286,0.234-0.383s0.225-0.167,0.371-0.211c0.146-0.044,0.312-0.066,0.5-0.066c0.391,0,0.688,0.099,0.891,0.297
		s0.305,0.516,0.305,0.953c0,0.406-0.103,0.723-0.309,0.949C64.688,14.799,64.391,14.912,64,14.912z M62.977,16.451h1.977v10.758
		h-1.977V16.451z"/>
	<path fill="#FFFFFF" d="M69.727,27.326c-0.229,0-0.462-0.019-0.699-0.055s-0.466-0.112-0.688-0.227s-0.43-0.278-0.625-0.492
		s-0.366-0.495-0.512-0.844c-0.146-0.349-0.261-0.778-0.344-1.289c-0.083-0.511-0.125-1.12-0.125-1.828v-1.688
		c0-0.698,0.043-1.296,0.129-1.793s0.203-0.915,0.352-1.254s0.321-0.608,0.52-0.809c0.198-0.2,0.407-0.354,0.629-0.461
		s0.449-0.177,0.684-0.211s0.464-0.051,0.688-0.051c0.214,0,0.435,0.016,0.664,0.047s0.453,0.098,0.672,0.199
		s0.426,0.253,0.621,0.453s0.367,0.47,0.516,0.809s0.266,0.759,0.352,1.262s0.129,1.105,0.129,1.809v1.688
		c0,0.698-0.044,1.3-0.133,1.805s-0.208,0.933-0.359,1.281s-0.325,0.632-0.523,0.848s-0.406,0.384-0.625,0.504
		s-0.441,0.199-0.668,0.238S69.935,27.326,69.727,27.326z M69.742,25.803c0.177,0,0.327-0.046,0.449-0.137s0.222-0.241,0.297-0.449
		s0.13-0.483,0.164-0.824s0.051-0.765,0.051-1.27v-2.648c0-0.505-0.017-0.93-0.051-1.273s-0.089-0.621-0.164-0.832
		s-0.175-0.363-0.297-0.457s-0.272-0.141-0.449-0.141c-0.188,0-0.345,0.047-0.473,0.141s-0.233,0.246-0.316,0.457
		s-0.144,0.488-0.18,0.832s-0.055,0.769-0.055,1.273v2.648c0,0.505,0.019,0.929,0.055,1.27s0.097,0.616,0.18,0.824
		s0.188,0.358,0.316,0.449S69.555,25.803,69.742,25.803z"/>
	<path fill="#FFFFFF" d="M74.438,16.451h1.523l0.18,1.148v0.008c0.156-0.245,0.324-0.449,0.504-0.613s0.366-0.296,0.559-0.395
		s0.39-0.169,0.59-0.211s0.399-0.062,0.598-0.062c0.63,0,1.116,0.22,1.457,0.66s0.512,1.101,0.512,1.98v8.242h-1.977v-8.172
		c0-0.474-0.073-0.804-0.219-0.988s-0.359-0.277-0.641-0.277c-0.198,0-0.395,0.065-0.59,0.195s-0.368,0.31-0.52,0.539v8.703h-1.977
		V16.451z"/>
	<path fill="#FFFFFF" d="M85.953,13.865h2.023v11.75h2.758v1.594h-4.781V13.865z"/>
	<path fill="#FFFFFF" d="M94.602,27.326c-0.229,0-0.462-0.019-0.699-0.055s-0.466-0.112-0.688-0.227s-0.43-0.278-0.625-0.492
		s-0.366-0.495-0.512-0.844s-0.261-0.778-0.344-1.289s-0.125-1.12-0.125-1.828v-1.688c0-0.698,0.043-1.296,0.129-1.793
		s0.203-0.915,0.352-1.254s0.321-0.608,0.52-0.809s0.407-0.354,0.629-0.461s0.449-0.177,0.684-0.211s0.464-0.051,0.688-0.051
		c0.214,0,0.435,0.016,0.664,0.047s0.453,0.098,0.672,0.199s0.426,0.253,0.621,0.453s0.367,0.47,0.516,0.809
		s0.266,0.759,0.352,1.262s0.129,1.105,0.129,1.809v1.688c0,0.698-0.044,1.3-0.133,1.805s-0.208,0.933-0.359,1.281
		s-0.325,0.632-0.523,0.848s-0.406,0.384-0.625,0.504s-0.441,0.199-0.668,0.238S94.81,27.326,94.602,27.326z M94.617,25.803
		c0.177,0,0.327-0.046,0.449-0.137s0.222-0.241,0.297-0.449s0.13-0.483,0.164-0.824s0.051-0.765,0.051-1.27v-2.648
		c0-0.505-0.017-0.93-0.051-1.273s-0.089-0.621-0.164-0.832s-0.175-0.363-0.297-0.457s-0.272-0.141-0.449-0.141
		c-0.188,0-0.345,0.047-0.473,0.141s-0.233,0.246-0.316,0.457s-0.144,0.488-0.18,0.832s-0.055,0.769-0.055,1.273v2.648
		c0,0.505,0.019,0.929,0.055,1.27s0.097,0.616,0.18,0.824s0.188,0.358,0.316,0.449S94.43,25.803,94.617,25.803z"/>
	<path fill="#FFFFFF" d="M99.328,16.451h1.977v8.086c0,0.474,0.073,0.804,0.219,0.988s0.359,0.277,0.641,0.277
		c0.198,0,0.391-0.055,0.578-0.164s0.356-0.266,0.508-0.469v-8.719h1.977v10.758h-1.508l-0.195-1.148h-0.008
		c-0.156,0.245-0.321,0.449-0.496,0.613s-0.356,0.294-0.547,0.391s-0.384,0.165-0.582,0.207s-0.396,0.062-0.594,0.062
		c-0.63,0-1.116-0.219-1.457-0.656s-0.512-1.099-0.512-1.984V16.451z"/>
	<path fill="#FFFFFF" d="M107.289,16.451h1.523l0.18,1.148v0.008c0.156-0.245,0.324-0.449,0.504-0.613s0.366-0.296,0.559-0.395
		s0.39-0.169,0.59-0.211s0.399-0.062,0.598-0.062c0.63,0,1.116,0.22,1.457,0.66s0.512,1.101,0.512,1.98v8.242h-1.977v-8.172
		c0-0.474-0.073-0.804-0.219-0.988s-0.359-0.277-0.641-0.277c-0.198,0-0.395,0.065-0.59,0.195s-0.368,0.31-0.52,0.539v8.703h-1.977
		V16.451z"/>
	<path fill="#FFFFFF" d="M116.867,27.943c0,0.464,0.086,0.792,0.258,0.984s0.438,0.289,0.797,0.289c0.146,0,0.286-0.022,0.422-0.066
		s0.254-0.125,0.355-0.242s0.184-0.28,0.246-0.488s0.094-0.477,0.094-0.805V25.92c-0.177,0.229-0.405,0.426-0.684,0.59
		s-0.624,0.246-1.035,0.246c-0.12,0-0.261-0.012-0.422-0.035s-0.328-0.077-0.5-0.16s-0.341-0.21-0.508-0.379
		s-0.315-0.397-0.445-0.684s-0.235-0.645-0.316-1.074s-0.121-0.949-0.121-1.559v-2.828c0-0.583,0.04-1.079,0.121-1.488
		s0.187-0.751,0.316-1.027s0.28-0.492,0.449-0.648s0.341-0.274,0.516-0.355s0.345-0.132,0.512-0.152s0.315-0.031,0.445-0.031
		c0.261,0,0.491,0.034,0.691,0.102s0.375,0.157,0.523,0.27s0.274,0.238,0.379,0.379s0.192,0.281,0.266,0.422l0.18-1.062h1.539
		v10.328c0,0.599-0.058,1.14-0.172,1.621s-0.294,0.894-0.539,1.234s-0.556,0.603-0.934,0.785s-0.829,0.273-1.355,0.273
		c-0.354,0-0.688-0.031-1-0.094s-0.586-0.173-0.82-0.332s-0.419-0.375-0.555-0.648s-0.203-0.621-0.203-1.043
		c0-0.073,0.008-0.164,0.023-0.273s0.042-0.227,0.078-0.352H116.867z M117.992,25.225c0.13,0,0.246-0.022,0.348-0.066
		s0.192-0.103,0.273-0.176s0.151-0.156,0.211-0.25s0.11-0.19,0.152-0.289v-5.883c-0.099-0.219-0.23-0.405-0.395-0.559
		s-0.363-0.23-0.598-0.23c-0.146,0-0.278,0.026-0.398,0.078s-0.224,0.149-0.312,0.293s-0.157,0.341-0.207,0.594
		s-0.074,0.579-0.074,0.98v3.539c0,0.401,0.024,0.729,0.074,0.984s0.118,0.456,0.207,0.602s0.194,0.246,0.316,0.301
		S117.847,25.225,117.992,25.225z"/>
	<path fill="#FFFFFF" d="M125.609,27.326c-0.464,0-0.874-0.086-1.23-0.258s-0.657-0.44-0.902-0.805s-0.43-0.832-0.555-1.402
		s-0.188-1.257-0.188-2.059v-2.031c0-0.683,0.051-1.267,0.152-1.754s0.234-0.896,0.398-1.227s0.354-0.593,0.57-0.785
		s0.438-0.34,0.668-0.441s0.457-0.167,0.684-0.195s0.437-0.043,0.629-0.043c0.354,0,0.695,0.054,1.023,0.16s0.617,0.289,0.867,0.547
		s0.449,0.603,0.598,1.035s0.223,0.972,0.223,1.617c0,0.219-0.007,0.44-0.02,0.664s-0.03,0.444-0.051,0.66s-0.048,0.426-0.082,0.629
		s-0.069,0.391-0.105,0.562h-3.57v1.094c0,0.469,0.019,0.863,0.055,1.184s0.098,0.578,0.184,0.773s0.203,0.336,0.352,0.422
		s0.335,0.129,0.559,0.129c0.12,0,0.237-0.024,0.352-0.074s0.215-0.132,0.301-0.246s0.155-0.267,0.207-0.457
		s0.078-0.426,0.078-0.707v-0.336h1.648v0.414c0,1.021-0.243,1.765-0.73,2.23S126.531,27.326,125.609,27.326z M126.703,20.873
		c0.005-0.058,0.011-0.134,0.016-0.23s0.009-0.196,0.012-0.301s0.004-0.207,0.004-0.309s0-0.188,0-0.262
		c0-0.708-0.083-1.219-0.25-1.531s-0.414-0.469-0.742-0.469c-0.172,0-0.323,0.04-0.453,0.121s-0.237,0.216-0.32,0.406
		s-0.146,0.441-0.188,0.754s-0.062,0.7-0.062,1.164v0.656H126.703z"/>
</g>
</svg>
