<?xml version="1.0" encoding="utf-8"?>
<!-- Generator: Adobe Illustrator 16.0.4, SVG Export Plug-In . SVG Version: 6.00 Build 0)  -->
<!DOCTYPE svg PUBLIC "-//W3C//DTD SVG 1.1//EN" "http://www.w3.org/Graphics/SVG/1.1/DTD/svg11.dtd">
<svg version="1.1" id="GLYPHS" xmlns="http://www.w3.org/2000/svg" xmlns:xlink="http://www.w3.org/1999/xlink" x="0px" y="0px"
	 width="101px" height="42px" viewBox="0 0 101 42" enable-background="new 0 0 101 42" xml:space="preserve">
<g>
	<path fill="#FFFFFF" d="M0.625,24.506c0-0.286,0.017-0.551,0.051-0.793c0.034-0.242,0.084-0.504,0.152-0.785h1.57v0.648
		c0,0.359,0.022,0.677,0.066,0.953c0.044,0.276,0.117,0.509,0.219,0.699s0.237,0.333,0.406,0.43
		c0.169,0.097,0.376,0.145,0.621,0.145c0.385,0,0.68-0.105,0.883-0.316s0.305-0.52,0.305-0.926c0-0.208-0.015-0.399-0.043-0.574
		c-0.029-0.175-0.078-0.348-0.148-0.52s-0.166-0.353-0.285-0.543c-0.12-0.19-0.273-0.402-0.461-0.637l-2.109-2.508
		C1.477,19.3,1.188,18.817,0.984,18.33S0.68,17.323,0.68,16.771c0-0.442,0.069-0.849,0.207-1.219
		c0.138-0.37,0.337-0.688,0.598-0.957c0.26-0.269,0.582-0.477,0.965-0.625s0.816-0.223,1.301-0.223c0.588,0,1.079,0.083,1.473,0.25
		c0.393,0.167,0.707,0.386,0.941,0.656s0.399,0.574,0.496,0.91c0.096,0.336,0.145,0.673,0.145,1.012
		c0,0.286-0.022,0.551-0.066,0.793c-0.044,0.242-0.095,0.509-0.152,0.801H5.023v-0.633c0-0.708-0.102-1.251-0.305-1.629
		s-0.534-0.566-0.992-0.566c-0.38,0-0.664,0.105-0.852,0.316s-0.281,0.493-0.281,0.848c0,0.188,0.014,0.356,0.043,0.508
		c0.028,0.151,0.07,0.29,0.125,0.418s0.121,0.251,0.199,0.371s0.167,0.245,0.266,0.375l2.352,2.844
		c0.427,0.558,0.755,1.093,0.984,1.605c0.229,0.513,0.344,1.056,0.344,1.629c0,0.474-0.074,0.901-0.223,1.281
		s-0.361,0.703-0.637,0.969c-0.276,0.266-0.609,0.47-1,0.613s-0.831,0.215-1.32,0.215c-0.604,0-1.105-0.081-1.504-0.242
		s-0.716-0.375-0.953-0.641c-0.237-0.266-0.404-0.567-0.5-0.906C0.673,25.206,0.625,24.86,0.625,24.506z"/>
	<path fill="#FFFFFF" d="M9.539,14.912c-0.365,0-0.652-0.109-0.863-0.328s-0.316-0.539-0.316-0.961c0-0.234,0.027-0.431,0.082-0.59
		s0.133-0.286,0.234-0.383s0.225-0.167,0.371-0.211c0.146-0.044,0.312-0.066,0.5-0.066c0.391,0,0.688,0.099,0.891,0.297
		s0.305,0.516,0.305,0.953c0,0.406-0.103,0.723-0.309,0.949C10.228,14.799,9.93,14.912,9.539,14.912z M8.516,16.451h1.977v10.758
		H8.516V16.451z"/>
	<path fill="#FFFFFF" d="M14.164,27.943c0,0.464,0.086,0.792,0.258,0.984s0.438,0.289,0.797,0.289c0.146,0,0.286-0.022,0.422-0.066
		c0.135-0.044,0.254-0.125,0.355-0.242s0.184-0.28,0.246-0.488s0.094-0.477,0.094-0.805V25.92c-0.177,0.229-0.405,0.426-0.684,0.59
		c-0.279,0.164-0.624,0.246-1.035,0.246c-0.12,0-0.261-0.012-0.422-0.035c-0.162-0.023-0.328-0.077-0.5-0.16
		s-0.341-0.21-0.508-0.379c-0.167-0.169-0.315-0.397-0.445-0.684c-0.13-0.286-0.236-0.645-0.316-1.074
		c-0.081-0.43-0.121-0.949-0.121-1.559v-2.828c0-0.583,0.04-1.079,0.121-1.488c0.081-0.409,0.186-0.751,0.316-1.027
		c0.13-0.276,0.28-0.492,0.449-0.648c0.169-0.156,0.341-0.274,0.516-0.355c0.174-0.081,0.345-0.132,0.512-0.152
		c0.167-0.021,0.315-0.031,0.445-0.031c0.26,0,0.491,0.034,0.691,0.102c0.2,0.067,0.375,0.157,0.523,0.27s0.274,0.238,0.379,0.379
		c0.104,0.141,0.192,0.281,0.266,0.422l0.18-1.062h1.539v10.328c0,0.599-0.058,1.14-0.172,1.621
		c-0.115,0.481-0.294,0.894-0.539,1.234c-0.245,0.341-0.556,0.603-0.934,0.785c-0.378,0.183-0.83,0.273-1.355,0.273
		c-0.354,0-0.688-0.031-1-0.094s-0.586-0.173-0.82-0.332s-0.419-0.375-0.555-0.648c-0.136-0.273-0.203-0.621-0.203-1.043
		c0-0.073,0.008-0.164,0.023-0.273s0.042-0.227,0.078-0.352H14.164z M15.289,25.225c0.13,0,0.246-0.022,0.348-0.066
		s0.192-0.103,0.273-0.176c0.081-0.073,0.151-0.156,0.211-0.25c0.06-0.094,0.11-0.19,0.152-0.289v-5.883
		c-0.099-0.219-0.23-0.405-0.395-0.559s-0.363-0.23-0.598-0.23c-0.146,0-0.279,0.026-0.398,0.078
		c-0.12,0.052-0.224,0.149-0.312,0.293c-0.089,0.144-0.158,0.341-0.207,0.594c-0.05,0.253-0.074,0.579-0.074,0.98v3.539
		c0,0.401,0.024,0.729,0.074,0.984c0.049,0.255,0.118,0.456,0.207,0.602c0.088,0.146,0.194,0.246,0.316,0.301
		C15.009,25.197,15.143,25.225,15.289,25.225z"/>
	<path fill="#FFFFFF" d="M20.312,16.451h1.523l0.18,1.148v0.008c0.156-0.245,0.324-0.449,0.504-0.613s0.366-0.296,0.559-0.395
		c0.192-0.099,0.389-0.169,0.59-0.211c0.2-0.042,0.399-0.062,0.598-0.062c0.63,0,1.116,0.22,1.457,0.66
		c0.341,0.44,0.512,1.101,0.512,1.98v8.242h-1.977v-8.172c0-0.474-0.073-0.804-0.219-0.988c-0.146-0.185-0.359-0.277-0.641-0.277
		c-0.198,0-0.395,0.065-0.59,0.195s-0.369,0.31-0.52,0.539v8.703h-1.977V16.451z"/>
	<path fill="#FFFFFF" d="M31.828,13.865h2.023v13.344h-2.023V13.865z"/>
	<path fill="#FFFFFF" d="M36.008,16.451h1.523l0.18,1.148v0.008c0.156-0.245,0.324-0.449,0.504-0.613s0.366-0.296,0.559-0.395
		c0.192-0.099,0.389-0.169,0.59-0.211c0.2-0.042,0.399-0.062,0.598-0.062c0.63,0,1.116,0.22,1.457,0.66
		c0.341,0.44,0.512,1.101,0.512,1.98v8.242h-1.977v-8.172c0-0.474-0.073-0.804-0.219-0.988c-0.146-0.185-0.359-0.277-0.641-0.277
		c-0.198,0-0.395,0.065-0.59,0.195s-0.369,0.31-0.52,0.539v8.703h-1.977V16.451z"/>
	<path fill="#FFFFFF" d="M48.906,12.49h1.711l-2.445,17.266h-1.711L48.906,12.49z"/>
	<path fill="#FFFFFF" d="M54.742,24.506c0-0.286,0.017-0.551,0.051-0.793c0.034-0.242,0.084-0.504,0.152-0.785h1.57v0.648
		c0,0.359,0.022,0.677,0.066,0.953c0.044,0.276,0.117,0.509,0.219,0.699s0.237,0.333,0.406,0.43
		c0.169,0.097,0.376,0.145,0.621,0.145c0.385,0,0.68-0.105,0.883-0.316s0.305-0.52,0.305-0.926c0-0.208-0.015-0.399-0.043-0.574
		c-0.029-0.175-0.078-0.348-0.148-0.52s-0.166-0.353-0.285-0.543c-0.12-0.19-0.273-0.402-0.461-0.637l-2.109-2.508
		c-0.375-0.479-0.664-0.962-0.867-1.449s-0.305-1.007-0.305-1.559c0-0.442,0.069-0.849,0.207-1.219
		c0.138-0.37,0.337-0.688,0.598-0.957c0.26-0.269,0.582-0.477,0.965-0.625s0.816-0.223,1.301-0.223c0.588,0,1.079,0.083,1.473,0.25
		c0.393,0.167,0.707,0.386,0.941,0.656s0.399,0.574,0.496,0.91c0.096,0.336,0.145,0.673,0.145,1.012
		c0,0.286-0.022,0.551-0.066,0.793c-0.044,0.242-0.095,0.509-0.152,0.801h-1.562v-0.633c0-0.708-0.102-1.251-0.305-1.629
		s-0.534-0.566-0.992-0.566c-0.38,0-0.664,0.105-0.852,0.316s-0.281,0.493-0.281,0.848c0,0.188,0.014,0.356,0.043,0.508
		c0.028,0.151,0.07,0.29,0.125,0.418s0.121,0.251,0.199,0.371s0.167,0.245,0.266,0.375l2.352,2.844
		c0.427,0.558,0.755,1.093,0.984,1.605c0.229,0.513,0.344,1.056,0.344,1.629c0,0.474-0.074,0.901-0.223,1.281
		s-0.361,0.703-0.637,0.969c-0.276,0.266-0.609,0.47-1,0.613s-0.831,0.215-1.32,0.215c-0.604,0-1.105-0.081-1.504-0.242
		s-0.716-0.375-0.953-0.641c-0.237-0.266-0.404-0.567-0.5-0.906C54.79,25.206,54.742,24.86,54.742,24.506z"/>
	<path fill="#FFFFFF" d="M63.656,14.912c-0.365,0-0.652-0.109-0.863-0.328s-0.316-0.539-0.316-0.961c0-0.234,0.027-0.431,0.082-0.59
		s0.133-0.286,0.234-0.383s0.225-0.167,0.371-0.211c0.146-0.044,0.312-0.066,0.5-0.066c0.391,0,0.688,0.099,0.891,0.297
		s0.305,0.516,0.305,0.953c0,0.406-0.103,0.723-0.309,0.949C64.345,14.799,64.047,14.912,63.656,14.912z M62.633,16.451h1.977
		v10.758h-1.977V16.451z"/>
	<path fill="#FFFFFF" d="M68.281,27.943c0,0.464,0.086,0.792,0.258,0.984s0.438,0.289,0.797,0.289c0.146,0,0.286-0.022,0.422-0.066
		s0.254-0.125,0.355-0.242s0.184-0.28,0.246-0.488s0.094-0.477,0.094-0.805V25.92c-0.177,0.229-0.405,0.426-0.684,0.59
		s-0.624,0.246-1.035,0.246c-0.12,0-0.261-0.012-0.422-0.035c-0.162-0.023-0.328-0.077-0.5-0.16s-0.341-0.21-0.508-0.379
		c-0.167-0.169-0.315-0.397-0.445-0.684c-0.13-0.286-0.236-0.645-0.316-1.074c-0.081-0.43-0.121-0.949-0.121-1.559v-2.828
		c0-0.583,0.04-1.079,0.121-1.488c0.081-0.409,0.186-0.751,0.316-1.027c0.13-0.276,0.28-0.492,0.449-0.648
		c0.169-0.156,0.341-0.274,0.516-0.355c0.174-0.081,0.345-0.132,0.512-0.152s0.315-0.031,0.445-0.031
		c0.261,0,0.491,0.034,0.691,0.102s0.375,0.157,0.523,0.27s0.274,0.238,0.379,0.379s0.192,0.281,0.266,0.422l0.18-1.062h1.539
		v10.328c0,0.599-0.058,1.14-0.172,1.621s-0.294,0.894-0.539,1.234s-0.556,0.603-0.934,0.785s-0.829,0.273-1.355,0.273
		c-0.354,0-0.688-0.031-1-0.094s-0.586-0.173-0.82-0.332s-0.419-0.375-0.555-0.648c-0.136-0.273-0.203-0.621-0.203-1.043
		c0-0.073,0.008-0.164,0.023-0.273s0.042-0.227,0.078-0.352H68.281z M69.406,25.225c0.13,0,0.246-0.022,0.348-0.066
		s0.192-0.103,0.273-0.176s0.151-0.156,0.211-0.25s0.11-0.19,0.152-0.289v-5.883c-0.099-0.219-0.23-0.405-0.395-0.559
		s-0.363-0.23-0.598-0.23c-0.146,0-0.278,0.026-0.398,0.078s-0.224,0.149-0.312,0.293s-0.157,0.341-0.207,0.594
		s-0.074,0.579-0.074,0.98v3.539c0,0.401,0.024,0.729,0.074,0.984s0.118,0.456,0.207,0.602s0.194,0.246,0.316,0.301
		S69.261,25.225,69.406,25.225z"/>
	<path fill="#FFFFFF" d="M74.43,16.451h1.523l0.18,1.148v0.008c0.156-0.245,0.324-0.449,0.504-0.613s0.366-0.296,0.559-0.395
		s0.39-0.169,0.59-0.211s0.399-0.062,0.598-0.062c0.63,0,1.116,0.22,1.457,0.66s0.512,1.101,0.512,1.98v8.242h-1.977v-8.172
		c0-0.474-0.073-0.804-0.219-0.988s-0.359-0.277-0.641-0.277c-0.198,0-0.395,0.065-0.59,0.195s-0.368,0.31-0.52,0.539v8.703H74.43
		V16.451z"/>
	<path fill="#FFFFFF" d="M85.898,13.865h2.039v9.781c0,0.417,0.021,0.763,0.062,1.039s0.108,0.496,0.199,0.66
		s0.208,0.281,0.352,0.352s0.313,0.105,0.512,0.105s0.371-0.035,0.52-0.105s0.271-0.188,0.367-0.352s0.169-0.384,0.219-0.66
		s0.074-0.622,0.074-1.039v-9.781h2.016v9.242c0,0.651-0.052,1.208-0.156,1.672s-0.242,0.852-0.414,1.164s-0.368,0.56-0.59,0.742
		s-0.45,0.321-0.688,0.418s-0.473,0.157-0.707,0.184s-0.448,0.039-0.641,0.039s-0.405-0.013-0.637-0.039s-0.465-0.087-0.699-0.184
		s-0.461-0.235-0.68-0.418s-0.414-0.43-0.586-0.742s-0.309-0.699-0.41-1.16s-0.152-1.02-0.152-1.676V13.865z"/>
	<path fill="#FFFFFF" d="M96.344,27.818v2.867h-1.977V16.451h1.547l0.18,1.133c0.089-0.146,0.194-0.294,0.316-0.445
		s0.266-0.285,0.43-0.402s0.349-0.214,0.555-0.289s0.437-0.113,0.691-0.113c0.109,0,0.241,0.011,0.395,0.031
		s0.312,0.073,0.477,0.156s0.328,0.207,0.492,0.371s0.31,0.39,0.438,0.676s0.231,0.644,0.312,1.07s0.121,0.945,0.121,1.555v3.258
		c0,0.609-0.04,1.128-0.121,1.555s-0.187,0.784-0.316,1.07s-0.278,0.513-0.445,0.68s-0.336,0.292-0.508,0.375s-0.339,0.137-0.5,0.16
		s-0.302,0.035-0.422,0.035c-0.417,0-0.765-0.081-1.043-0.242s-0.507-0.356-0.684-0.586L96.344,27.818z M96.344,25.014
		c0.042,0.104,0.093,0.203,0.152,0.297s0.13,0.177,0.211,0.25s0.172,0.132,0.273,0.176s0.22,0.066,0.355,0.066
		c0.146,0,0.278-0.027,0.398-0.082s0.224-0.153,0.312-0.297s0.157-0.343,0.207-0.598s0.074-0.583,0.074-0.984v-4.117
		c0-0.401-0.024-0.728-0.074-0.98s-0.117-0.452-0.203-0.598s-0.188-0.245-0.309-0.297s-0.253-0.078-0.398-0.078
		c-0.25,0-0.454,0.074-0.613,0.223s-0.288,0.321-0.387,0.52V25.014z"/>
</g>
</svg>
