<?xml version="1.0" encoding="utf-8"?>
<!-- Generator: Adobe Illustrator 16.0.4, SVG Export Plug-In . SVG Version: 6.00 Build 0)  -->
<!DOCTYPE svg PUBLIC "-//W3C//DTD SVG 1.1//EN" "http://www.w3.org/Graphics/SVG/1.1/DTD/svg11.dtd">
<svg version="1.1" id="GLYPHS" xmlns="http://www.w3.org/2000/svg" xmlns:xlink="http://www.w3.org/1999/xlink" x="0px" y="0px"
	 width="50px" height="42px" viewBox="0 0 50 42" enable-background="new 0 0 50 42" xml:space="preserve">
<g>
	<path fill="#FFFFFF" d="M0.625,24.506c0-0.286,0.017-0.551,0.051-0.793c0.034-0.242,0.084-0.504,0.152-0.785h1.57v0.648
		c0,0.359,0.022,0.677,0.066,0.953c0.044,0.276,0.117,0.509,0.219,0.699s0.237,0.333,0.406,0.43
		c0.169,0.097,0.376,0.145,0.621,0.145c0.385,0,0.68-0.105,0.883-0.316s0.305-0.52,0.305-0.926c0-0.208-0.015-0.399-0.043-0.574
		c-0.029-0.175-0.078-0.348-0.148-0.52s-0.166-0.353-0.285-0.543c-0.12-0.19-0.273-0.402-0.461-0.637l-2.109-2.508
		C1.477,19.3,1.188,18.817,0.984,18.33S0.68,17.323,0.68,16.771c0-0.442,0.069-0.849,0.207-1.219
		c0.138-0.37,0.337-0.688,0.598-0.957c0.26-0.269,0.582-0.477,0.965-0.625s0.816-0.223,1.301-0.223c0.588,0,1.079,0.083,1.473,0.25
		c0.393,0.167,0.707,0.386,0.941,0.656s0.399,0.574,0.496,0.91c0.096,0.336,0.145,0.673,0.145,1.012
		c0,0.286-0.022,0.551-0.066,0.793c-0.044,0.242-0.095,0.509-0.152,0.801H5.023v-0.633c0-0.708-0.102-1.251-0.305-1.629
		s-0.534-0.566-0.992-0.566c-0.38,0-0.664,0.105-0.852,0.316s-0.281,0.493-0.281,0.848c0,0.188,0.014,0.356,0.043,0.508
		c0.028,0.151,0.07,0.29,0.125,0.418s0.121,0.251,0.199,0.371s0.167,0.245,0.266,0.375l2.352,2.844
		c0.427,0.558,0.755,1.093,0.984,1.605c0.229,0.513,0.344,1.056,0.344,1.629c0,0.474-0.074,0.901-0.223,1.281
		s-0.361,0.703-0.637,0.969c-0.276,0.266-0.609,0.47-1,0.613s-0.831,0.215-1.32,0.215c-0.604,0-1.105-0.081-1.504-0.242
		s-0.716-0.375-0.953-0.641c-0.237-0.266-0.404-0.567-0.5-0.906C0.673,25.206,0.625,24.86,0.625,24.506z"/>
	<path fill="#FFFFFF" d="M8.5,16.451h1.977v8.086c0,0.474,0.073,0.804,0.219,0.988c0.146,0.185,0.359,0.277,0.641,0.277
		c0.198,0,0.391-0.055,0.578-0.164s0.356-0.266,0.508-0.469v-8.719h1.977v10.758h-1.508l-0.195-1.148h-0.008
		c-0.156,0.245-0.322,0.449-0.496,0.613c-0.175,0.164-0.357,0.294-0.547,0.391c-0.19,0.097-0.384,0.165-0.582,0.207
		c-0.198,0.042-0.396,0.062-0.594,0.062c-0.63,0-1.116-0.219-1.457-0.656C8.67,26.24,8.5,25.579,8.5,24.693V16.451z"/>
	<path fill="#FFFFFF" d="M18.438,27.818v2.867h-1.977V16.451h1.547l0.18,1.133c0.088-0.146,0.194-0.294,0.316-0.445
		c0.122-0.151,0.266-0.285,0.43-0.402s0.349-0.214,0.555-0.289c0.206-0.075,0.436-0.113,0.691-0.113
		c0.109,0,0.241,0.011,0.395,0.031c0.153,0.021,0.312,0.073,0.477,0.156s0.328,0.207,0.492,0.371s0.31,0.39,0.438,0.676
		c0.127,0.286,0.231,0.644,0.312,1.07c0.081,0.427,0.121,0.945,0.121,1.555v3.258c0,0.609-0.041,1.128-0.121,1.555
		c-0.081,0.427-0.187,0.784-0.316,1.07c-0.13,0.286-0.279,0.513-0.445,0.68c-0.167,0.167-0.336,0.292-0.508,0.375
		s-0.339,0.137-0.5,0.16c-0.162,0.023-0.302,0.035-0.422,0.035c-0.417,0-0.765-0.081-1.043-0.242
		c-0.279-0.161-0.507-0.356-0.684-0.586L18.438,27.818z M18.438,25.014c0.042,0.104,0.092,0.203,0.152,0.297
		c0.06,0.094,0.13,0.177,0.211,0.25c0.081,0.073,0.172,0.132,0.273,0.176s0.22,0.066,0.355,0.066c0.146,0,0.278-0.027,0.398-0.082
		c0.12-0.055,0.224-0.153,0.312-0.297c0.088-0.144,0.157-0.343,0.207-0.598c0.049-0.255,0.074-0.583,0.074-0.984v-4.117
		c0-0.401-0.025-0.728-0.074-0.98c-0.05-0.253-0.117-0.452-0.203-0.598s-0.189-0.245-0.309-0.297
		c-0.12-0.052-0.253-0.078-0.398-0.078c-0.25,0-0.455,0.074-0.613,0.223c-0.159,0.148-0.288,0.321-0.387,0.52V25.014z"/>
	<path fill="#FFFFFF" d="M26.172,27.818v2.867h-1.977V16.451h1.547l0.18,1.133c0.088-0.146,0.194-0.294,0.316-0.445
		c0.122-0.151,0.266-0.285,0.43-0.402s0.349-0.214,0.555-0.289c0.206-0.075,0.436-0.113,0.691-0.113
		c0.109,0,0.241,0.011,0.395,0.031c0.153,0.021,0.312,0.073,0.477,0.156s0.328,0.207,0.492,0.371s0.31,0.39,0.438,0.676
		c0.127,0.286,0.231,0.644,0.312,1.07c0.081,0.427,0.121,0.945,0.121,1.555v3.258c0,0.609-0.041,1.128-0.121,1.555
		c-0.081,0.427-0.187,0.784-0.316,1.07c-0.13,0.286-0.279,0.513-0.445,0.68c-0.167,0.167-0.336,0.292-0.508,0.375
		s-0.339,0.137-0.5,0.16c-0.162,0.023-0.302,0.035-0.422,0.035c-0.417,0-0.765-0.081-1.043-0.242
		c-0.279-0.161-0.507-0.356-0.684-0.586L26.172,27.818z M26.172,25.014c0.042,0.104,0.092,0.203,0.152,0.297
		c0.06,0.094,0.13,0.177,0.211,0.25c0.081,0.073,0.172,0.132,0.273,0.176s0.22,0.066,0.355,0.066c0.146,0,0.278-0.027,0.398-0.082
		c0.12-0.055,0.224-0.153,0.312-0.297c0.088-0.144,0.157-0.343,0.207-0.598c0.049-0.255,0.074-0.583,0.074-0.984v-4.117
		c0-0.401-0.025-0.728-0.074-0.98c-0.05-0.253-0.117-0.452-0.203-0.598s-0.189-0.245-0.309-0.297
		c-0.12-0.052-0.253-0.078-0.398-0.078c-0.25,0-0.455,0.074-0.613,0.223c-0.159,0.148-0.288,0.321-0.387,0.52V25.014z"/>
	<path fill="#FFFFFF" d="M34.641,27.326c-0.229,0-0.462-0.019-0.699-0.055c-0.237-0.036-0.466-0.112-0.688-0.227
		c-0.222-0.114-0.43-0.278-0.625-0.492s-0.366-0.495-0.512-0.844c-0.146-0.349-0.261-0.778-0.344-1.289
		c-0.083-0.511-0.125-1.12-0.125-1.828v-1.688c0-0.698,0.043-1.296,0.129-1.793s0.203-0.915,0.352-1.254s0.321-0.608,0.52-0.809
		c0.198-0.2,0.407-0.354,0.629-0.461c0.221-0.106,0.449-0.177,0.684-0.211s0.463-0.051,0.688-0.051c0.213,0,0.435,0.016,0.664,0.047
		c0.229,0.031,0.453,0.098,0.672,0.199s0.426,0.253,0.621,0.453s0.367,0.47,0.516,0.809s0.266,0.759,0.352,1.262
		s0.129,1.105,0.129,1.809v1.688c0,0.698-0.044,1.3-0.133,1.805c-0.089,0.505-0.208,0.933-0.359,1.281
		c-0.151,0.349-0.326,0.632-0.523,0.848c-0.198,0.216-0.406,0.384-0.625,0.504s-0.441,0.199-0.668,0.238
		S34.849,27.326,34.641,27.326z M34.656,25.803c0.177,0,0.327-0.046,0.449-0.137c0.122-0.091,0.221-0.241,0.297-0.449
		c0.075-0.208,0.13-0.483,0.164-0.824c0.034-0.341,0.051-0.765,0.051-1.27v-2.648c0-0.505-0.017-0.93-0.051-1.273
		c-0.034-0.344-0.089-0.621-0.164-0.832c-0.076-0.211-0.175-0.363-0.297-0.457c-0.123-0.094-0.272-0.141-0.449-0.141
		c-0.188,0-0.345,0.047-0.473,0.141c-0.128,0.094-0.233,0.246-0.316,0.457c-0.083,0.211-0.144,0.488-0.18,0.832
		c-0.037,0.344-0.055,0.769-0.055,1.273v2.648c0,0.505,0.018,0.929,0.055,1.27c0.036,0.341,0.096,0.616,0.18,0.824
		c0.083,0.208,0.188,0.358,0.316,0.449C34.311,25.757,34.469,25.803,34.656,25.803z"/>
	<path fill="#FFFFFF" d="M39.352,16.451h1.445l0.172,1.094c0.219-0.406,0.47-0.711,0.754-0.914c0.284-0.203,0.574-0.305,0.871-0.305
		c0.567,0,0.987,0.175,1.258,0.523c0.271,0.349,0.406,0.872,0.406,1.57c0,0.089-0.007,0.194-0.02,0.316
		c-0.013,0.122-0.031,0.25-0.055,0.383s-0.052,0.266-0.086,0.398c-0.034,0.133-0.069,0.254-0.105,0.363h-1.375v-1
		c0-0.219-0.015-0.398-0.043-0.539c-0.029-0.141-0.066-0.254-0.113-0.34s-0.102-0.146-0.164-0.18s-0.13-0.051-0.203-0.051
		c-0.156,0-0.301,0.051-0.434,0.152s-0.244,0.243-0.332,0.426v8.859h-1.977V16.451z"/>
	<path fill="#FFFFFF" d="M45.734,17.857h-0.836v-1.406h1.008l0.398-2.789h1.406v2.789h1.719v1.406h-1.719v6.844
		c0,0.234,0.022,0.423,0.066,0.566c0.044,0.144,0.105,0.255,0.184,0.336s0.169,0.134,0.273,0.16
		c0.104,0.026,0.213,0.039,0.328,0.039c0.192,0,0.363-0.023,0.512-0.07s0.29-0.112,0.426-0.195v1.094
		c-0.115,0.141-0.238,0.255-0.371,0.344s-0.27,0.16-0.41,0.215s-0.284,0.093-0.43,0.113c-0.146,0.021-0.289,0.031-0.43,0.031
		c-0.276,0-0.542-0.036-0.797-0.109c-0.255-0.073-0.482-0.212-0.68-0.418c-0.198-0.206-0.355-0.491-0.473-0.855
		s-0.176-0.839-0.176-1.422V17.857z"/>
</g>
</svg>
