<?xml version="1.0" encoding="utf-8"?>
<!-- Generator: Adobe Illustrator 16.0.4, SVG Export Plug-In . SVG Version: 6.00 Build 0)  -->
<!DOCTYPE svg PUBLIC "-//W3C//DTD SVG 1.1//EN" "http://www.w3.org/Graphics/SVG/1.1/DTD/svg11.dtd">
<svg version="1.1" id="GLYPHS" xmlns="http://www.w3.org/2000/svg" xmlns:xlink="http://www.w3.org/1999/xlink" x="0px" y="0px"
	 width="50px" height="42px" viewBox="0 0 50 42" enable-background="new 0 0 50 42" xml:space="preserve">
<g>
	<path fill="#FFFFFF" d="M2.609,13.865h2.328l2.469,13.344H5.359l-0.367-2.391H2.555l-0.352,2.391H0.148L2.609,13.865z
		 M4.758,23.295L3.82,16.646H3.734l-0.945,6.648H4.758z"/>
	<path fill="#FFFFFF" d="M11.078,27.326c-0.906,0-1.598-0.372-2.074-1.117s-0.715-1.88-0.715-3.406v-2.031
		c0-0.683,0.049-1.267,0.148-1.754c0.099-0.487,0.23-0.896,0.395-1.227s0.352-0.593,0.562-0.785s0.428-0.34,0.652-0.441
		c0.224-0.102,0.445-0.167,0.664-0.195s0.419-0.043,0.602-0.043c0.364,0,0.698,0.048,1,0.145c0.302,0.097,0.562,0.242,0.781,0.438
		s0.388,0.441,0.508,0.738c0.12,0.297,0.18,0.646,0.18,1.047c0,0.25-0.012,0.465-0.035,0.645s-0.056,0.353-0.098,0.52H12.07v-0.359
		c0-0.542-0.064-0.965-0.191-1.27c-0.128-0.305-0.337-0.457-0.629-0.457c-0.162,0-0.302,0.038-0.422,0.113
		c-0.12,0.075-0.22,0.204-0.301,0.387c-0.081,0.183-0.141,0.427-0.18,0.734s-0.059,0.692-0.059,1.156v3.055
		c0,0.469,0.016,0.867,0.047,1.195s0.086,0.595,0.164,0.801s0.182,0.355,0.312,0.449c0.13,0.094,0.292,0.141,0.484,0.141
		c0.099,0,0.195-0.024,0.289-0.074s0.176-0.132,0.246-0.246s0.127-0.267,0.172-0.457c0.044-0.19,0.066-0.426,0.066-0.707v-0.336
		h1.703v0.414c0,1.021-0.226,1.765-0.676,2.23C12.647,27.093,11.974,27.326,11.078,27.326z"/>
	<path fill="#FFFFFF" d="M17.883,27.326c-0.906,0-1.598-0.372-2.074-1.117s-0.715-1.88-0.715-3.406v-2.031
		c0-0.683,0.049-1.267,0.148-1.754c0.099-0.487,0.23-0.896,0.395-1.227s0.352-0.593,0.562-0.785s0.428-0.34,0.652-0.441
		c0.224-0.102,0.445-0.167,0.664-0.195s0.419-0.043,0.602-0.043c0.364,0,0.698,0.048,1,0.145c0.302,0.097,0.562,0.242,0.781,0.438
		s0.388,0.441,0.508,0.738c0.12,0.297,0.18,0.646,0.18,1.047c0,0.25-0.012,0.465-0.035,0.645s-0.056,0.353-0.098,0.52h-1.578v-0.359
		c0-0.542-0.064-0.965-0.191-1.27c-0.128-0.305-0.337-0.457-0.629-0.457c-0.162,0-0.302,0.038-0.422,0.113
		c-0.12,0.075-0.22,0.204-0.301,0.387c-0.081,0.183-0.141,0.427-0.18,0.734s-0.059,0.692-0.059,1.156v3.055
		c0,0.469,0.016,0.867,0.047,1.195s0.086,0.595,0.164,0.801s0.182,0.355,0.312,0.449c0.13,0.094,0.292,0.141,0.484,0.141
		c0.099,0,0.195-0.024,0.289-0.074s0.176-0.132,0.246-0.246s0.127-0.267,0.172-0.457c0.044-0.19,0.066-0.426,0.066-0.707v-0.336
		h1.703v0.414c0,1.021-0.226,1.765-0.676,2.23C19.452,27.093,18.778,27.326,17.883,27.326z"/>
	<path fill="#FFFFFF" d="M24.891,27.326c-0.229,0-0.462-0.019-0.699-0.055c-0.237-0.036-0.466-0.112-0.688-0.227
		c-0.222-0.114-0.43-0.278-0.625-0.492s-0.366-0.495-0.512-0.844c-0.146-0.349-0.261-0.778-0.344-1.289
		c-0.083-0.511-0.125-1.12-0.125-1.828v-1.688c0-0.698,0.043-1.296,0.129-1.793s0.203-0.915,0.352-1.254s0.321-0.608,0.52-0.809
		c0.198-0.2,0.407-0.354,0.629-0.461c0.221-0.106,0.449-0.177,0.684-0.211s0.463-0.051,0.688-0.051c0.213,0,0.435,0.016,0.664,0.047
		c0.229,0.031,0.453,0.098,0.672,0.199s0.426,0.253,0.621,0.453s0.367,0.47,0.516,0.809s0.266,0.759,0.352,1.262
		s0.129,1.105,0.129,1.809v1.688c0,0.698-0.044,1.3-0.133,1.805c-0.089,0.505-0.208,0.933-0.359,1.281
		c-0.151,0.349-0.326,0.632-0.523,0.848c-0.198,0.216-0.406,0.384-0.625,0.504s-0.441,0.199-0.668,0.238
		S25.099,27.326,24.891,27.326z M24.906,25.803c0.177,0,0.327-0.046,0.449-0.137c0.122-0.091,0.221-0.241,0.297-0.449
		c0.075-0.208,0.13-0.483,0.164-0.824c0.034-0.341,0.051-0.765,0.051-1.27v-2.648c0-0.505-0.017-0.93-0.051-1.273
		c-0.034-0.344-0.089-0.621-0.164-0.832c-0.076-0.211-0.175-0.363-0.297-0.457c-0.123-0.094-0.272-0.141-0.449-0.141
		c-0.188,0-0.345,0.047-0.473,0.141c-0.128,0.094-0.233,0.246-0.316,0.457c-0.083,0.211-0.144,0.488-0.18,0.832
		c-0.037,0.344-0.055,0.769-0.055,1.273v2.648c0,0.505,0.018,0.929,0.055,1.27c0.036,0.341,0.096,0.616,0.18,0.824
		c0.083,0.208,0.188,0.358,0.316,0.449C24.561,25.757,24.719,25.803,24.906,25.803z"/>
	<path fill="#FFFFFF" d="M29.617,16.451h1.977v8.086c0,0.474,0.073,0.804,0.219,0.988c0.146,0.185,0.359,0.277,0.641,0.277
		c0.198,0,0.391-0.055,0.578-0.164s0.356-0.266,0.508-0.469v-8.719h1.977v10.758h-1.508l-0.195-1.148h-0.008
		c-0.156,0.245-0.322,0.449-0.496,0.613c-0.175,0.164-0.357,0.294-0.547,0.391c-0.19,0.097-0.384,0.165-0.582,0.207
		c-0.198,0.042-0.396,0.062-0.594,0.062c-0.63,0-1.116-0.219-1.457-0.656c-0.341-0.438-0.512-1.099-0.512-1.984V16.451z"/>
	<path fill="#FFFFFF" d="M37.578,16.451h1.523l0.18,1.148v0.008c0.156-0.245,0.324-0.449,0.504-0.613s0.366-0.296,0.559-0.395
		c0.192-0.099,0.389-0.169,0.59-0.211c0.2-0.042,0.399-0.062,0.598-0.062c0.63,0,1.116,0.22,1.457,0.66
		c0.341,0.44,0.512,1.101,0.512,1.98v8.242h-1.977v-8.172c0-0.474-0.073-0.804-0.219-0.988c-0.146-0.185-0.359-0.277-0.641-0.277
		c-0.198,0-0.395,0.065-0.59,0.195s-0.369,0.31-0.52,0.539v8.703h-1.977V16.451z"/>
	<path fill="#FFFFFF" d="M45.773,17.857h-0.836v-1.406h1.008l0.398-2.789h1.406v2.789h1.719v1.406H47.75v6.844
		c0,0.234,0.022,0.423,0.066,0.566c0.044,0.144,0.105,0.255,0.184,0.336s0.169,0.134,0.273,0.16
		c0.104,0.026,0.213,0.039,0.328,0.039c0.192,0,0.363-0.023,0.512-0.07s0.29-0.112,0.426-0.195v1.094
		c-0.115,0.141-0.238,0.255-0.371,0.344s-0.27,0.16-0.41,0.215s-0.284,0.093-0.43,0.113c-0.146,0.021-0.289,0.031-0.43,0.031
		c-0.276,0-0.542-0.036-0.797-0.109c-0.255-0.073-0.482-0.212-0.68-0.418c-0.198-0.206-0.355-0.491-0.473-0.855
		s-0.176-0.839-0.176-1.422V17.857z"/>
</g>
</svg>
