<?xml version="1.0" encoding="utf-8"?>
<!-- Generator: Adobe Illustrator 16.0.4, SVG Export Plug-In . SVG Version: 6.00 Build 0)  -->
<!DOCTYPE svg PUBLIC "-//W3C//DTD SVG 1.1//EN" "http://www.w3.org/Graphics/SVG/1.1/DTD/svg11.dtd">
<svg version="1.1" id="Layer_1" xmlns="http://www.w3.org/2000/svg" xmlns:xlink="http://www.w3.org/1999/xlink" x="0px" y="0px"
	 width="287.573px" height="91.18px" viewBox="0.586 -0.001 287.573 91.18" enable-background="new 0.586 -0.001 287.573 91.18"
	 xml:space="preserve">
<path fill="#FFFFFF" d="M0.586,90.226V60.5h4.871v11.945h24.964v5.834H5.457v11.947H0.586z"/>
<path fill="#FFFFFF" d="M1.28,33.551v-5.698h29.141v5.698H17.768v17.185h12.653v5.699H1.28v-5.699h11.73V33.551H1.28z"/>
<path fill="#FFFFFF" d="M30.421,22.844H1.28V0.299h4.758v16.824h6.993V1.543h4.758v15.58h7.875V0.299h4.758V22.844z"/>
<polygon fill="#FFFFFF" points="217.96,-0.001 288.159,-0.001 288.159,13.769 261.849,13.769 261.849,91.179 244.218,91.179 
	244.218,13.769 217.96,13.769 "/>
<polygon fill="#FFFFFF" points="36.597,91.179 36.597,0 52.441,0 82.423,35.961 112.374,0 128.114,0 128.114,91.179 110.483,91.179 
	110.483,27.149 109.964,27.149 83.593,59.26 81.113,59.26 54.744,27.149 54.224,27.149 54.224,91.179 "/>
<polygon fill="#FFFFFF" points="145.701,0 204.641,0 204.641,13.77 163.321,13.77 163.321,37.72 202.881,37.72 202.881,51.5 
	163.321,51.5 163.321,77.41 205.551,77.41 205.551,91.179 145.701,91.179 "/>
</svg>
