<?xml version="1.0" encoding="utf-8"?>
<!-- Generator: Adobe Illustrator 16.0.4, SVG Export Plug-In . SVG Version: 6.00 Build 0)  -->
<!DOCTYPE svg PUBLIC "-//W3C//DTD SVG 1.1//EN" "http://www.w3.org/Graphics/SVG/1.1/DTD/svg11.dtd">
<svg version="1.1" id="Layer_1" xmlns="http://www.w3.org/2000/svg" xmlns:xlink="http://www.w3.org/1999/xlink" x="0px" y="0px"
	 width="542.41px" height="259.263px" viewBox="0 0 542.41 259.263" enable-background="new 0 0 542.41 259.263"
	 xml:space="preserve">
<path fill="#808184" d="M180.706,98.991h7.945c3.336,0,6.062,1.032,7.849,2.819c1.646,1.646,2.585,4.089,2.585,7.051v0.142
	c0,4.981-2.678,8.038-6.486,9.309l7.333,13.585h-3.76l-6.864-12.833c-0.422,0.047-0.846,0.047-1.269,0.047h-4.043v12.786h-3.29
	V98.991L180.706,98.991z M187.662,116.101c5.83,0,8.18-2.916,8.18-7.053v-0.047c0-4.606-2.868-6.957-7.426-6.957h-4.42v14.057
	H187.662z M207.236,98.991h15.889v3.055h-12.598v11.704h11.328v3.057h-11.328v12.033h12.785v3.057h-16.076V98.991L207.236,98.991z
	 M230.815,98.991h3.291v29.849h11.516v3.057h-14.807V98.991z M301.259,98.991l-7.852,15.841l8.416,17.062h-3.666l-6.771-14.243
	l-6.676,14.243h-3.572l8.367-16.972l-7.85-15.934h3.666l6.109,13.113l6.205-13.113L301.259,98.991L301.259,98.991z M0,98.991h7.945
	c3.337,0,6.063,1.032,7.849,2.819c1.646,1.646,2.586,4.089,2.586,7.051v0.142c0,4.981-2.679,8.038-6.487,9.309l7.333,13.585h-3.76
	l-6.863-12.833c-0.423,0.047-0.847,0.047-1.27,0.047H3.291v12.786H0V98.991z M6.957,116.101c5.829,0,8.18-2.916,8.18-7.053v-0.047
	c0-4.606-2.868-6.957-7.427-6.957H3.291v14.057H6.957z M26.663,98.991h3.291v32.903h-3.291V98.991z M39.404,98.991h3.195
	l13.21,25.336V98.991h3.196v32.903h-2.867L42.599,105.9v25.995h-3.195V98.991z M66.061,128.37l2.068-2.635
	c2.021,1.976,4.324,3.526,7.098,3.526c3.431,0,5.687-2.444,5.687-5.453v-0.095c0-2.303-0.987-4.137-5.828-6.957
	c-6.016-3.479-7.71-6.017-7.71-9.776v-0.096c0-4.699,3.62-8.317,8.838-8.317c2.679,0,5.547,0.938,7.991,3.29l-2.022,2.585
	c-1.786-1.691-3.853-2.82-6.109-2.82c-3.244,0-5.36,2.257-5.36,4.983v0.046c0,2.585,1.175,4.186,6.252,7.191
	c5.969,3.525,7.286,6.157,7.286,9.777v0.094c0,4.89-3.855,8.604-8.978,8.604C72.078,132.318,69.022,131.236,66.061,128.37
	 M91.817,98.991h15.888v3.055H95.107v11.704h11.329v3.057H95.107v12.033h12.786v3.057H91.817V98.991z M375.49,98.991h7.943
	c3.338,0,6.063,1.032,7.852,2.819c1.646,1.646,2.586,4.089,2.586,7.051v0.142c0,4.981-2.682,8.038-6.488,9.309l7.334,13.585h-3.76
	l-6.863-12.833c-0.424,0.047-0.848,0.047-1.27,0.047h-4.045v12.786h-3.289V98.991z M382.445,116.101c5.83,0,8.182-2.916,8.182-7.053
	v-0.047c0-4.606-2.867-6.957-7.426-6.957h-4.421v14.057H382.445z M402.019,98.991h15.892v3.055H405.31v11.704h11.328v3.057H405.31
	v12.033h12.785v3.057h-16.076V98.991z M425.599,98.991h15.56v3.055h-12.271v12.176h11v3.056h-11v14.619h-3.289V98.991
	L425.599,98.991z M448.507,98.991h7.943c3.338,0,6.062,1.032,7.85,2.819c1.646,1.646,2.586,4.089,2.586,7.051v0.142
	c0,4.981-2.68,8.038-6.485,9.309l7.334,13.585h-3.763l-6.86-12.833c-0.424,0.047-0.849,0.047-1.271,0.047h-4.043v12.786h-3.289
	L448.507,98.991L448.507,98.991z M455.462,116.101c5.83,0,8.18-2.916,8.18-7.053v-0.047c0-4.606-2.864-6.957-7.426-6.957h-4.42
	v14.057H455.462z M475.039,98.991h15.889v3.055h-12.6v11.704h11.33v3.057h-11.33v12.033h12.787v3.057h-16.076V98.991z
	 M497.494,128.37l2.065-2.635c2.021,1.976,4.326,3.526,7.101,3.526c3.432,0,5.688-2.444,5.688-5.453v-0.095
	c0-2.303-0.985-4.137-5.828-6.957c-6.018-3.479-7.711-6.017-7.711-9.776v-0.096c0-4.699,3.621-8.317,8.839-8.317
	c2.682,0,5.547,0.938,7.989,3.29l-2.02,2.585c-1.787-1.691-3.855-2.82-6.109-2.82c-3.244,0-5.358,2.257-5.358,4.983v0.046
	c0,2.585,1.176,4.186,6.252,7.191c5.969,3.525,7.284,6.157,7.284,9.777v0.094c0,4.89-3.854,8.604-8.979,8.604
	C503.509,132.318,500.455,131.236,497.494,128.37 M523.248,98.991h3.291v14.807h12.363V98.991h3.338v32.903h-3.338v-15.042h-12.363
	v15.042h-3.291V98.991z M274.805,131.885l-9.775-33.084h-3.431l-9.728,33.084h3.243l8.177-28.195l8.083,28.195H274.805z"/>
<path fill="#729DA3" d="M144.322,137.974h-3.086v-43.8h3.086V137.974z M341.919,94.174h-3.086v43.801h3.086V94.174z"/>
<path fill="#729DA3" d="M0.765,0.417h20.684c7.626,0,13.997,2.193,18.28,6.479c3.866,3.864,6.06,9.609,6.06,17.131v0.629
	c0,10.445-4.701,16.923-11.178,20.579L47.46,73.542H31.895L20.926,48.785h-6.163v24.757H0.765V0.417z M20.299,36.354
	c7.626,0,11.492-4.598,11.492-11.598c0-7.729-4.179-11.49-11.805-11.49h-5.223v23.088H20.299z"/>
<polygon fill="#729DA3" points="61.516,0.417 99.54,0.417 99.54,13.371 75.409,13.371 75.409,30.293 96.72,30.293 96.72,43.248 
	75.409,43.248 75.409,60.588 99.958,60.588 99.958,73.542 61.516,73.542 "/>
<path fill="#808184" d="M112.302,67.065l4.805-4.908c2.716,3.76,5.328,5.223,8.775,5.223c5.223,0,8.774-3.76,8.774-11.597V0.417
	h7.313v55.68c0,6.162-1.671,10.864-4.701,13.788c-2.924,3.031-6.686,4.389-11.49,4.389
	C120.345,74.273,115.331,71.662,112.302,67.065"/>
<path fill="#808184" d="M161.677,50.037V0.417h7.208v49.726c0,11.491,5.432,17.654,14.206,17.654
	c8.671,0,14.103-5.955,14.103-17.445V0.417h7.313v49.518c0,15.877-8.566,24.653-21.52,24.653
	C170.242,74.587,161.677,65.811,161.677,50.037"/>
<polygon fill="#808184" points="220.067,0.417 227.693,0.417 244.197,61.736 260.807,0.417 268.329,0.417 247.645,73.959 
	240.542,73.959 "/>
<polygon fill="#808184" points="284.128,0.417 319.438,0.417 319.438,7.208 291.441,7.208 291.441,33.219 316.619,33.219 
	316.619,40.008 291.441,40.008 291.441,66.751 319.855,66.751 319.855,73.542 284.128,73.542 "/>
<polygon fill="#808184" points="336.189,0.417 343.292,0.417 372.648,56.722 372.648,0.417 379.751,0.417 379.751,73.542 
	373.378,73.542 343.292,15.773 343.292,73.542 336.189,73.542 "/>
<polygon fill="#808184" points="467.732,7.208 451.854,7.208 451.854,0.417 491.027,0.417 491.027,7.208 475.042,7.208 
	475.042,73.542 467.732,73.542 "/>
<polygon fill="#808184" points="506.681,0.417 541.992,0.417 541.992,7.208 513.994,7.208 513.994,33.219 539.169,33.219 
	539.169,40.008 513.994,40.008 513.994,66.751 542.41,66.751 542.41,73.542 506.681,73.542 "/>
<polygon fill="#808184" points="446.583,73.542 424.853,0 417.228,0 395.604,73.542 402.81,73.542 420.99,10.865 438.957,73.542 "/>
<path fill="#729DA3" d="M100.012,184.112v-1.104c0-10.609,4.992-16.801,12.241-16.801c7.248,0,12.193,6.19,12.193,16.752v1.104
	c0,10.562-4.993,16.803-12.242,16.803C104.956,200.866,100.012,194.673,100.012,184.112 M117.869,183.872v-0.623
	c0-7.586-2.448-11.139-5.665-11.139c-3.216,0-5.616,3.505-5.616,11.09v0.624c0,7.585,2.448,11.138,5.665,11.138
	C115.469,194.962,117.869,191.458,117.869,183.872"/>
<path fill="none" stroke="#729DA3" d="M100.012,184.112v-1.104c0-10.609,4.992-16.801,12.241-16.801
	c7.248,0,12.193,6.19,12.193,16.752v1.104c0,10.562-4.993,16.803-12.242,16.803C104.956,200.866,100.012,194.673,100.012,184.112z
	 M117.869,183.872v-0.623c0-7.586-2.448-11.139-5.665-11.139c-3.216,0-5.616,3.505-5.616,11.09v0.624
	c0,7.585,2.448,11.138,5.665,11.138C115.469,194.962,117.869,191.458,117.869,183.872z"/>
<polygon fill="#729DA3" points="129.916,166.735 135.869,166.735 145.421,185.073 145.421,166.735 151.709,166.735 151.709,200.339 
	146.141,200.339 136.205,181.232 136.205,200.339 129.916,200.339 "/>
<polygon fill="none" stroke="#729DA3" points="129.916,166.735 135.869,166.735 145.421,185.073 145.421,166.735 151.709,166.735 
	151.709,200.339 146.141,200.339 136.205,181.232 136.205,200.339 129.916,200.339 "/>
<polygon fill="#729DA3" points="158.091,166.735 175.565,166.735 175.565,172.687 164.475,172.687 164.475,180.464 174.268,180.464 
	174.268,186.417 164.475,186.417 164.475,194.385 175.757,194.385 175.757,200.339 158.091,200.339 "/>
<polygon fill="none" stroke="#729DA3" points="158.091,166.735 175.565,166.735 175.565,172.687 164.475,172.687 164.475,180.464 
	174.268,180.464 174.268,186.417 164.475,186.417 164.475,194.385 175.757,194.385 175.757,200.339 158.091,200.339 "/>
<polygon fill="#729DA3" points="191.21,166.735 208.396,166.735 208.396,172.735 197.643,172.735 197.643,180.704 207.051,180.704 
	207.051,186.704 197.643,186.704 197.643,200.339 191.21,200.339 "/>
<polygon fill="none" stroke="#729DA3" points="191.21,166.735 208.396,166.735 208.396,172.735 197.643,172.735 197.643,180.704 
	207.051,180.704 207.051,186.704 197.643,186.704 197.643,200.339 191.21,200.339 "/>
<path fill="#729DA3" d="M213.433,166.734h9.505c3.505,0,6.433,1.01,8.401,2.979c1.776,1.774,2.784,4.416,2.784,7.873v0.287
	c0,4.801-2.16,7.775-5.136,9.456l5.904,13.011h-7.152l-5.041-11.377h-2.832v11.377h-6.433V166.734L213.433,166.734z M222.41,183.249
	c3.504,0,5.281-2.113,5.281-5.328c0-3.554-1.921-5.281-5.425-5.281h-2.4v10.609H222.41L222.41,183.249z"/>
<path fill="none" stroke="#729DA3" d="M213.433,166.734h9.505c3.505,0,6.433,1.01,8.401,2.979c1.776,1.774,2.784,4.416,2.784,7.873
	v0.287c0,4.801-2.16,7.775-5.136,9.456l5.904,13.011h-7.152l-5.041-11.377h-2.832v11.377h-6.433V166.734L213.433,166.734z
	 M222.41,183.249c3.504,0,5.281-2.113,5.281-5.328c0-3.554-1.921-5.281-5.425-5.281h-2.4v10.609H222.41L222.41,183.249z"/>
<polygon fill="#729DA3" points="239.498,166.735 256.972,166.735 256.972,172.687 245.882,172.687 245.882,180.464 255.675,180.464 
	255.675,186.417 245.882,186.417 245.882,194.385 257.164,194.385 257.164,200.339 239.498,200.339 "/>
<polygon fill="none" stroke="#729DA3" points="239.498,166.735 256.972,166.735 256.972,172.687 245.882,172.687 245.882,180.464 
	255.675,180.464 255.675,186.417 245.882,186.417 245.882,194.385 257.164,194.385 257.164,200.339 239.498,200.339 "/>
<polygon fill="#729DA3" points="262.585,166.735 280.059,166.735 280.059,172.687 268.97,172.687 268.97,180.464 278.764,180.464 
	278.764,186.417 268.97,186.417 268.97,194.385 280.251,194.385 280.251,200.339 262.585,200.339 "/>
<polygon fill="none" stroke="#729DA3" points="262.585,166.735 280.059,166.735 280.059,172.687 268.97,172.687 268.97,180.464 
	278.764,180.464 278.764,186.417 268.97,186.417 268.97,194.385 280.251,194.385 280.251,200.339 262.585,200.339 "/>
<polygon fill="#729DA3" points="295.705,166.735 302.281,166.735 308.186,179.745 314.042,166.735 320.666,166.735 320.666,200.339 
	314.378,200.339 314.378,179.409 308.186,192.753 308.089,192.753 301.896,179.505 301.896,200.339 295.705,200.339 "/>
<polygon fill="none" stroke="#729DA3" points="295.705,166.735 302.281,166.735 308.186,179.745 314.042,166.735 320.666,166.735 
	320.666,200.339 314.378,200.339 314.378,179.409 308.186,192.753 308.089,192.753 301.896,179.505 301.896,200.339 
	295.705,200.339 "/>
<path fill="#729DA3" d="M326.089,184.112v-1.104c0-10.609,4.992-16.801,12.24-16.801s12.192,6.19,12.192,16.752v1.104
	c0,10.562-4.992,16.803-12.242,16.803C331.033,200.866,326.089,194.673,326.089,184.112 M343.947,183.872v-0.623
	c0-7.586-2.449-11.139-5.666-11.139c-3.215,0-5.615,3.505-5.615,11.09v0.624c0,7.585,2.447,11.138,5.664,11.138
	S343.947,191.458,343.947,183.872"/>
<path fill="none" stroke="#729DA3" d="M326.089,184.112v-1.104c0-10.609,4.992-16.801,12.24-16.801s12.192,6.19,12.192,16.752v1.104
	c0,10.562-4.992,16.803-12.242,16.803C331.033,200.866,326.089,194.673,326.089,184.112z M343.947,183.872v-0.623
	c0-7.586-2.449-11.139-5.666-11.139c-3.215,0-5.615,3.505-5.615,11.09v0.624c0,7.585,2.447,11.138,5.664,11.138
	S343.947,191.458,343.947,183.872z"/>
<polygon fill="#729DA3" points="355.994,166.735 361.945,166.735 371.498,185.073 371.498,166.735 377.787,166.735 377.787,200.339 
	372.218,200.339 362.281,181.232 362.281,200.339 355.994,200.339 "/>
<polygon fill="none" stroke="#729DA3" points="355.994,166.735 361.945,166.735 371.498,185.073 371.498,166.735 377.787,166.735 
	377.787,200.339 372.218,200.339 362.281,181.232 362.281,200.339 355.994,200.339 "/>
<polygon fill="#729DA3" points="389.018,172.783 382.63,172.783 382.63,166.734 401.833,166.734 401.833,172.783 395.449,172.783 
	395.449,200.339 389.018,200.339 "/>
<polygon fill="none" stroke="#729DA3" points="389.018,172.783 382.63,172.783 382.63,166.734 401.833,166.734 401.833,172.783 
	395.449,172.783 395.449,200.339 389.018,200.339 "/>
<polygon fill="#729DA3" points="406.679,166.735 413.113,166.735 413.113,180.417 421.322,180.417 421.322,166.735 427.753,166.735 
	427.753,200.339 421.322,200.339 421.322,186.465 413.113,186.465 413.113,200.339 406.679,200.339 "/>
<polygon fill="none" stroke="#729DA3" points="406.679,166.735 413.113,166.735 413.113,180.417 421.322,180.417 421.322,166.735 
	427.753,166.735 427.753,200.339 421.322,200.339 421.322,186.465 413.113,186.465 413.113,200.339 406.679,200.339 "/>
<path fill="#729DA3" d="M434.039,167.694v-0.959h7.49v0.959l-2.113,21.844h-3.312L434.039,167.694z M434.232,193.282h7.057v7.057
	h-7.057V193.282z"/>
<path fill="none" stroke="#729DA3" d="M434.039,167.694v-0.959h7.49v0.959l-2.113,21.844h-3.312L434.039,167.694z M434.232,193.282
	h7.057v7.057h-7.057V193.282z"/>
<line fill="none" stroke="#7D7D7D" stroke-miterlimit="10" x1="55.177" y1="212.949" x2="487.177" y2="212.949"/>
<g>
	<path fill="#838383" d="M112.993,249.232l1.533-1.951c1.498,1.463,3.205,2.612,5.26,2.612c2.543,0,4.215-1.812,4.215-4.041v-0.069
		c0-1.707-0.731-3.065-4.32-5.155c-4.459-2.578-5.713-4.459-5.713-7.246v-0.069c0-3.484,2.682-6.166,6.549-6.166
		c1.986,0,4.111,0.696,5.922,2.438l-1.498,1.916c-1.324-1.255-2.856-2.091-4.529-2.091c-2.403,0-3.971,1.673-3.971,3.693v0.034
		c0,1.916,0.871,3.101,4.633,5.33c4.424,2.612,5.399,4.563,5.399,7.246v0.069c0,3.623-2.856,6.375-6.653,6.375
		C117.452,252.157,115.188,251.357,112.993,249.232z"/>
	<path fill="#838383" d="M130.338,227.459h2.438v24.385h-2.438V227.459z"/>
	<path fill="#838383" d="M136.956,239.896v-0.453c0-7.524,3.901-12.228,9.231-12.228c2.195,0,3.867,0.558,5.539,1.916l-1.394,2.056
		c-1.01-0.976-2.369-1.673-4.111-1.673c-3.797,0-6.793,3.728-6.793,9.963v0.314c0,6.514,2.892,10.067,6.897,10.067
		c1.289,0,2.438-0.384,3.275-0.94v-7.769h-4.668v-2.229h7.002v11.286c-1.463,1.046-3.484,1.882-5.783,1.882
		C140.648,252.088,136.956,247.629,136.956,239.896z"/>
	<path fill="#838383" d="M156.32,227.459h2.369l9.789,18.776v-18.776h2.369v24.385h-2.125l-10.033-19.265v19.265h-2.369V227.459z"/>
	<path fill="#838383" d="M182.234,244.006v-16.547h2.403v16.582c0,3.831,1.812,5.887,4.738,5.887c2.892,0,4.703-1.985,4.703-5.817
		v-16.651h2.438v16.512c0,5.295-2.857,8.222-7.176,8.222C185.09,252.193,182.234,249.266,182.234,244.006z"/>
	<path fill="#838383" d="M201.041,227.459h5.33c4.807,0,7.908,2.891,7.908,7.769v0.069c0,5.017-3.31,7.873-8.047,7.942h-2.752v8.604
		h-2.438V227.459z M206.232,241.01c3.518,0,5.574-2.194,5.574-5.678v-0.035c0-3.623-2.09-5.574-5.539-5.574h-2.787v11.287H206.232z"
		/>
	<path fill="#838383" d="M224.412,227.459h5.783c2.404,0,4.39,0.696,5.678,1.985c1.01,1.045,1.603,2.438,1.603,4.11v0.104
		c0,3.345-1.985,4.947-4.076,5.713c2.752,0.802,4.772,2.544,4.772,5.818v0.139c0,4.111-3.205,6.515-8.082,6.515h-5.678V227.459z
		 M235.037,233.868c0-2.577-1.846-4.18-4.807-4.18h-3.379v8.778h3.066c3.205,0,5.121-1.672,5.121-4.528V233.868z M230.16,240.627
		h-3.31v8.987h3.379c3.344,0,5.504-1.603,5.504-4.424v-0.07C235.733,242.264,233.713,240.627,230.16,240.627z"/>
	<path fill="#838383" d="M241.826,227.459h11.775v2.264h-9.336v8.675h8.396v2.264h-8.396v8.918h9.476v2.265h-11.914V227.459z"/>
	<path fill="#838383" d="M257.464,227.459h11.531v2.264h-9.092v9.022h8.152v2.265h-8.152v10.834h-2.438V227.459z"/>
	<path fill="#838383" d="M271.292,239.93v-0.522c0-7.629,3.414-12.297,8.256-12.297c4.877,0,8.291,4.668,8.291,12.262v0.523
		c0,7.629-3.448,12.297-8.291,12.297C274.706,252.193,271.292,247.525,271.292,239.93z M285.331,239.861v-0.418
		c0-6.306-2.509-10.033-5.783-10.033s-5.748,3.728-5.748,10.033v0.418c0,6.305,2.474,10.032,5.748,10.032
		S285.331,246.165,285.331,239.861z"/>
	<path fill="#838383" d="M291.772,227.459h5.887c2.474,0,4.494,0.766,5.817,2.09c1.22,1.22,1.916,3.03,1.916,5.226v0.104
		c0,3.692-1.985,5.957-4.807,6.897l5.434,10.067h-2.786l-5.086-9.51c-0.313,0.034-0.627,0.034-0.94,0.034h-2.996v9.476h-2.438
		V227.459z M296.928,240.139c4.319,0,6.062-2.159,6.062-5.226v-0.034c0-3.414-2.125-5.156-5.504-5.156h-3.274v10.416H296.928z"/>
	<path fill="#838383" d="M309.396,227.459h11.774v2.264h-9.336v8.675h8.396v2.264h-8.396v8.918h9.475v2.265h-11.913V227.459z"/>
	<path fill="#838383" d="M333.706,250.555c-1.603-1.637-2.647-4.285-2.647-9.58v-0.522c0-8.883,3.101-13.342,7.769-13.342
		c1.707,0,3.031,0.558,4.424,1.533l-1.114,2.055c-0.802-0.627-1.916-1.289-3.379-1.289c-3.17,0-5.121,3.728-5.295,9.929
		c1.01-1.707,2.786-2.752,4.772-2.752c3.204,0,6.096,2.473,6.096,7.42v0.069c0,4.808-2.892,8.117-6.514,8.117
		C336.18,252.193,334.751,251.6,333.706,250.555z M341.893,244.18v-0.069c0-3.449-1.741-5.399-4.041-5.399
		c-2.299,0-4.11,1.95-4.11,5.295v0.104c0,3.344,1.463,5.853,4.11,5.853C340.325,249.963,341.893,247.454,341.893,244.18z"/>
	<path fill="#838383" d="M355.858,224.707h2.091l-10.66,30.934h-2.09L355.858,224.707z"/>
	<path fill="#838383" d="M358.608,249.997l1.323-1.916c1.011,0.976,2.229,1.847,4.216,1.847c2.508,0,4.493-1.951,4.493-5.086v-0.14
		c0-3.274-2.577-4.772-6.062-4.772h-0.209l-0.209-1.567l5.714-8.569h-8.535v-2.334h11.53v1.881l-5.887,8.709
		c3.239,0.522,6.096,2.474,6.096,6.584v0.14c0,4.493-3.065,7.42-6.897,7.42C361.778,252.193,359.932,251.252,358.608,249.997z"/>
	<path fill="#838383" d="M374.038,239.965v-0.558c0-7.873,2.786-12.297,7.211-12.297c4.424,0,7.141,4.39,7.141,12.228v0.558
		c0,7.872-2.717,12.297-7.176,12.297S374.038,247.803,374.038,239.965z M385.917,239.93v-0.487c0-6.479-1.951-10.067-4.703-10.067
		s-4.668,3.518-4.668,9.997v0.488c0,6.479,1.916,10.067,4.703,10.067C384.035,249.928,385.917,246.409,385.917,239.93z"/>
	<path fill="#838383" d="M399.812,224.707h2.091l-10.66,30.934h-2.09L399.812,224.707z"/>
	<path fill="#838383" d="M406.395,230.072l-3.274,1.358l-0.244-2.368l4.076-1.707h1.847v24.489h-2.404V230.072z"/>
	<path fill="#838383" d="M412.628,245.469v-0.174c0-2.961,1.567-5.086,3.797-6.062c-1.847-0.976-3.205-2.892-3.205-5.644v-0.174
		c0-3.832,2.718-6.306,6.026-6.306c3.31,0,6.062,2.474,6.062,6.306v0.174c0,2.752-1.358,4.668-3.239,5.644
		c2.229,0.976,3.797,3.101,3.797,6.062v0.174c0,4.006-2.787,6.724-6.619,6.724C415.415,252.193,412.628,249.475,412.628,245.469z
		 M423.462,245.329v-0.069c0-2.892-1.847-4.946-4.216-4.946c-2.334,0-4.18,2.055-4.18,4.946v0.069c0,2.718,1.637,4.738,4.18,4.738
		C421.824,250.068,423.462,248.047,423.462,245.329z M422.939,233.625v-0.07c0-2.612-1.603-4.319-3.693-4.319
		c-2.09,0-3.692,1.707-3.692,4.319v0.07c0,2.612,1.603,4.633,3.692,4.633C421.337,238.258,422.939,236.238,422.939,233.625z"/>
</g>
</svg>
