<?xml version="1.0" encoding="utf-8"?>
<!-- Generator: Adobe Illustrator 16.0.4, SVG Export Plug-In . SVG Version: 6.00 Build 0)  -->
<!DOCTYPE svg PUBLIC "-//W3C//DTD SVG 1.1//EN" "http://www.w3.org/Graphics/SVG/1.1/DTD/svg11.dtd">
<svg version="1.1" id="Layer_1" xmlns="http://www.w3.org/2000/svg" xmlns:xlink="http://www.w3.org/1999/xlink" x="0px" y="0px"
	 width="542.41px" height="259.264px" viewBox="0 0 542.41 259.264" enable-background="new 0 0 542.41 259.264"
	 xml:space="preserve">
<path fill="#808184" d="M180.706,98.991h7.945c3.336,0,6.062,1.032,7.849,2.819c1.646,1.646,2.585,4.089,2.585,7.051v0.142
	c0,4.981-2.678,8.038-6.486,9.31l7.333,13.585h-3.76l-6.864-12.833c-0.422,0.047-0.846,0.047-1.269,0.047h-4.043v12.786h-3.29
	V98.991L180.706,98.991z M187.662,116.101c5.83,0,8.18-2.916,8.18-7.054v-0.047c0-4.605-2.868-6.957-7.426-6.957h-4.42v14.058
	H187.662z M207.236,98.991h15.889v3.055h-12.598v11.704h11.328v3.058h-11.328v12.032h12.785v3.058h-16.076V98.991L207.236,98.991z
	 M230.815,98.991h3.291v29.849h11.516v3.058h-14.807V98.991z M301.259,98.991l-7.852,15.841l8.416,17.062h-3.666l-6.771-14.243
	l-6.677,14.243h-3.571l8.366-16.973l-7.85-15.934h3.665l6.109,13.113l6.205-13.113L301.259,98.991L301.259,98.991z M0,98.991h7.945
	c3.337,0,6.063,1.032,7.849,2.819c1.646,1.646,2.586,4.089,2.586,7.051v0.142c0,4.981-2.679,8.038-6.487,9.31l7.333,13.585h-3.76
	l-6.863-12.833c-0.423,0.047-0.847,0.047-1.27,0.047H3.291v12.786H0V98.991z M6.957,116.101c5.829,0,8.18-2.916,8.18-7.054v-0.047
	c0-4.605-2.868-6.957-7.427-6.957H3.291v14.058H6.957z M26.663,98.991h3.291v32.903h-3.291V98.991z M39.404,98.991h3.195
	l13.21,25.336V98.991h3.196v32.903h-2.867L42.599,105.9v25.995h-3.195V98.991z M66.061,128.37l2.068-2.635
	c2.021,1.976,4.324,3.525,7.098,3.525c3.431,0,5.687-2.443,5.687-5.452v-0.096c0-2.303-0.987-4.137-5.828-6.957
	c-6.016-3.479-7.71-6.017-7.71-9.775v-0.097c0-4.698,3.62-8.316,8.838-8.316c2.679,0,5.547,0.938,7.991,3.29l-2.022,2.585
	c-1.786-1.691-3.853-2.82-6.109-2.82c-3.244,0-5.36,2.257-5.36,4.983v0.046c0,2.585,1.175,4.186,6.252,7.19
	c5.969,3.525,7.286,6.157,7.286,9.777v0.094c0,4.891-3.855,8.604-8.978,8.604C72.078,132.318,69.022,131.236,66.061,128.37
	 M91.817,98.991h15.888v3.055H95.107v11.704h11.329v3.058H95.107v12.032h12.786v3.058H91.817V98.991z M375.49,98.991h7.943
	c3.338,0,6.062,1.032,7.852,2.819c1.646,1.646,2.586,4.089,2.586,7.051v0.142c0,4.981-2.682,8.038-6.488,9.31l7.334,13.585h-3.76
	l-6.863-12.833c-0.424,0.047-0.848,0.047-1.27,0.047h-4.045v12.786h-3.289V98.991L375.49,98.991z M382.445,116.101
	c5.83,0,8.182-2.916,8.182-7.054v-0.047c0-4.605-2.867-6.957-7.426-6.957h-4.421v14.058H382.445z M402.019,98.991h15.893v3.055
	H405.31v11.704h11.328v3.058H405.31v12.032h12.785v3.058h-16.076V98.991z M425.599,98.991h15.561v3.055h-12.271v12.177h11v3.056h-11
	v14.619h-3.289V98.991L425.599,98.991z M448.507,98.991h7.943c3.338,0,6.062,1.032,7.85,2.819c1.646,1.646,2.586,4.089,2.586,7.051
	v0.142c0,4.981-2.68,8.038-6.484,9.31l7.334,13.585h-3.764l-6.859-12.833c-0.425,0.047-0.85,0.047-1.271,0.047h-4.043v12.786h-3.289
	L448.507,98.991L448.507,98.991z M455.462,116.101c5.83,0,8.18-2.916,8.18-7.054v-0.047c0-4.605-2.863-6.957-7.426-6.957h-4.42
	v14.058H455.462z M475.039,98.991h15.889v3.055h-12.6v11.704h11.33v3.058h-11.33v12.032h12.787v3.058h-16.076V98.991z
	 M497.494,128.37l2.064-2.635c2.021,1.976,4.326,3.525,7.102,3.525c3.432,0,5.688-2.443,5.688-5.452v-0.096
	c0-2.303-0.984-4.137-5.828-6.957c-6.018-3.479-7.711-6.017-7.711-9.775v-0.097c0-4.698,3.621-8.316,8.84-8.316
	c2.682,0,5.547,0.938,7.988,3.29l-2.02,2.585c-1.787-1.691-3.855-2.82-6.109-2.82c-3.244,0-5.357,2.257-5.357,4.983v0.046
	c0,2.585,1.176,4.186,6.252,7.19c5.969,3.525,7.283,6.157,7.283,9.777v0.094c0,4.891-3.854,8.604-8.979,8.604
	C503.509,132.318,500.455,131.236,497.494,128.37 M523.248,98.991h3.291v14.807h12.363V98.991h3.338v32.903h-3.338v-15.042h-12.363
	v15.042h-3.291V98.991z M274.805,131.885l-9.775-33.084h-3.431l-9.728,33.084h3.243l8.177-28.194l8.083,28.194H274.805z"/>
<path fill="#729DA3" d="M144.322,137.974h-3.086V94.174h3.086V137.974z M341.919,94.174h-3.086v43.802h3.086V94.174z"/>
<path fill="#729DA3" d="M0.765,0.417h20.684c7.626,0,13.997,2.193,18.28,6.479c3.866,3.863,6.06,9.608,6.06,17.131v0.629
	c0,10.445-4.701,16.923-11.178,20.579L47.46,73.542H31.895L20.926,48.785h-6.163v24.757H0.765V0.417z M20.299,36.354
	c7.626,0,11.492-4.599,11.492-11.599c0-7.729-4.179-11.489-11.805-11.489h-5.223v23.088H20.299z"/>
<polygon fill="#729DA3" points="61.516,0.417 99.54,0.417 99.54,13.371 75.409,13.371 75.409,30.293 96.72,30.293 96.72,43.248 
	75.409,43.248 75.409,60.588 99.958,60.588 99.958,73.542 61.516,73.542 "/>
<path fill="#808184" d="M112.302,67.065l4.805-4.908c2.716,3.76,5.328,5.223,8.775,5.223c5.223,0,8.774-3.76,8.774-11.597V0.417
	h7.313v55.681c0,6.161-1.671,10.863-4.701,13.787c-2.924,3.031-6.686,4.39-11.49,4.39C120.345,74.273,115.331,71.662,112.302,67.065
	"/>
<path fill="#808184" d="M161.677,50.037V0.417h7.208v49.727c0,11.49,5.432,17.653,14.206,17.653c8.671,0,14.103-5.955,14.103-17.444
	V0.417h7.313v49.519c0,15.877-8.566,24.652-21.52,24.652C170.242,74.587,161.677,65.811,161.677,50.037"/>
<polygon fill="#808184" points="220.067,0.417 227.693,0.417 244.197,61.736 260.807,0.417 268.329,0.417 247.645,73.959 
	240.542,73.959 "/>
<polygon fill="#808184" points="284.128,0.417 319.438,0.417 319.438,7.208 291.441,7.208 291.441,33.219 316.619,33.219 
	316.619,40.008 291.441,40.008 291.441,66.751 319.855,66.751 319.855,73.542 284.128,73.542 "/>
<polygon fill="#808184" points="336.189,0.417 343.292,0.417 372.648,56.722 372.648,0.417 379.751,0.417 379.751,73.542 
	373.378,73.542 343.292,15.773 343.292,73.542 336.189,73.542 "/>
<polygon fill="#808184" points="467.732,7.208 451.854,7.208 451.854,0.417 491.027,0.417 491.027,7.208 475.042,7.208 
	475.042,73.542 467.732,73.542 "/>
<polygon fill="#808184" points="506.681,0.417 541.992,0.417 541.992,7.208 513.994,7.208 513.994,33.219 539.169,33.219 
	539.169,40.008 513.994,40.008 513.994,66.751 542.41,66.751 542.41,73.542 506.681,73.542 "/>
<polygon fill="#808184" points="446.583,73.542 424.853,0 417.228,0 395.604,73.542 402.81,73.542 420.99,10.865 438.957,73.542 "/>
<path fill="#729DA3" d="M100.012,184.112v-1.104c0-10.608,4.992-16.801,12.241-16.801c7.248,0,12.193,6.19,12.193,16.752v1.104
	c0,10.562-4.993,16.803-12.242,16.803C104.956,200.866,100.012,194.673,100.012,184.112 M117.869,183.872v-0.623
	c0-7.586-2.448-11.139-5.665-11.139c-3.216,0-5.616,3.505-5.616,11.09v0.624c0,7.585,2.448,11.138,5.665,11.138
	C115.469,194.962,117.869,191.458,117.869,183.872"/>
<path fill="none" stroke="#729DA3" d="M100.012,184.112v-1.104c0-10.608,4.992-16.801,12.241-16.801
	c7.248,0,12.193,6.19,12.193,16.752v1.104c0,10.562-4.993,16.803-12.242,16.803C104.956,200.866,100.012,194.673,100.012,184.112z
	 M117.869,183.872v-0.623c0-7.586-2.448-11.139-5.665-11.139c-3.216,0-5.616,3.505-5.616,11.09v0.624
	c0,7.585,2.448,11.138,5.665,11.138C115.469,194.962,117.869,191.458,117.869,183.872z"/>
<polygon fill="#729DA3" points="129.916,166.735 135.869,166.735 145.421,185.073 145.421,166.735 151.709,166.735 151.709,200.339 
	146.141,200.339 136.205,181.232 136.205,200.339 129.916,200.339 "/>
<polygon fill="none" stroke="#729DA3" points="129.916,166.735 135.869,166.735 145.421,185.073 145.421,166.735 151.709,166.735 
	151.709,200.339 146.141,200.339 136.205,181.232 136.205,200.339 129.916,200.339 "/>
<polygon fill="#729DA3" points="158.091,166.735 175.565,166.735 175.565,172.687 164.475,172.687 164.475,180.464 174.268,180.464 
	174.268,186.417 164.475,186.417 164.475,194.385 175.757,194.385 175.757,200.339 158.091,200.339 "/>
<polygon fill="none" stroke="#729DA3" points="158.091,166.735 175.565,166.735 175.565,172.687 164.475,172.687 164.475,180.464 
	174.268,180.464 174.268,186.417 164.475,186.417 164.475,194.385 175.757,194.385 175.757,200.339 158.091,200.339 "/>
<polygon fill="#729DA3" points="191.21,166.735 208.396,166.735 208.396,172.735 197.643,172.735 197.643,180.704 207.051,180.704 
	207.051,186.704 197.643,186.704 197.643,200.339 191.21,200.339 "/>
<polygon fill="none" stroke="#729DA3" points="191.21,166.735 208.396,166.735 208.396,172.735 197.643,172.735 197.643,180.704 
	207.051,180.704 207.051,186.704 197.643,186.704 197.643,200.339 191.21,200.339 "/>
<path fill="#729DA3" d="M213.433,166.734h9.505c3.505,0,6.433,1.01,8.401,2.979c1.776,1.774,2.784,4.416,2.784,7.873v0.287
	c0,4.801-2.16,7.775-5.136,9.456l5.904,13.011h-7.152l-5.041-11.377h-2.832v11.377h-6.433V166.734L213.433,166.734z M222.41,183.249
	c3.504,0,5.281-2.113,5.281-5.328c0-3.554-1.921-5.28-5.425-5.28h-2.4v10.608H222.41L222.41,183.249z"/>
<path fill="none" stroke="#729DA3" d="M213.433,166.734h9.505c3.505,0,6.433,1.01,8.401,2.979c1.776,1.774,2.784,4.416,2.784,7.873
	v0.287c0,4.801-2.16,7.775-5.136,9.456l5.904,13.011h-7.152l-5.041-11.377h-2.832v11.377h-6.433V166.734L213.433,166.734z
	 M222.41,183.249c3.504,0,5.281-2.113,5.281-5.328c0-3.554-1.921-5.28-5.425-5.28h-2.4v10.608H222.41L222.41,183.249z"/>
<polygon fill="#729DA3" points="239.498,166.735 256.972,166.735 256.972,172.687 245.882,172.687 245.882,180.464 255.675,180.464 
	255.675,186.417 245.882,186.417 245.882,194.385 257.164,194.385 257.164,200.339 239.498,200.339 "/>
<polygon fill="none" stroke="#729DA3" points="239.498,166.735 256.972,166.735 256.972,172.687 245.882,172.687 245.882,180.464 
	255.675,180.464 255.675,186.417 245.882,186.417 245.882,194.385 257.164,194.385 257.164,200.339 239.498,200.339 "/>
<polygon fill="#729DA3" points="262.585,166.735 280.059,166.735 280.059,172.687 268.97,172.687 268.97,180.464 278.764,180.464 
	278.764,186.417 268.97,186.417 268.97,194.385 280.251,194.385 280.251,200.339 262.585,200.339 "/>
<polygon fill="none" stroke="#729DA3" points="262.585,166.735 280.059,166.735 280.059,172.687 268.97,172.687 268.97,180.464 
	278.764,180.464 278.764,186.417 268.97,186.417 268.97,194.385 280.251,194.385 280.251,200.339 262.585,200.339 "/>
<polygon fill="#729DA3" points="295.705,166.735 302.281,166.735 308.186,179.745 314.042,166.735 320.666,166.735 320.666,200.339 
	314.378,200.339 314.378,179.409 308.186,192.753 308.089,192.753 301.896,179.505 301.896,200.339 295.705,200.339 "/>
<polygon fill="none" stroke="#729DA3" points="295.705,166.735 302.281,166.735 308.186,179.745 314.042,166.735 320.666,166.735 
	320.666,200.339 314.378,200.339 314.378,179.409 308.186,192.753 308.089,192.753 301.896,179.505 301.896,200.339 
	295.705,200.339 "/>
<path fill="#729DA3" d="M326.089,184.112v-1.104c0-10.608,4.992-16.801,12.24-16.801s12.192,6.19,12.192,16.752v1.104
	c0,10.562-4.992,16.803-12.242,16.803C331.033,200.866,326.089,194.673,326.089,184.112 M343.947,183.872v-0.623
	c0-7.586-2.449-11.139-5.666-11.139c-3.215,0-5.615,3.505-5.615,11.09v0.624c0,7.585,2.447,11.138,5.664,11.138
	S343.947,191.458,343.947,183.872"/>
<path fill="none" stroke="#729DA3" d="M326.089,184.112v-1.104c0-10.608,4.992-16.801,12.24-16.801s12.192,6.19,12.192,16.752v1.104
	c0,10.562-4.992,16.803-12.242,16.803C331.033,200.866,326.089,194.673,326.089,184.112z M343.947,183.872v-0.623
	c0-7.586-2.449-11.139-5.666-11.139c-3.215,0-5.615,3.505-5.615,11.09v0.624c0,7.585,2.447,11.138,5.664,11.138
	S343.947,191.458,343.947,183.872z"/>
<polygon fill="#729DA3" points="355.994,166.735 361.945,166.735 371.498,185.073 371.498,166.735 377.787,166.735 377.787,200.339 
	372.218,200.339 362.281,181.232 362.281,200.339 355.994,200.339 "/>
<polygon fill="none" stroke="#729DA3" points="355.994,166.735 361.945,166.735 371.498,185.073 371.498,166.735 377.787,166.735 
	377.787,200.339 372.218,200.339 362.281,181.232 362.281,200.339 355.994,200.339 "/>
<polygon fill="#729DA3" points="389.018,172.783 382.63,172.783 382.63,166.734 401.833,166.734 401.833,172.783 395.449,172.783 
	395.449,200.339 389.018,200.339 "/>
<polygon fill="none" stroke="#729DA3" points="389.018,172.783 382.63,172.783 382.63,166.734 401.833,166.734 401.833,172.783 
	395.449,172.783 395.449,200.339 389.018,200.339 "/>
<polygon fill="#729DA3" points="406.679,166.735 413.113,166.735 413.113,180.417 421.322,180.417 421.322,166.735 427.753,166.735 
	427.753,200.339 421.322,200.339 421.322,186.465 413.113,186.465 413.113,200.339 406.679,200.339 "/>
<polygon fill="none" stroke="#729DA3" points="406.679,166.735 413.113,166.735 413.113,180.417 421.322,180.417 421.322,166.735 
	427.753,166.735 427.753,200.339 421.322,200.339 421.322,186.465 413.113,186.465 413.113,200.339 406.679,200.339 "/>
<path fill="#729DA3" d="M434.039,167.694v-0.959h7.49v0.959l-2.113,21.844h-3.312L434.039,167.694z M434.232,193.282h7.057v7.057
	h-7.057V193.282z"/>
<path fill="none" stroke="#729DA3" d="M434.039,167.694v-0.959h7.49v0.959l-2.113,21.844h-3.312L434.039,167.694z M434.232,193.282
	h7.057v7.057h-7.057V193.282z"/>
<line fill="none" stroke="#7D7D7D" stroke-miterlimit="10" x1="55.177" y1="212.949" x2="487.177" y2="212.949"/>
<g>
	<path fill="#838383" d="M148.005,248.783l1.531-1.949c1.497,1.462,3.202,2.61,5.256,2.61c2.541,0,4.211-1.81,4.211-4.037v-0.069
		c0-1.706-0.731-3.063-4.316-5.151c-4.455-2.576-5.708-4.455-5.708-7.24v-0.069c0-3.48,2.68-6.16,6.543-6.16
		c1.984,0,4.107,0.696,5.917,2.437l-1.497,1.914c-1.323-1.253-2.854-2.089-4.525-2.089c-2.401,0-3.968,1.671-3.968,3.689v0.035
		c0,1.914,0.87,3.098,4.629,5.325c4.42,2.61,5.395,4.56,5.395,7.239v0.07c0,3.619-2.854,6.369-6.648,6.369
		C152.46,251.707,150.198,250.906,148.005,248.783z"/>
	<path fill="#838383" d="M165.339,227.03h2.436v24.363h-2.436V227.03z"/>
	<path fill="#838383" d="M171.952,239.455v-0.452c0-7.518,3.898-12.217,9.223-12.217c2.193,0,3.864,0.557,5.534,1.914l-1.392,2.054
		c-1.009-0.975-2.367-1.671-4.107-1.671c-3.794,0-6.787,3.725-6.787,9.955v0.312c0,6.509,2.889,10.059,6.892,10.059
		c1.288,0,2.436-0.383,3.271-0.939v-7.762h-4.664v-2.228h6.996v11.277c-1.462,1.044-3.48,1.879-5.778,1.879
		C175.642,251.636,171.952,247.181,171.952,239.455z"/>
	<path fill="#838383" d="M191.305,227.03h2.367l9.78,18.76v-18.76h2.367v24.363h-2.123l-10.024-19.247v19.247h-2.367V227.03z"/>
	<path fill="#838383" d="M217.202,243.562V227.03h2.401v16.566c0,3.829,1.81,5.883,4.733,5.883c2.889,0,4.699-1.984,4.699-5.812
		V227.03h2.437v16.497c0,5.291-2.854,8.214-7.17,8.214C220.056,251.741,217.202,248.818,217.202,243.562z"/>
	<path fill="#838383" d="M235.998,227.03h5.325c4.803,0,7.901,2.889,7.901,7.761v0.07c0,5.012-3.307,7.865-8.04,7.936h-2.75v8.597
		h-2.437V227.03z M241.184,240.569c3.515,0,5.569-2.193,5.569-5.674v-0.034c0-3.62-2.088-5.569-5.534-5.569h-2.784v11.277H241.184z"
		/>
	<path fill="#838383" d="M259.353,227.03h5.778c2.401,0,4.385,0.695,5.673,1.983c1.009,1.044,1.601,2.437,1.601,4.107v0.104
		c0,3.341-1.984,4.942-4.072,5.708c2.75,0.8,4.769,2.54,4.769,5.812v0.139c0,4.107-3.203,6.509-8.075,6.509h-5.673V227.03z
		 M269.969,233.433c0-2.575-1.845-4.176-4.803-4.176h-3.376v8.771h3.063c3.202,0,5.116-1.671,5.116-4.524V233.433z M265.096,240.186
		h-3.307v8.979h3.376c3.341,0,5.5-1.601,5.5-4.42v-0.07C270.665,241.822,268.646,240.186,265.096,240.186z"/>
	<path fill="#838383" d="M281.004,241.37l-6.787-14.34h2.68l5.36,11.59l5.36-11.59h2.609l-6.787,14.305v10.059h-2.436V241.37z"/>
	<path fill="#838383" d="M301.714,250.105c-1.601-1.636-2.646-4.28-2.646-9.571v-0.521c0-8.876,3.098-13.331,7.762-13.331
		c1.705,0,3.028,0.557,4.42,1.531l-1.113,2.054c-0.801-0.626-1.914-1.288-3.376-1.288c-3.167,0-5.116,3.725-5.29,9.92
		c1.009-1.705,2.784-2.75,4.768-2.75c3.202,0,6.092,2.472,6.092,7.414v0.069c0,4.804-2.89,8.109-6.51,8.109
		C304.186,251.741,302.758,251.15,301.714,250.105z M309.893,243.736v-0.069c0-3.446-1.74-5.396-4.037-5.396
		s-4.107,1.949-4.107,5.291v0.104c0,3.341,1.463,5.847,4.107,5.847C308.326,249.513,309.893,247.008,309.893,243.736z"/>
	<path fill="#838383" d="M323.852,224.28h2.088l-10.65,30.907h-2.088L323.852,224.28z"/>
	<path fill="#838383" d="M326.602,249.549l1.322-1.914c1.01,0.975,2.228,1.845,4.211,1.845c2.506,0,4.49-1.949,4.49-5.082v-0.139
		c0-3.272-2.576-4.769-6.057-4.769h-0.208l-0.209-1.566l5.708-8.562h-8.527v-2.331h11.521v1.879l-5.882,8.701
		c3.236,0.522,6.091,2.472,6.091,6.578v0.14c0,4.49-3.063,7.413-6.892,7.413C329.769,251.741,327.924,250.802,326.602,249.549z"/>
	<path fill="#838383" d="M342.02,239.525v-0.558c0-7.865,2.785-12.286,7.205-12.286s7.135,4.386,7.135,12.217v0.557
		c0,7.866-2.715,12.286-7.17,12.286S342.02,247.356,342.02,239.525z M353.889,239.49v-0.487c0-6.474-1.949-10.059-4.699-10.059
		c-2.749,0-4.663,3.516-4.663,9.989v0.487c0,6.474,1.914,10.059,4.698,10.059C352.01,249.479,353.889,245.964,353.889,239.49z"/>
	<path fill="#838383" d="M367.777,224.28h2.088l-10.65,30.907h-2.088L367.777,224.28z"/>
	<path fill="#838383" d="M374.355,229.64l-3.271,1.357l-0.244-2.367l4.072-1.705h1.846v24.468h-2.402V229.64z"/>
	<path fill="#838383" d="M380.587,245.024v-0.174c0-2.959,1.565-5.082,3.794-6.057c-1.846-0.975-3.203-2.889-3.203-5.639v-0.174
		c0-3.828,2.715-6.3,6.021-6.3s6.057,2.472,6.057,6.3v0.174c0,2.75-1.357,4.664-3.236,5.639c2.227,0.975,3.793,3.098,3.793,6.057
		v0.174c0,4.002-2.784,6.717-6.613,6.717C383.371,251.741,380.587,249.026,380.587,245.024z M391.411,244.885v-0.069
		c0-2.889-1.845-4.942-4.212-4.942c-2.332,0-4.176,2.054-4.176,4.942v0.069c0,2.715,1.635,4.733,4.176,4.733
		C389.775,249.618,391.411,247.599,391.411,244.885z M390.889,233.19v-0.069c0-2.61-1.601-4.316-3.689-4.316
		c-2.088,0-3.689,1.706-3.689,4.316v0.069c0,2.61,1.602,4.629,3.689,4.629C389.288,237.819,390.889,235.801,390.889,233.19z"/>
</g>
</svg>
