<?xml version="1.0" encoding="utf-8"?>
<!-- Generator: Adobe Illustrator 16.0.4, SVG Export Plug-In . SVG Version: 6.00 Build 0)  -->
<!DOCTYPE svg PUBLIC "-//W3C//DTD SVG 1.1//EN" "http://www.w3.org/Graphics/SVG/1.1/DTD/svg11.dtd">
<svg version="1.1" id="GLYPHS" xmlns="http://www.w3.org/2000/svg" xmlns:xlink="http://www.w3.org/1999/xlink" x="0px" y="0px"
	 width="98px" height="42px" viewBox="0 0 98 42" enable-background="new 0 0 98 42" xml:space="preserve">
<g>
	<path fill="#FFFFFF" d="M1.141,13.865h2.047c0.302,0,0.614,0.011,0.938,0.031c0.323,0.021,0.638,0.065,0.945,0.133
		c0.307,0.067,0.599,0.168,0.875,0.301c0.276,0.133,0.517,0.312,0.723,0.535c0.206,0.224,0.37,0.501,0.492,0.832
		c0.122,0.331,0.184,0.728,0.184,1.191v0.648c0,0.354-0.051,0.68-0.152,0.977s-0.236,0.559-0.402,0.785
		c-0.167,0.227-0.357,0.414-0.57,0.562c-0.214,0.148-0.433,0.249-0.656,0.301v0.062c0.661,0.12,1.16,0.434,1.496,0.941
		s0.504,1.157,0.504,1.949v0.68c0,0.484-0.054,0.905-0.16,1.262c-0.107,0.356-0.257,0.661-0.449,0.914
		c-0.193,0.253-0.422,0.46-0.688,0.621s-0.558,0.288-0.875,0.379c-0.318,0.091-0.656,0.153-1.016,0.188s-0.729,0.051-1.109,0.051
		H1.141V13.865z M3.516,19.576c0.271,0,0.518-0.032,0.742-0.098c0.224-0.065,0.415-0.167,0.574-0.305
		c0.159-0.138,0.281-0.317,0.367-0.539s0.129-0.488,0.129-0.801v-0.547c0-0.312-0.031-0.589-0.094-0.828s-0.166-0.442-0.309-0.609
		c-0.144-0.167-0.331-0.293-0.562-0.379c-0.232-0.086-0.515-0.129-0.848-0.129H3.125v4.234H3.516z M3.703,25.803
		c0.271,0,0.517-0.035,0.738-0.105c0.221-0.07,0.411-0.18,0.57-0.328c0.159-0.148,0.281-0.337,0.367-0.566s0.129-0.5,0.129-0.812
		v-1.039c0-0.312-0.031-0.59-0.094-0.832s-0.166-0.445-0.309-0.609c-0.144-0.164-0.33-0.289-0.559-0.375
		c-0.229-0.086-0.511-0.129-0.844-0.129H3.125v4.797H3.703z"/>
	<path fill="#FFFFFF" d="M11.906,27.326c-0.229,0-0.462-0.019-0.699-0.055c-0.237-0.036-0.466-0.112-0.688-0.227
		c-0.222-0.114-0.43-0.278-0.625-0.492s-0.366-0.495-0.512-0.844c-0.146-0.349-0.261-0.778-0.344-1.289
		c-0.083-0.511-0.125-1.12-0.125-1.828v-1.688c0-0.698,0.043-1.296,0.129-1.793s0.203-0.915,0.352-1.254s0.321-0.608,0.52-0.809
		c0.198-0.2,0.407-0.354,0.629-0.461c0.221-0.106,0.449-0.177,0.684-0.211s0.463-0.051,0.688-0.051c0.213,0,0.435,0.016,0.664,0.047
		c0.229,0.031,0.453,0.098,0.672,0.199s0.426,0.253,0.621,0.453s0.367,0.47,0.516,0.809s0.266,0.759,0.352,1.262
		s0.129,1.105,0.129,1.809v1.688c0,0.698-0.044,1.3-0.133,1.805c-0.089,0.505-0.208,0.933-0.359,1.281
		c-0.151,0.349-0.326,0.632-0.523,0.848c-0.198,0.216-0.406,0.384-0.625,0.504s-0.441,0.199-0.668,0.238
		S12.114,27.326,11.906,27.326z M11.922,25.803c0.177,0,0.327-0.046,0.449-0.137c0.122-0.091,0.221-0.241,0.297-0.449
		c0.075-0.208,0.13-0.483,0.164-0.824c0.034-0.341,0.051-0.765,0.051-1.27v-2.648c0-0.505-0.017-0.93-0.051-1.273
		c-0.034-0.344-0.089-0.621-0.164-0.832c-0.076-0.211-0.175-0.363-0.297-0.457c-0.123-0.094-0.272-0.141-0.449-0.141
		c-0.188,0-0.345,0.047-0.473,0.141c-0.128,0.094-0.233,0.246-0.316,0.457c-0.083,0.211-0.144,0.488-0.18,0.832
		c-0.037,0.344-0.055,0.769-0.055,1.273v2.648c0,0.505,0.018,0.929,0.055,1.27c0.036,0.341,0.096,0.616,0.18,0.824
		c0.083,0.208,0.188,0.358,0.316,0.449C11.577,25.757,11.734,25.803,11.922,25.803z"/>
	<path fill="#FFFFFF" d="M19.328,27.326c-0.229,0-0.462-0.019-0.699-0.055c-0.237-0.036-0.466-0.112-0.688-0.227
		c-0.222-0.114-0.43-0.278-0.625-0.492s-0.366-0.495-0.512-0.844c-0.146-0.349-0.261-0.778-0.344-1.289
		c-0.083-0.511-0.125-1.12-0.125-1.828v-1.688c0-0.698,0.043-1.296,0.129-1.793s0.203-0.915,0.352-1.254s0.321-0.608,0.52-0.809
		c0.198-0.2,0.407-0.354,0.629-0.461c0.221-0.106,0.449-0.177,0.684-0.211s0.463-0.051,0.688-0.051c0.213,0,0.435,0.016,0.664,0.047
		c0.229,0.031,0.453,0.098,0.672,0.199s0.426,0.253,0.621,0.453s0.367,0.47,0.516,0.809s0.266,0.759,0.352,1.262
		s0.129,1.105,0.129,1.809v1.688c0,0.698-0.044,1.3-0.133,1.805c-0.089,0.505-0.208,0.933-0.359,1.281
		c-0.151,0.349-0.326,0.632-0.523,0.848c-0.198,0.216-0.406,0.384-0.625,0.504s-0.441,0.199-0.668,0.238
		S19.536,27.326,19.328,27.326z M19.344,25.803c0.177,0,0.327-0.046,0.449-0.137c0.122-0.091,0.221-0.241,0.297-0.449
		c0.075-0.208,0.13-0.483,0.164-0.824c0.034-0.341,0.051-0.765,0.051-1.27v-2.648c0-0.505-0.017-0.93-0.051-1.273
		c-0.034-0.344-0.089-0.621-0.164-0.832c-0.076-0.211-0.175-0.363-0.297-0.457c-0.123-0.094-0.272-0.141-0.449-0.141
		c-0.188,0-0.345,0.047-0.473,0.141c-0.128,0.094-0.233,0.246-0.316,0.457c-0.083,0.211-0.144,0.488-0.18,0.832
		c-0.037,0.344-0.055,0.769-0.055,1.273v2.648c0,0.505,0.018,0.929,0.055,1.27c0.036,0.341,0.096,0.616,0.18,0.824
		c0.083,0.208,0.188,0.358,0.316,0.449C18.999,25.757,19.156,25.803,19.344,25.803z"/>
	<path fill="#FFFFFF" d="M24.07,12.998h1.977v8.18h0.062l2.156-4.727h1.898l-2.391,4.922l2.617,5.836h-2.016l-2.266-5.336h-0.062
		v5.336H24.07V12.998z"/>
	<path fill="#FFFFFF" d="M36.305,27.326c-0.333,0-0.629-0.066-0.887-0.199s-0.476-0.313-0.652-0.543
		c-0.177-0.229-0.312-0.501-0.402-0.816c-0.091-0.315-0.137-0.657-0.137-1.027c0-0.442,0.055-0.836,0.164-1.18s0.27-0.653,0.48-0.93
		s0.473-0.527,0.785-0.754s0.674-0.441,1.086-0.645c0.198-0.099,0.42-0.199,0.668-0.301c0.247-0.102,0.467-0.188,0.66-0.262v-1.422
		c0-0.208-0.008-0.402-0.023-0.582s-0.054-0.336-0.113-0.469c-0.06-0.133-0.15-0.237-0.27-0.312
		c-0.12-0.075-0.284-0.113-0.492-0.113c-0.141,0-0.277,0.026-0.41,0.078s-0.25,0.141-0.352,0.266s-0.183,0.292-0.242,0.5
		c-0.06,0.208-0.09,0.466-0.09,0.773v0.469H34.57c-0.047-0.203-0.082-0.39-0.105-0.559s-0.035-0.337-0.035-0.504
		c0-0.401,0.069-0.755,0.207-1.062c0.138-0.308,0.331-0.565,0.578-0.773c0.247-0.208,0.543-0.366,0.887-0.473s0.721-0.16,1.133-0.16
		c0.536,0,0.981,0.059,1.336,0.176c0.354,0.117,0.637,0.293,0.848,0.527s0.359,0.528,0.445,0.883s0.129,0.769,0.129,1.242v8.055
		h-1.469l-0.141-0.922c-0.214,0.308-0.499,0.558-0.855,0.75C37.17,27.229,36.763,27.326,36.305,27.326z M37.18,25.803
		c0.167,0,0.329-0.043,0.488-0.129c0.159-0.086,0.293-0.191,0.402-0.316V21.99c-0.104,0.042-0.222,0.091-0.352,0.148
		c-0.13,0.058-0.271,0.133-0.422,0.227c-0.141,0.089-0.279,0.195-0.414,0.32c-0.136,0.125-0.257,0.273-0.363,0.445
		c-0.107,0.172-0.193,0.366-0.258,0.582c-0.065,0.216-0.098,0.457-0.098,0.723c0,0.411,0.081,0.742,0.242,0.992
		C36.567,25.678,36.825,25.803,37.18,25.803z"/>
	<path fill="#FFFFFF" d="M45.586,13.865h2.641l1.281,5.164c0.135,0.573,0.242,1.118,0.32,1.637s0.153,1.007,0.227,1.465h0.062
		c0.073-0.458,0.148-0.946,0.227-1.465s0.185-1.063,0.32-1.637l1.32-5.164h2.586v13.344H52.68v-4.414
		c0-0.677,0.006-1.328,0.02-1.953c0.013-0.625,0.03-1.199,0.051-1.723c0.021-0.523,0.044-0.985,0.07-1.387
		c0.026-0.401,0.049-0.719,0.07-0.953h-0.148l-2.016,8.711h-1.281l-2.031-8.711h-0.148c0.021,0.234,0.044,0.552,0.07,0.953
		c0.026,0.401,0.049,0.863,0.07,1.387c0.021,0.523,0.038,1.098,0.051,1.723c0.013,0.625,0.02,1.276,0.02,1.953v4.414h-1.891V13.865z
		"/>
	<path fill="#FFFFFF" d="M58.211,27.326c-0.333,0-0.629-0.066-0.887-0.199s-0.476-0.313-0.652-0.543
		c-0.177-0.229-0.312-0.501-0.402-0.816c-0.091-0.315-0.137-0.657-0.137-1.027c0-0.442,0.055-0.836,0.164-1.18s0.27-0.653,0.48-0.93
		s0.473-0.527,0.785-0.754s0.674-0.441,1.086-0.645c0.198-0.099,0.42-0.199,0.668-0.301c0.247-0.102,0.467-0.188,0.66-0.262v-1.422
		c0-0.208-0.008-0.402-0.023-0.582s-0.054-0.336-0.113-0.469c-0.06-0.133-0.15-0.237-0.27-0.312
		c-0.12-0.075-0.284-0.113-0.492-0.113c-0.141,0-0.277,0.026-0.41,0.078s-0.25,0.141-0.352,0.266s-0.183,0.292-0.242,0.5
		c-0.06,0.208-0.09,0.466-0.09,0.773v0.469h-1.508c-0.047-0.203-0.082-0.39-0.105-0.559s-0.035-0.337-0.035-0.504
		c0-0.401,0.069-0.755,0.207-1.062c0.138-0.308,0.331-0.565,0.578-0.773c0.247-0.208,0.543-0.366,0.887-0.473s0.721-0.16,1.133-0.16
		c0.536,0,0.981,0.059,1.336,0.176c0.354,0.117,0.637,0.293,0.848,0.527s0.359,0.528,0.445,0.883s0.129,0.769,0.129,1.242v8.055
		H60.43l-0.141-0.922c-0.214,0.308-0.499,0.558-0.855,0.75C59.077,27.229,58.669,27.326,58.211,27.326z M59.086,25.803
		c0.167,0,0.329-0.043,0.488-0.129c0.159-0.086,0.293-0.191,0.402-0.316V21.99c-0.104,0.042-0.222,0.091-0.352,0.148
		c-0.13,0.058-0.271,0.133-0.422,0.227c-0.141,0.089-0.279,0.195-0.414,0.32c-0.136,0.125-0.257,0.273-0.363,0.445
		c-0.107,0.172-0.193,0.366-0.258,0.582c-0.065,0.216-0.098,0.457-0.098,0.723c0,0.411,0.081,0.742,0.242,0.992
		C58.474,25.678,58.731,25.803,59.086,25.803z"/>
	<path fill="#FFFFFF" d="M63.523,24.959c0-0.234,0.022-0.461,0.066-0.68c0.044-0.219,0.087-0.394,0.129-0.523h1.391
		c0,0.391,0.02,0.718,0.059,0.98s0.103,0.473,0.191,0.629c0.088,0.156,0.207,0.269,0.355,0.336s0.329,0.102,0.543,0.102
		c0.297,0,0.513-0.083,0.648-0.25c0.135-0.167,0.203-0.359,0.203-0.578c0-0.114-0.016-0.224-0.047-0.328s-0.076-0.21-0.133-0.316
		c-0.058-0.106-0.128-0.215-0.211-0.324c-0.083-0.109-0.177-0.229-0.281-0.359l-1.445-1.703c-0.188-0.234-0.369-0.473-0.543-0.715
		c-0.175-0.242-0.328-0.492-0.461-0.75s-0.24-0.527-0.32-0.809c-0.081-0.281-0.121-0.578-0.121-0.891
		c0-0.417,0.071-0.778,0.215-1.086c0.143-0.308,0.336-0.562,0.578-0.766s0.522-0.354,0.84-0.453
		c0.317-0.099,0.653-0.148,1.008-0.148c0.391,0,0.742,0.047,1.055,0.141s0.581,0.234,0.805,0.422
		c0.224,0.188,0.396,0.421,0.516,0.699s0.18,0.603,0.18,0.973c0,0.25-0.022,0.492-0.066,0.727s-0.087,0.435-0.129,0.602H67.18
		c-0.005-0.354-0.021-0.664-0.047-0.93c-0.026-0.266-0.074-0.485-0.145-0.66s-0.167-0.306-0.289-0.395
		c-0.123-0.089-0.283-0.133-0.48-0.133c-0.172,0-0.315,0.027-0.43,0.082c-0.115,0.055-0.207,0.126-0.277,0.215
		s-0.12,0.188-0.148,0.297c-0.029,0.109-0.043,0.222-0.043,0.336c0,0.25,0.06,0.481,0.18,0.695c0.12,0.214,0.278,0.445,0.477,0.695
		l1.578,1.852c0.114,0.141,0.247,0.312,0.398,0.512c0.151,0.2,0.294,0.422,0.43,0.664s0.25,0.507,0.344,0.793
		s0.141,0.586,0.141,0.898c0,0.38-0.06,0.726-0.18,1.035s-0.297,0.574-0.531,0.793s-0.522,0.388-0.863,0.508
		c-0.341,0.12-0.73,0.18-1.168,0.18c-0.359,0-0.698-0.04-1.016-0.121c-0.318-0.081-0.594-0.214-0.828-0.398s-0.419-0.429-0.555-0.73
		C63.591,25.774,63.523,25.401,63.523,24.959z"/>
	<path fill="#FFFFFF" d="M70,24.959c0-0.234,0.022-0.461,0.066-0.68s0.087-0.394,0.129-0.523h1.391c0,0.391,0.02,0.718,0.059,0.98
		s0.103,0.473,0.191,0.629s0.207,0.269,0.355,0.336s0.329,0.102,0.543,0.102c0.297,0,0.513-0.083,0.648-0.25
		s0.203-0.359,0.203-0.578c0-0.114-0.016-0.224-0.047-0.328s-0.075-0.21-0.133-0.316s-0.128-0.215-0.211-0.324
		s-0.177-0.229-0.281-0.359l-1.445-1.703c-0.188-0.234-0.368-0.473-0.543-0.715s-0.328-0.492-0.461-0.75s-0.239-0.527-0.32-0.809
		s-0.121-0.578-0.121-0.891c0-0.417,0.071-0.778,0.215-1.086s0.336-0.562,0.578-0.766s0.522-0.354,0.84-0.453
		s0.653-0.148,1.008-0.148c0.391,0,0.742,0.047,1.055,0.141s0.581,0.234,0.805,0.422s0.396,0.421,0.516,0.699s0.18,0.603,0.18,0.973
		c0,0.25-0.022,0.492-0.066,0.727s-0.087,0.435-0.129,0.602h-1.367c-0.005-0.354-0.021-0.664-0.047-0.93s-0.074-0.485-0.145-0.66
		s-0.167-0.306-0.289-0.395s-0.282-0.133-0.48-0.133c-0.172,0-0.315,0.027-0.43,0.082s-0.207,0.126-0.277,0.215
		s-0.12,0.188-0.148,0.297s-0.043,0.222-0.043,0.336c0,0.25,0.06,0.481,0.18,0.695s0.278,0.445,0.477,0.695l1.578,1.852
		c0.114,0.141,0.247,0.312,0.398,0.512s0.294,0.422,0.43,0.664s0.25,0.507,0.344,0.793s0.141,0.586,0.141,0.898
		c0,0.38-0.06,0.726-0.18,1.035s-0.297,0.574-0.531,0.793s-0.522,0.388-0.863,0.508s-0.73,0.18-1.168,0.18
		c-0.359,0-0.698-0.04-1.016-0.121s-0.594-0.214-0.828-0.398s-0.419-0.429-0.555-0.73S70,25.401,70,24.959z"/>
	<path fill="#FFFFFF" d="M78.383,27.326c-0.333,0-0.629-0.066-0.887-0.199s-0.476-0.313-0.652-0.543s-0.312-0.501-0.402-0.816
		s-0.137-0.657-0.137-1.027c0-0.442,0.055-0.836,0.164-1.18s0.27-0.653,0.48-0.93s0.473-0.527,0.785-0.754s0.675-0.441,1.086-0.645
		c0.198-0.099,0.421-0.199,0.668-0.301s0.468-0.188,0.66-0.262v-1.422c0-0.208-0.008-0.402-0.023-0.582s-0.054-0.336-0.113-0.469
		s-0.149-0.237-0.27-0.312s-0.284-0.113-0.492-0.113c-0.141,0-0.277,0.026-0.41,0.078s-0.25,0.141-0.352,0.266
		s-0.183,0.292-0.242,0.5s-0.09,0.466-0.09,0.773v0.469h-1.508c-0.047-0.203-0.082-0.39-0.105-0.559s-0.035-0.337-0.035-0.504
		c0-0.401,0.069-0.755,0.207-1.062s0.331-0.565,0.578-0.773s0.543-0.366,0.887-0.473s0.722-0.16,1.133-0.16
		c0.536,0,0.981,0.059,1.336,0.176s0.637,0.293,0.848,0.527s0.359,0.528,0.445,0.883s0.129,0.769,0.129,1.242v8.055h-1.469
		l-0.141-0.922c-0.214,0.308-0.499,0.558-0.855,0.75S78.841,27.326,78.383,27.326z M79.258,25.803c0.167,0,0.329-0.043,0.488-0.129
		s0.293-0.191,0.402-0.316V21.99c-0.104,0.042-0.222,0.091-0.352,0.148s-0.271,0.133-0.422,0.227
		c-0.141,0.089-0.278,0.195-0.414,0.32s-0.257,0.273-0.363,0.445s-0.192,0.366-0.258,0.582s-0.098,0.457-0.098,0.723
		c0,0.411,0.081,0.742,0.242,0.992S78.903,25.803,79.258,25.803z"/>
	<path fill="#FFFFFF" d="M85.727,27.943c0,0.464,0.086,0.792,0.258,0.984s0.438,0.289,0.797,0.289c0.146,0,0.286-0.022,0.422-0.066
		s0.254-0.125,0.355-0.242s0.184-0.28,0.246-0.488s0.094-0.477,0.094-0.805V25.92c-0.177,0.229-0.405,0.426-0.684,0.59
		s-0.624,0.246-1.035,0.246c-0.12,0-0.261-0.012-0.422-0.035s-0.328-0.077-0.5-0.16s-0.341-0.21-0.508-0.379
		s-0.315-0.397-0.445-0.684s-0.235-0.645-0.316-1.074s-0.121-0.949-0.121-1.559v-2.828c0-0.583,0.04-1.079,0.121-1.488
		s0.187-0.751,0.316-1.027s0.28-0.492,0.449-0.648s0.341-0.274,0.516-0.355s0.345-0.132,0.512-0.152s0.315-0.031,0.445-0.031
		c0.261,0,0.491,0.034,0.691,0.102s0.375,0.157,0.523,0.27s0.274,0.238,0.379,0.379s0.192,0.281,0.266,0.422l0.18-1.062h1.539
		v10.328c0,0.599-0.058,1.14-0.172,1.621s-0.294,0.894-0.539,1.234s-0.556,0.603-0.934,0.785s-0.829,0.273-1.355,0.273
		c-0.354,0-0.688-0.031-1-0.094s-0.586-0.173-0.82-0.332s-0.419-0.375-0.555-0.648s-0.203-0.621-0.203-1.043
		c0-0.073,0.008-0.164,0.023-0.273s0.042-0.227,0.078-0.352H85.727z M86.852,25.225c0.13,0,0.246-0.022,0.348-0.066
		s0.192-0.103,0.273-0.176s0.151-0.156,0.211-0.25s0.11-0.19,0.152-0.289v-5.883c-0.099-0.219-0.23-0.405-0.395-0.559
		s-0.363-0.23-0.598-0.23c-0.146,0-0.278,0.026-0.398,0.078s-0.224,0.149-0.312,0.293s-0.157,0.341-0.207,0.594
		s-0.074,0.579-0.074,0.98v3.539c0,0.401,0.024,0.729,0.074,0.984s0.118,0.456,0.207,0.602s0.194,0.246,0.316,0.301
		S86.706,25.225,86.852,25.225z"/>
	<path fill="#FFFFFF" d="M94.469,27.326c-0.464,0-0.874-0.086-1.23-0.258s-0.657-0.44-0.902-0.805s-0.43-0.832-0.555-1.402
		s-0.188-1.257-0.188-2.059v-2.031c0-0.683,0.051-1.267,0.152-1.754s0.234-0.896,0.398-1.227s0.354-0.593,0.57-0.785
		s0.438-0.34,0.668-0.441s0.457-0.167,0.684-0.195s0.437-0.043,0.629-0.043c0.354,0,0.695,0.054,1.023,0.16s0.617,0.289,0.867,0.547
		s0.449,0.603,0.598,1.035s0.223,0.972,0.223,1.617c0,0.219-0.007,0.44-0.02,0.664s-0.03,0.444-0.051,0.66s-0.048,0.426-0.082,0.629
		s-0.069,0.391-0.105,0.562h-3.57v1.094c0,0.469,0.019,0.863,0.055,1.184s0.098,0.578,0.184,0.773s0.203,0.336,0.352,0.422
		s0.335,0.129,0.559,0.129c0.12,0,0.237-0.024,0.352-0.074s0.215-0.132,0.301-0.246s0.155-0.267,0.207-0.457
		s0.078-0.426,0.078-0.707v-0.336h1.648v0.414c0,1.021-0.243,1.765-0.73,2.23S95.391,27.326,94.469,27.326z M95.562,20.873
		c0.005-0.058,0.011-0.134,0.016-0.23s0.009-0.196,0.012-0.301s0.004-0.207,0.004-0.309s0-0.188,0-0.262
		c0-0.708-0.083-1.219-0.25-1.531s-0.414-0.469-0.742-0.469c-0.172,0-0.323,0.04-0.453,0.121s-0.237,0.216-0.32,0.406
		s-0.146,0.441-0.188,0.754s-0.062,0.7-0.062,1.164v0.656H95.562z"/>
</g>
</svg>
