<?xml version="1.0" encoding="utf-8"?>
<!-- Generator: Adobe Illustrator 16.0.4, SVG Export Plug-In . SVG Version: 6.00 Build 0)  -->
<!DOCTYPE svg PUBLIC "-//W3C//DTD SVG 1.1//EN" "http://www.w3.org/Graphics/SVG/1.1/DTD/svg11.dtd">
<svg version="1.1" id="GLYPHS" xmlns="http://www.w3.org/2000/svg" xmlns:xlink="http://www.w3.org/1999/xlink" x="0px" y="0px"
	 width="123px" height="42px" viewBox="0 0 123 42" enable-background="new 0 0 123 42" xml:space="preserve">
<g>
	<path fill="#FFFFFF" d="M0.625,24.506c0-0.286,0.017-0.551,0.051-0.793c0.034-0.242,0.084-0.504,0.152-0.785h1.57v0.648
		c0,0.359,0.022,0.677,0.066,0.953c0.044,0.276,0.117,0.509,0.219,0.699s0.237,0.333,0.406,0.43
		c0.169,0.097,0.376,0.145,0.621,0.145c0.385,0,0.68-0.105,0.883-0.316s0.305-0.52,0.305-0.926c0-0.208-0.015-0.399-0.043-0.574
		c-0.029-0.175-0.078-0.348-0.148-0.52s-0.166-0.353-0.285-0.543c-0.12-0.19-0.273-0.402-0.461-0.637l-2.109-2.508
		C1.477,19.3,1.188,18.817,0.984,18.33S0.68,17.323,0.68,16.771c0-0.442,0.069-0.849,0.207-1.219
		c0.138-0.37,0.337-0.688,0.598-0.957c0.26-0.269,0.582-0.477,0.965-0.625s0.816-0.223,1.301-0.223c0.588,0,1.079,0.083,1.473,0.25
		c0.393,0.167,0.707,0.386,0.941,0.656s0.399,0.574,0.496,0.91c0.096,0.336,0.145,0.673,0.145,1.012
		c0,0.286-0.022,0.551-0.066,0.793c-0.044,0.242-0.095,0.509-0.152,0.801H5.023v-0.633c0-0.708-0.102-1.251-0.305-1.629
		s-0.534-0.566-0.992-0.566c-0.38,0-0.664,0.105-0.852,0.316s-0.281,0.493-0.281,0.848c0,0.188,0.014,0.356,0.043,0.508
		c0.028,0.151,0.07,0.29,0.125,0.418s0.121,0.251,0.199,0.371s0.167,0.245,0.266,0.375l2.352,2.844
		c0.427,0.558,0.755,1.093,0.984,1.605c0.229,0.513,0.344,1.056,0.344,1.629c0,0.474-0.074,0.901-0.223,1.281
		s-0.361,0.703-0.637,0.969c-0.276,0.266-0.609,0.47-1,0.613s-0.831,0.215-1.32,0.215c-0.604,0-1.105-0.081-1.504-0.242
		s-0.716-0.375-0.953-0.641c-0.237-0.266-0.404-0.567-0.5-0.906C0.673,25.206,0.625,24.86,0.625,24.506z"/>
	<path fill="#FFFFFF" d="M10.992,27.326c-0.906,0-1.598-0.372-2.074-1.117s-0.715-1.88-0.715-3.406v-2.031
		c0-0.683,0.049-1.267,0.148-1.754c0.099-0.487,0.23-0.896,0.395-1.227s0.352-0.593,0.562-0.785s0.428-0.34,0.652-0.441
		c0.224-0.102,0.445-0.167,0.664-0.195s0.419-0.043,0.602-0.043c0.364,0,0.698,0.048,1,0.145c0.302,0.097,0.562,0.242,0.781,0.438
		s0.388,0.441,0.508,0.738c0.12,0.297,0.18,0.646,0.18,1.047c0,0.25-0.012,0.465-0.035,0.645s-0.056,0.353-0.098,0.52h-1.578v-0.359
		c0-0.542-0.064-0.965-0.191-1.27c-0.128-0.305-0.337-0.457-0.629-0.457c-0.162,0-0.302,0.038-0.422,0.113
		c-0.12,0.075-0.22,0.204-0.301,0.387c-0.081,0.183-0.141,0.427-0.18,0.734s-0.059,0.692-0.059,1.156v3.055
		c0,0.469,0.016,0.867,0.047,1.195s0.086,0.595,0.164,0.801s0.182,0.355,0.312,0.449c0.13,0.094,0.292,0.141,0.484,0.141
		c0.099,0,0.195-0.024,0.289-0.074s0.176-0.132,0.246-0.246s0.127-0.267,0.172-0.457c0.044-0.19,0.066-0.426,0.066-0.707v-0.336
		h1.703v0.414c0,1.021-0.226,1.765-0.676,2.23C12.561,27.093,11.888,27.326,10.992,27.326z"/>
	<path fill="#FFFFFF" d="M15.289,12.998h1.977v2.531l-0.102,1.844c0.146-0.203,0.303-0.371,0.473-0.504
		c0.169-0.133,0.344-0.239,0.523-0.32s0.362-0.138,0.547-0.172c0.185-0.034,0.368-0.051,0.551-0.051c0.63,0,1.116,0.22,1.457,0.66
		c0.341,0.44,0.512,1.101,0.512,1.98v8.242H19.25v-8.172c0-0.474-0.073-0.804-0.219-0.988c-0.146-0.185-0.359-0.277-0.641-0.277
		c-0.198,0-0.397,0.066-0.598,0.199c-0.201,0.133-0.376,0.316-0.527,0.551v8.688h-1.977V12.998z"/>
	<path fill="#FFFFFF" d="M25.867,27.326c-0.464,0-0.874-0.086-1.23-0.258c-0.357-0.172-0.658-0.44-0.902-0.805
		c-0.245-0.364-0.43-0.832-0.555-1.402s-0.188-1.257-0.188-2.059v-2.031c0-0.683,0.051-1.267,0.152-1.754s0.234-0.896,0.398-1.227
		s0.354-0.593,0.57-0.785c0.216-0.192,0.438-0.34,0.668-0.441c0.229-0.102,0.457-0.167,0.684-0.195s0.436-0.043,0.629-0.043
		c0.354,0,0.695,0.054,1.023,0.16s0.617,0.289,0.867,0.547s0.449,0.603,0.598,1.035s0.223,0.972,0.223,1.617
		c0,0.219-0.007,0.44-0.02,0.664c-0.013,0.224-0.03,0.444-0.051,0.66c-0.021,0.216-0.048,0.426-0.082,0.629
		c-0.034,0.203-0.069,0.391-0.105,0.562h-3.57v1.094c0,0.469,0.018,0.863,0.055,1.184c0.036,0.32,0.098,0.578,0.184,0.773
		s0.203,0.336,0.352,0.422s0.334,0.129,0.559,0.129c0.12,0,0.237-0.024,0.352-0.074c0.114-0.05,0.215-0.132,0.301-0.246
		s0.155-0.267,0.207-0.457c0.052-0.19,0.078-0.426,0.078-0.707v-0.336h1.648v0.414c0,1.021-0.244,1.765-0.73,2.23
		C27.493,27.093,26.789,27.326,25.867,27.326z M26.961,20.873c0.005-0.058,0.01-0.134,0.016-0.23
		c0.005-0.097,0.009-0.196,0.012-0.301c0.002-0.104,0.004-0.207,0.004-0.309s0-0.188,0-0.262c0-0.708-0.083-1.219-0.25-1.531
		c-0.167-0.312-0.414-0.469-0.742-0.469c-0.172,0-0.323,0.04-0.453,0.121c-0.13,0.081-0.237,0.216-0.32,0.406
		c-0.083,0.19-0.146,0.441-0.188,0.754c-0.042,0.312-0.062,0.7-0.062,1.164v0.656H26.961z"/>
	<path fill="#FFFFFF" d="M32.539,27.334c-0.12,0-0.261-0.012-0.422-0.035c-0.162-0.023-0.328-0.077-0.5-0.16
		s-0.341-0.208-0.508-0.375c-0.167-0.167-0.315-0.395-0.445-0.684c-0.13-0.289-0.236-0.647-0.316-1.074
		c-0.081-0.427-0.121-0.945-0.121-1.555v-3.414c0-0.604,0.043-1.114,0.129-1.531s0.199-0.762,0.34-1.035s0.298-0.487,0.473-0.641
		c0.174-0.153,0.349-0.267,0.523-0.34c0.174-0.073,0.341-0.117,0.5-0.133c0.159-0.016,0.29-0.023,0.395-0.023
		c0.192,0,0.375,0.026,0.547,0.078s0.328,0.121,0.469,0.207s0.266,0.183,0.375,0.289s0.2,0.215,0.273,0.324l0.008-0.008
		l-0.062-1.359v-2.867h1.969v14.211h-1.539l-0.172-1c-0.089,0.141-0.19,0.278-0.305,0.414c-0.115,0.136-0.25,0.257-0.406,0.363
		s-0.333,0.191-0.531,0.254C33.013,27.303,32.789,27.334,32.539,27.334z M33.211,25.803c0.13,0,0.246-0.022,0.348-0.066
		s0.192-0.102,0.273-0.172c0.081-0.07,0.151-0.152,0.211-0.246c0.06-0.094,0.11-0.19,0.152-0.289v-6.469
		c-0.099-0.219-0.23-0.405-0.395-0.559s-0.363-0.23-0.598-0.23c-0.146,0-0.279,0.026-0.398,0.078
		c-0.12,0.052-0.224,0.149-0.312,0.293c-0.089,0.144-0.158,0.341-0.207,0.594c-0.05,0.253-0.074,0.579-0.074,0.98v4.125
		c0,0.401,0.024,0.729,0.074,0.984c0.049,0.255,0.118,0.454,0.207,0.598c0.088,0.144,0.194,0.242,0.316,0.297
		C32.931,25.775,33.065,25.803,33.211,25.803z"/>
	<path fill="#FFFFFF" d="M38.211,16.451h1.977v8.086c0,0.474,0.073,0.804,0.219,0.988c0.146,0.185,0.359,0.277,0.641,0.277
		c0.198,0,0.391-0.055,0.578-0.164s0.356-0.266,0.508-0.469v-8.719h1.977v10.758h-1.508l-0.195-1.148h-0.008
		c-0.156,0.245-0.322,0.449-0.496,0.613c-0.175,0.164-0.357,0.294-0.547,0.391c-0.19,0.097-0.384,0.165-0.582,0.207
		c-0.198,0.042-0.396,0.062-0.594,0.062c-0.63,0-1.116-0.219-1.457-0.656c-0.341-0.438-0.512-1.099-0.512-1.984V16.451z"/>
	<path fill="#FFFFFF" d="M46.203,12.998h1.977v14.211h-1.977V12.998z"/>
	<path fill="#FFFFFF" d="M52.836,27.326c-0.464,0-0.874-0.086-1.23-0.258c-0.357-0.172-0.658-0.44-0.902-0.805
		c-0.245-0.364-0.43-0.832-0.555-1.402s-0.188-1.257-0.188-2.059v-2.031c0-0.683,0.051-1.267,0.152-1.754s0.234-0.896,0.398-1.227
		s0.354-0.593,0.57-0.785c0.216-0.192,0.438-0.34,0.668-0.441c0.229-0.102,0.457-0.167,0.684-0.195s0.436-0.043,0.629-0.043
		c0.354,0,0.695,0.054,1.023,0.16s0.617,0.289,0.867,0.547s0.449,0.603,0.598,1.035s0.223,0.972,0.223,1.617
		c0,0.219-0.007,0.44-0.02,0.664c-0.013,0.224-0.03,0.444-0.051,0.66c-0.021,0.216-0.048,0.426-0.082,0.629
		c-0.034,0.203-0.069,0.391-0.105,0.562h-3.57v1.094c0,0.469,0.018,0.863,0.055,1.184c0.036,0.32,0.098,0.578,0.184,0.773
		s0.203,0.336,0.352,0.422s0.334,0.129,0.559,0.129c0.12,0,0.237-0.024,0.352-0.074c0.114-0.05,0.215-0.132,0.301-0.246
		s0.155-0.267,0.207-0.457c0.052-0.19,0.078-0.426,0.078-0.707v-0.336h1.648v0.414c0,1.021-0.244,1.765-0.73,2.23
		C54.462,27.093,53.758,27.326,52.836,27.326z M53.93,20.873c0.005-0.058,0.01-0.134,0.016-0.23
		c0.005-0.097,0.009-0.196,0.012-0.301c0.002-0.104,0.004-0.207,0.004-0.309s0-0.188,0-0.262c0-0.708-0.083-1.219-0.25-1.531
		c-0.167-0.312-0.414-0.469-0.742-0.469c-0.172,0-0.323,0.04-0.453,0.121c-0.13,0.081-0.237,0.216-0.32,0.406
		c-0.083,0.19-0.146,0.441-0.188,0.754c-0.042,0.312-0.062,0.7-0.062,1.164v0.656H53.93z"/>
	<path fill="#FFFFFF" d="M62.352,27.326c-0.333,0-0.629-0.066-0.887-0.199s-0.476-0.313-0.652-0.543
		c-0.177-0.229-0.312-0.501-0.402-0.816c-0.091-0.315-0.137-0.657-0.137-1.027c0-0.442,0.055-0.836,0.164-1.18s0.27-0.653,0.48-0.93
		s0.473-0.527,0.785-0.754s0.674-0.441,1.086-0.645c0.198-0.099,0.42-0.199,0.668-0.301c0.247-0.102,0.467-0.188,0.66-0.262v-1.422
		c0-0.208-0.008-0.402-0.023-0.582s-0.054-0.336-0.113-0.469c-0.06-0.133-0.15-0.237-0.27-0.312
		c-0.12-0.075-0.284-0.113-0.492-0.113c-0.141,0-0.277,0.026-0.41,0.078s-0.25,0.141-0.352,0.266s-0.183,0.292-0.242,0.5
		c-0.06,0.208-0.09,0.466-0.09,0.773v0.469h-1.508c-0.047-0.203-0.082-0.39-0.105-0.559s-0.035-0.337-0.035-0.504
		c0-0.401,0.069-0.755,0.207-1.062c0.138-0.308,0.331-0.565,0.578-0.773c0.247-0.208,0.543-0.366,0.887-0.473s0.721-0.16,1.133-0.16
		c0.536,0,0.981,0.059,1.336,0.176c0.354,0.117,0.637,0.293,0.848,0.527s0.359,0.528,0.445,0.883s0.129,0.769,0.129,1.242v8.055
		H64.57l-0.141-0.922c-0.214,0.308-0.499,0.558-0.855,0.75C63.217,27.229,62.81,27.326,62.352,27.326z M63.227,25.803
		c0.167,0,0.329-0.043,0.488-0.129c0.159-0.086,0.293-0.191,0.402-0.316V21.99c-0.104,0.042-0.222,0.091-0.352,0.148
		c-0.13,0.058-0.271,0.133-0.422,0.227c-0.141,0.089-0.279,0.195-0.414,0.32c-0.136,0.125-0.257,0.273-0.363,0.445
		c-0.107,0.172-0.193,0.366-0.258,0.582c-0.065,0.216-0.098,0.457-0.098,0.723c0,0.411,0.081,0.742,0.242,0.992
		C62.614,25.678,62.872,25.803,63.227,25.803z"/>
	<path fill="#FFFFFF" d="M71.633,13.865h2.641l1.281,5.164c0.136,0.573,0.242,1.118,0.32,1.637s0.153,1.007,0.227,1.465h0.062
		c0.073-0.458,0.148-0.946,0.227-1.465s0.185-1.063,0.32-1.637l1.32-5.164h2.586v13.344h-1.891v-4.414
		c0-0.677,0.007-1.328,0.02-1.953s0.03-1.199,0.051-1.723s0.044-0.985,0.07-1.387s0.05-0.719,0.07-0.953h-0.148l-2.016,8.711h-1.281
		l-2.031-8.711h-0.148c0.021,0.234,0.044,0.552,0.07,0.953s0.05,0.863,0.07,1.387s0.038,1.098,0.051,1.723s0.02,1.276,0.02,1.953
		v4.414h-1.891V13.865z"/>
	<path fill="#FFFFFF" d="M84.258,27.326c-0.333,0-0.629-0.066-0.887-0.199s-0.476-0.313-0.652-0.543s-0.312-0.501-0.402-0.816
		S82.18,25.11,82.18,24.74c0-0.442,0.055-0.836,0.164-1.18s0.27-0.653,0.48-0.93s0.473-0.527,0.785-0.754s0.675-0.441,1.086-0.645
		c0.198-0.099,0.421-0.199,0.668-0.301s0.468-0.188,0.66-0.262v-1.422c0-0.208-0.008-0.402-0.023-0.582s-0.054-0.336-0.113-0.469
		s-0.149-0.237-0.27-0.312s-0.284-0.113-0.492-0.113c-0.141,0-0.277,0.026-0.41,0.078s-0.25,0.141-0.352,0.266
		s-0.183,0.292-0.242,0.5s-0.09,0.466-0.09,0.773v0.469h-1.508c-0.047-0.203-0.082-0.39-0.105-0.559s-0.035-0.337-0.035-0.504
		c0-0.401,0.069-0.755,0.207-1.062s0.331-0.565,0.578-0.773s0.543-0.366,0.887-0.473s0.722-0.16,1.133-0.16
		c0.536,0,0.981,0.059,1.336,0.176s0.637,0.293,0.848,0.527s0.359,0.528,0.445,0.883s0.129,0.769,0.129,1.242v8.055h-1.469
		l-0.141-0.922c-0.214,0.308-0.499,0.558-0.855,0.75S84.716,27.326,84.258,27.326z M85.133,25.803c0.167,0,0.329-0.043,0.488-0.129
		s0.293-0.191,0.402-0.316V21.99c-0.104,0.042-0.222,0.091-0.352,0.148s-0.271,0.133-0.422,0.227
		c-0.141,0.089-0.278,0.195-0.414,0.32s-0.257,0.273-0.363,0.445s-0.192,0.366-0.258,0.582s-0.098,0.457-0.098,0.723
		c0,0.411,0.081,0.742,0.242,0.992S84.778,25.803,85.133,25.803z"/>
	<path fill="#FFFFFF" d="M89.57,24.959c0-0.234,0.022-0.461,0.066-0.68s0.087-0.394,0.129-0.523h1.391
		c0,0.391,0.02,0.718,0.059,0.98s0.103,0.473,0.191,0.629s0.207,0.269,0.355,0.336s0.329,0.102,0.543,0.102
		c0.297,0,0.513-0.083,0.648-0.25s0.203-0.359,0.203-0.578c0-0.114-0.016-0.224-0.047-0.328s-0.075-0.21-0.133-0.316
		s-0.128-0.215-0.211-0.324s-0.177-0.229-0.281-0.359l-1.445-1.703c-0.188-0.234-0.368-0.473-0.543-0.715s-0.328-0.492-0.461-0.75
		s-0.239-0.527-0.32-0.809s-0.121-0.578-0.121-0.891c0-0.417,0.071-0.778,0.215-1.086s0.336-0.562,0.578-0.766
		s0.522-0.354,0.84-0.453s0.653-0.148,1.008-0.148c0.391,0,0.742,0.047,1.055,0.141s0.581,0.234,0.805,0.422
		s0.396,0.421,0.516,0.699s0.18,0.603,0.18,0.973c0,0.25-0.022,0.492-0.066,0.727s-0.087,0.435-0.129,0.602h-1.367
		c-0.005-0.354-0.021-0.664-0.047-0.93s-0.074-0.485-0.145-0.66s-0.167-0.306-0.289-0.395s-0.282-0.133-0.48-0.133
		c-0.172,0-0.315,0.027-0.43,0.082s-0.207,0.126-0.277,0.215s-0.12,0.188-0.148,0.297s-0.043,0.222-0.043,0.336
		c0,0.25,0.06,0.481,0.18,0.695s0.278,0.445,0.477,0.695l1.578,1.852c0.114,0.141,0.247,0.312,0.398,0.512s0.294,0.422,0.43,0.664
		s0.25,0.507,0.344,0.793s0.141,0.586,0.141,0.898c0,0.38-0.06,0.726-0.18,1.035s-0.297,0.574-0.531,0.793s-0.522,0.388-0.863,0.508
		s-0.73,0.18-1.168,0.18c-0.359,0-0.698-0.04-1.016-0.121s-0.594-0.214-0.828-0.398s-0.419-0.429-0.555-0.73
		S89.57,25.401,89.57,24.959z"/>
	<path fill="#FFFFFF" d="M96.047,24.959c0-0.234,0.022-0.461,0.066-0.68s0.087-0.394,0.129-0.523h1.391
		c0,0.391,0.02,0.718,0.059,0.98s0.103,0.473,0.191,0.629s0.207,0.269,0.355,0.336s0.329,0.102,0.543,0.102
		c0.297,0,0.513-0.083,0.648-0.25s0.203-0.359,0.203-0.578c0-0.114-0.016-0.224-0.047-0.328s-0.075-0.21-0.133-0.316
		s-0.128-0.215-0.211-0.324s-0.177-0.229-0.281-0.359l-1.445-1.703c-0.188-0.234-0.368-0.473-0.543-0.715s-0.328-0.492-0.461-0.75
		s-0.239-0.527-0.32-0.809s-0.121-0.578-0.121-0.891c0-0.417,0.071-0.778,0.215-1.086s0.336-0.562,0.578-0.766
		s0.522-0.354,0.84-0.453s0.653-0.148,1.008-0.148c0.391,0,0.742,0.047,1.055,0.141s0.581,0.234,0.805,0.422
		s0.396,0.421,0.516,0.699s0.18,0.603,0.18,0.973c0,0.25-0.022,0.492-0.066,0.727s-0.087,0.435-0.129,0.602h-1.367
		c-0.005-0.354-0.021-0.664-0.047-0.93s-0.074-0.485-0.145-0.66s-0.167-0.306-0.289-0.395s-0.282-0.133-0.48-0.133
		c-0.172,0-0.315,0.027-0.43,0.082s-0.207,0.126-0.277,0.215s-0.12,0.188-0.148,0.297s-0.043,0.222-0.043,0.336
		c0,0.25,0.06,0.481,0.18,0.695s0.278,0.445,0.477,0.695l1.578,1.852c0.114,0.141,0.247,0.312,0.398,0.512s0.294,0.422,0.43,0.664
		s0.25,0.507,0.344,0.793s0.141,0.586,0.141,0.898c0,0.38-0.06,0.726-0.18,1.035s-0.297,0.574-0.531,0.793s-0.522,0.388-0.863,0.508
		s-0.73,0.18-1.168,0.18c-0.359,0-0.698-0.04-1.016-0.121s-0.594-0.214-0.828-0.398s-0.419-0.429-0.555-0.73
		S96.047,25.401,96.047,24.959z"/>
	<path fill="#FFFFFF" d="M104.43,27.326c-0.333,0-0.629-0.066-0.887-0.199s-0.476-0.313-0.652-0.543s-0.312-0.501-0.402-0.816
		s-0.137-0.657-0.137-1.027c0-0.442,0.055-0.836,0.164-1.18s0.27-0.653,0.48-0.93s0.473-0.527,0.785-0.754s0.675-0.441,1.086-0.645
		c0.198-0.099,0.421-0.199,0.668-0.301s0.468-0.188,0.66-0.262v-1.422c0-0.208-0.008-0.402-0.023-0.582s-0.054-0.336-0.113-0.469
		s-0.149-0.237-0.27-0.312s-0.284-0.113-0.492-0.113c-0.141,0-0.277,0.026-0.41,0.078s-0.25,0.141-0.352,0.266
		s-0.183,0.292-0.242,0.5s-0.09,0.466-0.09,0.773v0.469h-1.508c-0.047-0.203-0.082-0.39-0.105-0.559s-0.035-0.337-0.035-0.504
		c0-0.401,0.069-0.755,0.207-1.062s0.331-0.565,0.578-0.773s0.543-0.366,0.887-0.473s0.722-0.16,1.133-0.16
		c0.536,0,0.981,0.059,1.336,0.176s0.637,0.293,0.848,0.527s0.359,0.528,0.445,0.883s0.129,0.769,0.129,1.242v8.055h-1.469
		l-0.141-0.922c-0.214,0.308-0.499,0.558-0.855,0.75S104.888,27.326,104.43,27.326z M105.305,25.803
		c0.167,0,0.329-0.043,0.488-0.129s0.293-0.191,0.402-0.316V21.99c-0.104,0.042-0.222,0.091-0.352,0.148s-0.271,0.133-0.422,0.227
		c-0.141,0.089-0.278,0.195-0.414,0.32s-0.257,0.273-0.363,0.445s-0.192,0.366-0.258,0.582s-0.098,0.457-0.098,0.723
		c0,0.411,0.081,0.742,0.242,0.992S104.95,25.803,105.305,25.803z"/>
	<path fill="#FFFFFF" d="M111.773,27.943c0,0.464,0.086,0.792,0.258,0.984s0.438,0.289,0.797,0.289c0.146,0,0.286-0.022,0.422-0.066
		s0.254-0.125,0.355-0.242s0.184-0.28,0.246-0.488s0.094-0.477,0.094-0.805V25.92c-0.177,0.229-0.405,0.426-0.684,0.59
		s-0.624,0.246-1.035,0.246c-0.12,0-0.261-0.012-0.422-0.035s-0.328-0.077-0.5-0.16s-0.341-0.21-0.508-0.379
		s-0.315-0.397-0.445-0.684s-0.235-0.645-0.316-1.074s-0.121-0.949-0.121-1.559v-2.828c0-0.583,0.04-1.079,0.121-1.488
		s0.187-0.751,0.316-1.027s0.28-0.492,0.449-0.648s0.341-0.274,0.516-0.355s0.345-0.132,0.512-0.152s0.315-0.031,0.445-0.031
		c0.261,0,0.491,0.034,0.691,0.102s0.375,0.157,0.523,0.27s0.274,0.238,0.379,0.379s0.192,0.281,0.266,0.422l0.18-1.062h1.539
		v10.328c0,0.599-0.058,1.14-0.172,1.621s-0.294,0.894-0.539,1.234s-0.556,0.603-0.934,0.785s-0.829,0.273-1.355,0.273
		c-0.354,0-0.688-0.031-1-0.094s-0.586-0.173-0.82-0.332s-0.419-0.375-0.555-0.648s-0.203-0.621-0.203-1.043
		c0-0.073,0.008-0.164,0.023-0.273s0.042-0.227,0.078-0.352H111.773z M112.898,25.225c0.13,0,0.246-0.022,0.348-0.066
		s0.192-0.103,0.273-0.176s0.151-0.156,0.211-0.25s0.11-0.19,0.152-0.289v-5.883c-0.099-0.219-0.23-0.405-0.395-0.559
		s-0.363-0.23-0.598-0.23c-0.146,0-0.278,0.026-0.398,0.078s-0.224,0.149-0.312,0.293s-0.157,0.341-0.207,0.594
		s-0.074,0.579-0.074,0.98v3.539c0,0.401,0.024,0.729,0.074,0.984s0.118,0.456,0.207,0.602s0.194,0.246,0.316,0.301
		S112.753,25.225,112.898,25.225z"/>
	<path fill="#FFFFFF" d="M120.516,27.326c-0.464,0-0.874-0.086-1.23-0.258s-0.657-0.44-0.902-0.805s-0.43-0.832-0.555-1.402
		s-0.188-1.257-0.188-2.059v-2.031c0-0.683,0.051-1.267,0.152-1.754s0.234-0.896,0.398-1.227s0.354-0.593,0.57-0.785
		s0.438-0.34,0.668-0.441s0.457-0.167,0.684-0.195s0.437-0.043,0.629-0.043c0.354,0,0.695,0.054,1.023,0.16s0.617,0.289,0.867,0.547
		s0.449,0.603,0.598,1.035s0.223,0.972,0.223,1.617c0,0.219-0.007,0.44-0.02,0.664s-0.03,0.444-0.051,0.66s-0.048,0.426-0.082,0.629
		s-0.069,0.391-0.105,0.562h-3.57v1.094c0,0.469,0.019,0.863,0.055,1.184s0.098,0.578,0.184,0.773s0.203,0.336,0.352,0.422
		s0.335,0.129,0.559,0.129c0.12,0,0.237-0.024,0.352-0.074s0.215-0.132,0.301-0.246s0.155-0.267,0.207-0.457
		s0.078-0.426,0.078-0.707v-0.336h1.648v0.414c0,1.021-0.243,1.765-0.73,2.23S121.438,27.326,120.516,27.326z M121.609,20.873
		c0.005-0.058,0.011-0.134,0.016-0.23s0.009-0.196,0.012-0.301s0.004-0.207,0.004-0.309s0-0.188,0-0.262
		c0-0.708-0.083-1.219-0.25-1.531s-0.414-0.469-0.742-0.469c-0.172,0-0.323,0.04-0.453,0.121s-0.237,0.216-0.32,0.406
		s-0.146,0.441-0.188,0.754s-0.062,0.7-0.062,1.164v0.656H121.609z"/>
</g>
</svg>
