<?xml version="1.0" encoding="utf-8"?>
<!-- Generator: Adobe Illustrator 16.0.4, SVG Export Plug-In . SVG Version: 6.00 Build 0)  -->
<!DOCTYPE svg PUBLIC "-//W3C//DTD SVG 1.1//EN" "http://www.w3.org/Graphics/SVG/1.1/DTD/svg11.dtd">
<svg version="1.1" id="GLYPHS" xmlns="http://www.w3.org/2000/svg" xmlns:xlink="http://www.w3.org/1999/xlink" x="0px" y="0px"
	 width="115px" height="42px" viewBox="0 0 115 42" enable-background="new 0 0 115 42" xml:space="preserve">
<g>
	<path fill="#FFFFFF" d="M4.016,27.326c-0.208,0-0.434-0.017-0.676-0.051s-0.484-0.105-0.727-0.215s-0.474-0.265-0.695-0.465
		c-0.222-0.2-0.417-0.465-0.586-0.793c-0.169-0.328-0.305-0.733-0.406-1.215s-0.152-1.056-0.152-1.723v-4.727
		c0-0.672,0.052-1.246,0.156-1.723c0.104-0.477,0.242-0.878,0.414-1.203s0.37-0.585,0.594-0.777c0.224-0.192,0.456-0.34,0.695-0.441
		c0.239-0.102,0.478-0.168,0.715-0.199c0.237-0.031,0.457-0.047,0.66-0.047c0.531,0,0.975,0.074,1.332,0.223
		c0.356,0.148,0.643,0.352,0.859,0.609c0.216,0.258,0.37,0.559,0.461,0.902c0.091,0.344,0.137,0.708,0.137,1.094
		c0,0.286-0.015,0.551-0.043,0.793c-0.029,0.242-0.072,0.509-0.129,0.801H4.984v-0.68c0-0.734-0.081-1.284-0.242-1.648
		c-0.162-0.364-0.398-0.547-0.711-0.547c-0.188,0-0.352,0.036-0.492,0.109s-0.258,0.196-0.352,0.371s-0.166,0.405-0.215,0.691
		c-0.05,0.286-0.074,0.644-0.074,1.07v6.094c0,0.417,0.02,0.763,0.059,1.039s0.103,0.497,0.191,0.664
		c0.088,0.167,0.204,0.285,0.348,0.355c0.143,0.07,0.316,0.105,0.52,0.105c0.13,0,0.255-0.03,0.375-0.09
		c0.12-0.06,0.225-0.153,0.316-0.281c0.091-0.128,0.164-0.289,0.219-0.484s0.082-0.426,0.082-0.691v-1.305h1.852v1.234
		c0,1.073-0.245,1.864-0.734,2.375C5.635,27.063,4.932,27.321,4.016,27.326z"/>
	<path fill="#FFFFFF" d="M11.039,27.326c-0.229,0-0.462-0.019-0.699-0.055c-0.237-0.036-0.466-0.112-0.688-0.227
		c-0.222-0.114-0.43-0.278-0.625-0.492s-0.366-0.495-0.512-0.844C8.37,25.36,8.255,24.931,8.172,24.42
		c-0.083-0.511-0.125-1.12-0.125-1.828v-1.688c0-0.698,0.043-1.296,0.129-1.793s0.203-0.915,0.352-1.254s0.321-0.608,0.52-0.809
		c0.198-0.2,0.407-0.354,0.629-0.461c0.221-0.106,0.449-0.177,0.684-0.211s0.463-0.051,0.688-0.051c0.213,0,0.435,0.016,0.664,0.047
		c0.229,0.031,0.453,0.098,0.672,0.199s0.426,0.253,0.621,0.453s0.367,0.47,0.516,0.809s0.266,0.759,0.352,1.262
		S14,20.201,14,20.904v1.688c0,0.698-0.044,1.3-0.133,1.805c-0.089,0.505-0.208,0.933-0.359,1.281
		c-0.151,0.349-0.326,0.632-0.523,0.848c-0.198,0.216-0.406,0.384-0.625,0.504s-0.441,0.199-0.668,0.238
		S11.247,27.326,11.039,27.326z M11.055,25.803c0.177,0,0.327-0.046,0.449-0.137c0.122-0.091,0.221-0.241,0.297-0.449
		c0.075-0.208,0.13-0.483,0.164-0.824c0.034-0.341,0.051-0.765,0.051-1.27v-2.648c0-0.505-0.017-0.93-0.051-1.273
		c-0.034-0.344-0.089-0.621-0.164-0.832c-0.076-0.211-0.175-0.363-0.297-0.457c-0.123-0.094-0.272-0.141-0.449-0.141
		c-0.188,0-0.345,0.047-0.473,0.141c-0.128,0.094-0.233,0.246-0.316,0.457c-0.083,0.211-0.144,0.488-0.18,0.832
		c-0.037,0.344-0.055,0.769-0.055,1.273v2.648c0,0.505,0.018,0.929,0.055,1.27c0.036,0.341,0.096,0.616,0.18,0.824
		c0.083,0.208,0.188,0.358,0.316,0.449C10.709,25.757,10.867,25.803,11.055,25.803z"/>
	<path fill="#FFFFFF" d="M15.75,16.451h1.523l0.18,1.148v0.008c0.156-0.245,0.324-0.449,0.504-0.613s0.366-0.296,0.559-0.395
		c0.192-0.099,0.389-0.169,0.59-0.211c0.2-0.042,0.399-0.062,0.598-0.062c0.63,0,1.116,0.22,1.457,0.66
		c0.341,0.44,0.512,1.101,0.512,1.98v8.242h-1.977v-8.172c0-0.474-0.073-0.804-0.219-0.988c-0.146-0.185-0.359-0.277-0.641-0.277
		c-0.198,0-0.395,0.065-0.59,0.195s-0.369,0.31-0.52,0.539v8.703H15.75V16.451z"/>
	<path fill="#FFFFFF" d="M23.984,17.857h-0.93v-1.406h0.93v-0.773c0-0.583,0.06-1.059,0.18-1.426
		c0.12-0.367,0.285-0.653,0.496-0.859s0.458-0.345,0.742-0.418c0.284-0.073,0.59-0.109,0.918-0.109c0.094,0,0.199,0.005,0.316,0.016
		s0.234,0.027,0.352,0.051s0.231,0.051,0.344,0.082c0.112,0.031,0.212,0.07,0.301,0.117v1.391c-0.219-0.058-0.464-0.086-0.734-0.086
		c-0.13,0-0.254,0.021-0.371,0.062s-0.22,0.11-0.309,0.207c-0.089,0.097-0.159,0.224-0.211,0.383
		c-0.052,0.159-0.078,0.355-0.078,0.59v0.773h1.492v1.406H25.93v9.352h-1.945V17.857z"/>
	<path fill="#FFFFFF" d="M31.125,27.326c-0.464,0-0.874-0.086-1.23-0.258c-0.357-0.172-0.658-0.44-0.902-0.805
		c-0.245-0.364-0.43-0.832-0.555-1.402s-0.188-1.257-0.188-2.059v-2.031c0-0.683,0.051-1.267,0.152-1.754s0.234-0.896,0.398-1.227
		s0.354-0.593,0.57-0.785c0.216-0.192,0.438-0.34,0.668-0.441c0.229-0.102,0.457-0.167,0.684-0.195s0.436-0.043,0.629-0.043
		c0.354,0,0.695,0.054,1.023,0.16s0.617,0.289,0.867,0.547s0.449,0.603,0.598,1.035s0.223,0.972,0.223,1.617
		c0,0.219-0.007,0.44-0.02,0.664c-0.013,0.224-0.03,0.444-0.051,0.66c-0.021,0.216-0.048,0.426-0.082,0.629
		c-0.034,0.203-0.069,0.391-0.105,0.562h-3.57v1.094c0,0.469,0.018,0.863,0.055,1.184c0.036,0.32,0.098,0.578,0.184,0.773
		s0.203,0.336,0.352,0.422s0.334,0.129,0.559,0.129c0.12,0,0.237-0.024,0.352-0.074c0.114-0.05,0.215-0.132,0.301-0.246
		s0.155-0.267,0.207-0.457c0.052-0.19,0.078-0.426,0.078-0.707v-0.336h1.648v0.414c0,1.021-0.244,1.765-0.73,2.23
		C32.751,27.093,32.047,27.326,31.125,27.326z M32.219,20.873c0.005-0.058,0.01-0.134,0.016-0.23
		c0.005-0.097,0.009-0.196,0.012-0.301c0.002-0.104,0.004-0.207,0.004-0.309s0-0.188,0-0.262c0-0.708-0.083-1.219-0.25-1.531
		c-0.167-0.312-0.414-0.469-0.742-0.469c-0.172,0-0.323,0.04-0.453,0.121c-0.13,0.081-0.237,0.216-0.32,0.406
		c-0.083,0.19-0.146,0.441-0.188,0.754c-0.042,0.312-0.062,0.7-0.062,1.164v0.656H32.219z"/>
	<path fill="#FFFFFF" d="M35.734,16.451h1.445l0.172,1.094c0.219-0.406,0.47-0.711,0.754-0.914c0.284-0.203,0.574-0.305,0.871-0.305
		c0.567,0,0.987,0.175,1.258,0.523c0.271,0.349,0.406,0.872,0.406,1.57c0,0.089-0.007,0.194-0.02,0.316
		c-0.013,0.122-0.031,0.25-0.055,0.383s-0.052,0.266-0.086,0.398c-0.034,0.133-0.069,0.254-0.105,0.363H39v-1
		c0-0.219-0.015-0.398-0.043-0.539c-0.029-0.141-0.066-0.254-0.113-0.34s-0.102-0.146-0.164-0.18s-0.13-0.051-0.203-0.051
		c-0.156,0-0.301,0.051-0.434,0.152s-0.244,0.243-0.332,0.426v8.859h-1.977V16.451z"/>
	<path fill="#FFFFFF" d="M44.484,27.326c-0.464,0-0.874-0.086-1.23-0.258c-0.357-0.172-0.658-0.44-0.902-0.805
		c-0.245-0.364-0.43-0.832-0.555-1.402s-0.188-1.257-0.188-2.059v-2.031c0-0.683,0.051-1.267,0.152-1.754s0.234-0.896,0.398-1.227
		s0.354-0.593,0.57-0.785c0.216-0.192,0.438-0.34,0.668-0.441c0.229-0.102,0.457-0.167,0.684-0.195s0.436-0.043,0.629-0.043
		c0.354,0,0.695,0.054,1.023,0.16s0.617,0.289,0.867,0.547s0.449,0.603,0.598,1.035s0.223,0.972,0.223,1.617
		c0,0.219-0.007,0.44-0.02,0.664c-0.013,0.224-0.03,0.444-0.051,0.66c-0.021,0.216-0.048,0.426-0.082,0.629
		c-0.034,0.203-0.069,0.391-0.105,0.562h-3.57v1.094c0,0.469,0.018,0.863,0.055,1.184c0.036,0.32,0.098,0.578,0.184,0.773
		s0.203,0.336,0.352,0.422s0.334,0.129,0.559,0.129c0.12,0,0.237-0.024,0.352-0.074c0.114-0.05,0.215-0.132,0.301-0.246
		s0.155-0.267,0.207-0.457c0.052-0.19,0.078-0.426,0.078-0.707v-0.336h1.648v0.414c0,1.021-0.244,1.765-0.73,2.23
		C46.11,27.093,45.406,27.326,44.484,27.326z M45.578,20.873c0.005-0.058,0.01-0.134,0.016-0.23
		c0.005-0.097,0.009-0.196,0.012-0.301c0.002-0.104,0.004-0.207,0.004-0.309s0-0.188,0-0.262c0-0.708-0.083-1.219-0.25-1.531
		c-0.167-0.312-0.414-0.469-0.742-0.469c-0.172,0-0.323,0.04-0.453,0.121c-0.13,0.081-0.237,0.216-0.32,0.406
		c-0.083,0.19-0.146,0.441-0.188,0.754c-0.042,0.312-0.062,0.7-0.062,1.164v0.656H45.578z"/>
	<path fill="#FFFFFF" d="M49.094,16.451h1.523l0.18,1.148v0.008c0.156-0.245,0.324-0.449,0.504-0.613s0.366-0.296,0.559-0.395
		c0.192-0.099,0.389-0.169,0.59-0.211c0.2-0.042,0.399-0.062,0.598-0.062c0.63,0,1.116,0.22,1.457,0.66
		c0.341,0.44,0.512,1.101,0.512,1.98v8.242h-1.977v-8.172c0-0.474-0.073-0.804-0.219-0.988c-0.146-0.185-0.359-0.277-0.641-0.277
		c-0.198,0-0.395,0.065-0.59,0.195s-0.369,0.31-0.52,0.539v8.703h-1.977V16.451z"/>
	<path fill="#FFFFFF" d="M59.57,27.326c-0.906,0-1.598-0.372-2.074-1.117s-0.715-1.88-0.715-3.406v-2.031
		c0-0.683,0.049-1.267,0.148-1.754c0.099-0.487,0.23-0.896,0.395-1.227s0.352-0.593,0.562-0.785s0.428-0.34,0.652-0.441
		c0.224-0.102,0.445-0.167,0.664-0.195s0.419-0.043,0.602-0.043c0.364,0,0.698,0.048,1,0.145c0.302,0.097,0.562,0.242,0.781,0.438
		s0.388,0.441,0.508,0.738c0.12,0.297,0.18,0.646,0.18,1.047c0,0.25-0.012,0.465-0.035,0.645s-0.056,0.353-0.098,0.52h-1.578v-0.359
		c0-0.542-0.064-0.965-0.191-1.27c-0.128-0.305-0.337-0.457-0.629-0.457c-0.162,0-0.302,0.038-0.422,0.113
		c-0.12,0.075-0.22,0.204-0.301,0.387c-0.081,0.183-0.141,0.427-0.18,0.734s-0.059,0.692-0.059,1.156v3.055
		c0,0.469,0.016,0.867,0.047,1.195s0.086,0.595,0.164,0.801s0.182,0.355,0.312,0.449c0.13,0.094,0.292,0.141,0.484,0.141
		c0.099,0,0.195-0.024,0.289-0.074s0.176-0.132,0.246-0.246s0.127-0.267,0.172-0.457c0.044-0.19,0.066-0.426,0.066-0.707v-0.336
		h1.703v0.414c0,1.021-0.226,1.765-0.676,2.23C61.139,27.093,60.466,27.326,59.57,27.326z"/>
	<path fill="#FFFFFF" d="M66.461,27.326c-0.464,0-0.874-0.086-1.23-0.258c-0.357-0.172-0.658-0.44-0.902-0.805
		c-0.245-0.364-0.43-0.832-0.555-1.402s-0.188-1.257-0.188-2.059v-2.031c0-0.683,0.051-1.267,0.152-1.754s0.234-0.896,0.398-1.227
		s0.354-0.593,0.57-0.785c0.216-0.192,0.438-0.34,0.668-0.441c0.229-0.102,0.457-0.167,0.684-0.195s0.436-0.043,0.629-0.043
		c0.354,0,0.695,0.054,1.023,0.16s0.617,0.289,0.867,0.547s0.449,0.603,0.598,1.035s0.223,0.972,0.223,1.617
		c0,0.219-0.007,0.44-0.02,0.664s-0.03,0.444-0.051,0.66s-0.048,0.426-0.082,0.629s-0.069,0.391-0.105,0.562h-3.57v1.094
		c0,0.469,0.018,0.863,0.055,1.184c0.036,0.32,0.098,0.578,0.184,0.773s0.203,0.336,0.352,0.422s0.334,0.129,0.559,0.129
		c0.12,0,0.237-0.024,0.352-0.074c0.114-0.05,0.215-0.132,0.301-0.246s0.155-0.267,0.207-0.457c0.052-0.19,0.078-0.426,0.078-0.707
		v-0.336h1.648v0.414c0,1.021-0.243,1.765-0.73,2.23S67.383,27.326,66.461,27.326z M67.555,20.873
		c0.005-0.058,0.01-0.134,0.016-0.23c0.005-0.097,0.009-0.196,0.012-0.301c0.002-0.104,0.004-0.207,0.004-0.309s0-0.188,0-0.262
		c0-0.708-0.083-1.219-0.25-1.531c-0.167-0.312-0.414-0.469-0.742-0.469c-0.172,0-0.323,0.04-0.453,0.121
		c-0.13,0.081-0.237,0.216-0.32,0.406c-0.083,0.19-0.146,0.441-0.188,0.754c-0.042,0.312-0.062,0.7-0.062,1.164v0.656H67.555z"/>
	<path fill="#FFFFFF" d="M74.617,13.865h2.195c0.25,0,0.524,0.011,0.824,0.031s0.599,0.071,0.898,0.152s0.589,0.202,0.867,0.363
		s0.526,0.383,0.742,0.664s0.39,0.634,0.52,1.059s0.195,0.938,0.195,1.543v0.336c0,1.016-0.146,1.843-0.438,2.48
		s-0.722,1.098-1.289,1.379l2.141,5.336h-2.141l-1.773-4.992h-0.758v4.992h-1.984V13.865z M76.906,20.756
		c0.354,0,0.653-0.039,0.898-0.117s0.442-0.21,0.594-0.395s0.261-0.43,0.328-0.734s0.102-0.681,0.102-1.129v-1.055
		c0-0.344-0.031-0.641-0.094-0.891s-0.168-0.456-0.316-0.617s-0.345-0.281-0.59-0.359s-0.552-0.117-0.922-0.117h-0.305v5.414H76.906
		z"/>
	<path fill="#FFFFFF" d="M85.391,27.326c-0.229,0-0.462-0.019-0.699-0.055s-0.466-0.112-0.688-0.227s-0.43-0.278-0.625-0.492
		s-0.366-0.495-0.512-0.844s-0.261-0.778-0.344-1.289s-0.125-1.12-0.125-1.828v-1.688c0-0.698,0.043-1.296,0.129-1.793
		s0.203-0.915,0.352-1.254s0.321-0.608,0.52-0.809s0.407-0.354,0.629-0.461s0.449-0.177,0.684-0.211s0.464-0.051,0.688-0.051
		c0.214,0,0.435,0.016,0.664,0.047s0.453,0.098,0.672,0.199s0.426,0.253,0.621,0.453s0.367,0.47,0.516,0.809
		s0.266,0.759,0.352,1.262s0.129,1.105,0.129,1.809v1.688c0,0.698-0.044,1.3-0.133,1.805s-0.208,0.933-0.359,1.281
		s-0.325,0.632-0.523,0.848s-0.406,0.384-0.625,0.504s-0.441,0.199-0.668,0.238S85.599,27.326,85.391,27.326z M85.406,25.803
		c0.177,0,0.327-0.046,0.449-0.137s0.222-0.241,0.297-0.449s0.13-0.483,0.164-0.824s0.051-0.765,0.051-1.27v-2.648
		c0-0.505-0.017-0.93-0.051-1.273s-0.089-0.621-0.164-0.832s-0.175-0.363-0.297-0.457s-0.272-0.141-0.449-0.141
		c-0.188,0-0.345,0.047-0.473,0.141s-0.233,0.246-0.316,0.457s-0.144,0.488-0.18,0.832s-0.055,0.769-0.055,1.273v2.648
		c0,0.505,0.019,0.929,0.055,1.27s0.097,0.616,0.18,0.824s0.188,0.358,0.316,0.449S85.219,25.803,85.406,25.803z"/>
	<path fill="#FFFFFF" d="M92.812,27.326c-0.229,0-0.462-0.019-0.699-0.055s-0.466-0.112-0.688-0.227s-0.43-0.278-0.625-0.492
		s-0.366-0.495-0.512-0.844s-0.261-0.778-0.344-1.289s-0.125-1.12-0.125-1.828v-1.688c0-0.698,0.043-1.296,0.129-1.793
		s0.203-0.915,0.352-1.254s0.321-0.608,0.52-0.809s0.407-0.354,0.629-0.461s0.449-0.177,0.684-0.211s0.464-0.051,0.688-0.051
		c0.214,0,0.435,0.016,0.664,0.047s0.453,0.098,0.672,0.199s0.426,0.253,0.621,0.453s0.367,0.47,0.516,0.809
		s0.266,0.759,0.352,1.262s0.129,1.105,0.129,1.809v1.688c0,0.698-0.044,1.3-0.133,1.805s-0.208,0.933-0.359,1.281
		s-0.325,0.632-0.523,0.848s-0.406,0.384-0.625,0.504s-0.441,0.199-0.668,0.238S93.021,27.326,92.812,27.326z M92.828,25.803
		c0.177,0,0.327-0.046,0.449-0.137s0.222-0.241,0.297-0.449s0.13-0.483,0.164-0.824s0.051-0.765,0.051-1.27v-2.648
		c0-0.505-0.017-0.93-0.051-1.273s-0.089-0.621-0.164-0.832s-0.175-0.363-0.297-0.457s-0.272-0.141-0.449-0.141
		c-0.188,0-0.345,0.047-0.473,0.141s-0.233,0.246-0.316,0.457s-0.144,0.488-0.18,0.832s-0.055,0.769-0.055,1.273v2.648
		c0,0.505,0.019,0.929,0.055,1.27s0.097,0.616,0.18,0.824s0.188,0.358,0.316,0.449S92.641,25.803,92.828,25.803z"/>
	<path fill="#FFFFFF" d="M97.523,16.451h1.531l0.172,1.148v0.008c0.156-0.245,0.323-0.449,0.5-0.613s0.36-0.296,0.551-0.395
		s0.386-0.169,0.586-0.211s0.399-0.062,0.598-0.062c0.422,0,0.778,0.102,1.07,0.305s0.513,0.508,0.664,0.914
		c0.156-0.234,0.321-0.43,0.496-0.586s0.355-0.281,0.543-0.375s0.378-0.16,0.57-0.199s0.388-0.059,0.586-0.059
		c0.625,0,1.108,0.22,1.449,0.66s0.512,1.101,0.512,1.98v8.242h-1.977v-8.172c0-0.234-0.019-0.433-0.055-0.594
		s-0.091-0.292-0.164-0.391s-0.167-0.171-0.281-0.215s-0.253-0.066-0.414-0.066c-0.183,0-0.364,0.066-0.547,0.199
		s-0.349,0.316-0.5,0.551c0.005,0.047,0.008,0.094,0.008,0.141s0,0.094,0,0.141v8.406h-1.977v-8.172
		c0-0.234-0.019-0.433-0.055-0.594s-0.091-0.292-0.164-0.391s-0.167-0.171-0.281-0.215s-0.253-0.066-0.414-0.066
		c-0.177,0-0.356,0.065-0.539,0.195s-0.347,0.31-0.492,0.539v8.703h-1.977V16.451z"/>
	<path fill="#FFFFFF" d="M108.977,24.959c0-0.234,0.022-0.461,0.066-0.68s0.087-0.394,0.129-0.523h1.391
		c0,0.391,0.02,0.718,0.059,0.98s0.103,0.473,0.191,0.629s0.207,0.269,0.355,0.336s0.329,0.102,0.543,0.102
		c0.297,0,0.513-0.083,0.648-0.25s0.203-0.359,0.203-0.578c0-0.114-0.016-0.224-0.047-0.328s-0.075-0.21-0.133-0.316
		s-0.128-0.215-0.211-0.324s-0.177-0.229-0.281-0.359l-1.445-1.703c-0.188-0.234-0.368-0.473-0.543-0.715s-0.328-0.492-0.461-0.75
		s-0.239-0.527-0.32-0.809S109,19.092,109,18.779c0-0.417,0.071-0.778,0.215-1.086s0.336-0.562,0.578-0.766s0.522-0.354,0.84-0.453
		s0.653-0.148,1.008-0.148c0.391,0,0.742,0.047,1.055,0.141s0.581,0.234,0.805,0.422s0.396,0.421,0.516,0.699s0.18,0.603,0.18,0.973
		c0,0.25-0.022,0.492-0.066,0.727s-0.087,0.435-0.129,0.602h-1.367c-0.005-0.354-0.021-0.664-0.047-0.93s-0.074-0.485-0.145-0.66
		s-0.167-0.306-0.289-0.395s-0.282-0.133-0.48-0.133c-0.172,0-0.315,0.027-0.43,0.082s-0.207,0.126-0.277,0.215
		s-0.12,0.188-0.148,0.297s-0.043,0.222-0.043,0.336c0,0.25,0.06,0.481,0.18,0.695s0.278,0.445,0.477,0.695l1.578,1.852
		c0.114,0.141,0.247,0.312,0.398,0.512s0.294,0.422,0.43,0.664s0.25,0.507,0.344,0.793s0.141,0.586,0.141,0.898
		c0,0.38-0.06,0.726-0.18,1.035s-0.297,0.574-0.531,0.793s-0.522,0.388-0.863,0.508s-0.73,0.18-1.168,0.18
		c-0.359,0-0.698-0.04-1.016-0.121s-0.594-0.214-0.828-0.398s-0.419-0.429-0.555-0.73S108.977,25.401,108.977,24.959z"/>
</g>
</svg>
